<?xml version="1.0" encoding="UTF-8"?>
<svg id="Layer_1" data-name="Layer 1" xmlns="http://www.w3.org/2000/svg" viewBox="0 0 864 154.26">
  <defs>
    <style>
      .cls-1 {
        fill: #fff;
      }
    </style>
  </defs>
  <g id="type">
    <path id="type_CompoundPathItem_" data-name="type CompoundPathItem " class="cls-1" d="M157.91,108.48c.67,11.22,10.38,20.77,26.63,20.77,11.67,.18,23.1-3.34,32.65-10.05v17.25c-6.2,6.03-20.09,10.55-34,10.55-26.96,0-47.56-18.43-47.56-43.55,.17-23.45,19.26-41.54,44.38-41.54s44.88,23.62,41.87,46.56h-63.98Zm42.37-14.91c-.5-7.87-9.54-13.73-20.26-13.73-11.39,0-20.43,5.7-21.1,13.73h41.37Z"/>
    <path id="type_CompoundPathItem_2" data-name="type CompoundPathItem 2" class="cls-1" d="M238.83,34.45h23.11v28.97h15.74v16.58h-15.74v40.86c0,7.2,2.68,9.88,6.36,9.88,2.64-.07,5.27-.35,7.87-.84v16.58c-3.69,.33-6.87,.5-10.55,.5-15.91,0-26.8-6.87-26.8-26.13v-40.86h-9.54v-16.58h9.54v-28.97Z"/>
    <path id="type_CompoundPathItem_3" data-name="type CompoundPathItem 3" class="cls-1" d="M305,28.59c6.53,0,11.22,4.69,11.22,11.05s-4.69,11.05-11.22,11.05c-5.93,.18-10.88-4.48-11.06-10.41,0-.21,0-.43,0-.64-.18-5.93,4.49-10.88,10.42-11.05,.21,0,.43,0,.64,0Zm11.89,117.23V63.43h-22.94v82.4h22.94Z"/>
    <path id="type_CompoundPathItem_4" data-name="type CompoundPathItem 4" class="cls-1" d="M409.85,91.56c-8.54-6.87-18.42-10.55-28.64-10.55-13.23,0-24.95,9.71-24.95,23.62s11.72,23.61,24.95,23.61c10.22,0,20.09-3.68,28.64-10.55v20.43c-8.36,5.97-18.37,9.19-28.64,9.21-25.63,0-47.9-17.42-47.9-42.71s22.27-42.71,47.9-42.71c10.27,.02,20.28,3.24,28.64,9.21v20.43Z"/>
    <path id="type_CompoundPathItem_5" data-name="type CompoundPathItem 5" class="cls-1" d="M515.72,104.79c0,23.28-20.09,42.21-45.05,42.21s-46.39-18.93-46.39-42.21,20.6-42.37,46.39-42.37c24.95,0,45.05,18.92,45.05,42.37Zm-70.84,0c0,12.73,11.72,23.28,25.79,23.28,13.23,0,24.45-10.55,24.45-23.28s-11.22-23.45-24.45-23.45c-14.07,0-25.79,10.72-25.79,23.45h0Z"/>
    <path id="type_CompoundPathItem_6" data-name="type CompoundPathItem 6" class="cls-1" d="M553.26,70.63c5.19-5.36,12.06-8.71,18.42-8.71,14.91,0,23.95,6.87,28.81,15.58,8.04-9.88,18.92-15.58,30.82-15.58,27.13,0,39.52,15.41,39.52,35.5v48.4h-23.11v-43.21c0-11.89-5.03-22.78-16.41-22.78-7.87,0-15.24,5.19-19.09,12.56v53.42h-23.28v-44.88c0-10.38-3.52-21.1-17.25-21.1-6.87,0-13.57,3.69-18.42,11.39v54.6h-22.94V63.43h22.94v7.2Z"/>
    <path id="type_CompoundPathItem_7" data-name="type CompoundPathItem 7" class="cls-1" d="M708.56,108.48c.67,11.22,10.38,20.77,26.63,20.77,11.67,.18,23.1-3.34,32.65-10.05v17.25c-6.2,6.03-20.09,10.55-34,10.55-26.96,0-47.56-18.43-47.56-43.55,.17-23.45,19.26-41.54,44.38-41.54s44.88,23.62,41.87,46.56h-63.98Zm42.37-14.91c-.5-7.87-9.54-13.73-20.26-13.73-11.39,0-20.43,5.7-21.1,13.73h41.37Z"/>
    <path id="type_CompoundPathItem_8" data-name="type CompoundPathItem 8" class="cls-1" d="M806.89,104.63l-30.15-41.2h26.8l16.75,22.78,16.75-22.78h26.96l-30.48,41.2,30.48,41.2h-26.96l-16.75-22.78c-5.19,7.37-11.55,15.74-16.75,22.78h-26.8l30.15-41.2Z"/>
  </g>
  <g id="logoMark">
    <rect id="logoMark_PathItem_" data-name="logoMark PathItem " class="cls-1" x="51.42" width="51.44" height="51.44"/>
    <polygon id="logoMark_PathItem_2" data-name="logoMark PathItem 2" class="cls-1" points="51.42 154.26 102.83 154.26 102.83 102.85 51.42 102.85 51.42 51.43 0 51.43 0 102.85 51.42 154.26"/>
  </g>
</svg>