<?xml version="1.0" encoding="utf-8"?>
<!-- Generator: Adobe Illustrator 21.1.0, SVG Export Plug-In . SVG Version: 6.00 Build 0)  -->
<svg version="1.1" id="Capa_1" xmlns="http://www.w3.org/2000/svg" xmlns:xlink="http://www.w3.org/1999/xlink" x="0px" y="0px"
	 viewBox="0 0 605 105" style="enable-background:new 0 0 605 105;" xml:space="preserve">
<style type="text/css">
	.st0{fill-rule:evenodd;clip-rule:evenodd;fill:#FFFFFF;}
	.st1{fill:#FFFFFF;}
</style>
<g>
	<path class="st0" d="M2.5,67.8h479.4c0.5-2,2.2-3.4,4.4-3.4c2.5,0,4.5,2,4.5,4.5c0,2.5-2,4.5-4.5,4.5c-1.7,0-3.2-0.9-3.9-2.3H2.5
		V67.8z"/>
	<g>
		<polygon class="st1" points="548.1,59.5 548.7,59.5 549.3,59.5 549.3,58.4 548.7,58.4 548.1,58.4 548.1,57.3 546.8,57.3 
			546.8,60.6 548.1,60.6 		"/>
		<polygon class="st1" points="553.1,64 553.1,64 553.1,64 		"/>
		<polygon class="st1" points="556.8,66.2 556.9,66.3 556.9,66.3 556.9,66.2 556.9,66.2 		"/>
		<path class="st1" d="M544.4,76.9v0.4h-1.9h-2.4H538V73l0-0.1c-0.3-0.7-0.5-1.5-0.5-2.2h-0.7v7.8h3.3h2.4h2.7h0.4v-1.8
			c-0.1,0-0.2,0.1-0.4,0.1C544.9,76.8,544.6,76.9,544.4,76.9z"/>
		<path class="st1" d="M540.9,76.2c-0.3-0.2-0.5-0.3-0.8-0.5c-0.3-0.2-0.6-0.5-0.8-0.7v1.3h0.8H540.9z"/>
		<path class="st1" d="M548.8,67.3c0.1,0.2,0.2,0.3,0.2,0.5c0.2,0.6,0.4,1.2,0.5,1.8h0.2h0.9v-1.1h-0.9h-0.4v-1.1H548.8z"/>
		<path class="st1" d="M554.4,64.7c0.5,0.2,0.9,0.4,1.3,0.7v-1.4c-0.3-0.2-0.6-0.4-0.9-0.6c-0.1,0-0.2,0-0.4,0.1V64h0h-1.3v0.2
			C553.6,64.3,554,64.5,554.4,64.7z"/>
		<path class="st1" d="M551.9,69v0.6h0.2h0.2c-0.1-0.1-0.1-0.2-0.2-0.3C552,69.2,551.9,69.1,551.9,69z"/>
		<polygon class="st1" points="553.5,58.4 553.1,58.4 553.1,58.5 		"/>
		<polygon class="st1" points="554.4,57.3 554.4,57.9 555.7,57.3 555.7,56.2 556.9,56.2 556.9,56.2 556.9,55.1 558.2,55.1 
			558.2,52.9 556.9,52.9 556.9,54 556.9,54 555.7,54 555.7,52.9 554.4,52.9 554.4,55.1 554.4,55.1 553.1,55.1 553.1,57.3 
			554.4,57.3 		"/>
		<polygon class="st1" points="556.9,52.9 556.9,50.6 556.9,50.6 554.4,50.6 553.1,50.6 553.1,51.7 554.4,51.7 555.7,51.7 
			555.7,52.9 556.9,52.9 		"/>
		<path class="st1" d="M545.3,64.1L545.3,64.1l-0.1-0.1H545c0,0,0.1,0,0.1,0L545.3,64.1z"/>
		<polygon class="st1" points="549.3,57.3 549.3,55.1 548.7,55.1 548.1,55.1 548.1,57.3 548.7,57.3 		"/>
		<polygon class="st1" points="548.7,54 549.3,54 549.3,52.9 548.7,52.9 548.1,52.9 548.1,51.7 546.8,51.7 546.8,55.1 548.1,55.1 
			548.1,54 		"/>
		<polygon class="st1" points="551.9,51.7 551.9,51.7 551.9,50.6 551.9,50.6 549.7,50.6 549.3,50.6 549.3,51.7 549.7,51.7 		"/>
		<polygon class="st1" points="549.7,58.4 550.6,58.4 550.6,57.3 549.7,57.3 549.3,57.3 549.3,58.4 		"/>
		<polygon class="st1" points="549.7,60.2 550.6,59.8 550.6,59.5 549.7,59.5 549.3,59.5 549.3,60.4 		"/>
		<polygon class="st1" points="551.9,57.3 551.9,54 552,54 553.1,54 553.1,52.9 552,52.9 551.9,52.9 550.6,52.9 550.6,57.3 
			551.9,57.3 		"/>
		<polygon class="st1" points="552,58.4 553.1,58.4 553.1,57.3 552,57.3 551.9,57.3 551.9,58.4 		"/>
		<path class="st1" d="M566.2,66.2c-0.8,0.4-1.7,0.8-2.4,1.3c-0.4,0.3-0.9,0.5-1.3,0.8c-0.1-0.3-0.2-0.6-0.2-0.9h-0.4v1.1h-0.6H560
			h-0.6v-1.1h0.6h1.3h0.6v-1.1c-0.2-0.4-0.4-0.8-0.5-1.2h0h-0.7v1.1H560h-0.6v-1.1h0.6h0.6v-1c-0.2-0.2-0.4-0.4-0.6-0.6
			c-0.2-0.2-0.4-0.3-0.6-0.4V64h-1.3v-1.7l-0.2-0.1c-0.4,0.3-0.7,0.6-1,0.9v2h1.3v2.2h-0.4c0.5,0.7,0.8,1.4,1.1,2.2h1.1h1.3h0.6v3.3
			h-0.6H560h-1.8v-2.6c-0.5,0.2-0.9,0.4-1.3,0.6c-0.8,0.4-1.7,0.8-2.5,1.3v0.7h1.3v-1.1h1.2h0.1v1.1h-0.1h-1.2v2.2h1.2h0.1v1.1h1.3
			v1.1h1.8h0.6v-1.1H560h-0.6v-1.1h-1.3V74h1.3v1.1h0.6h0.6V74h0.7h1.8v-1.1h0.6h0.6v-1.1h-0.6h-0.6v-2.2h0.6h1.9v-1.1h1.3v1.1h0.9
			h0.3v-3.4h-0.3H566.2z"/>
		<polygon class="st1" points="561.9,52.9 561.9,54.2 563.2,53.5 563.8,54.1 565.7,56.2 565.7,52.9 563.8,52.9 		"/>
		<path class="st1" d="M553.1,71.7c-0.1-0.4-0.2-0.7-0.4-1H552h-0.2v1h0.2H553.1z"/>
		<polygon class="st1" points="560.6,71.7 560.6,70.7 560,70.7 559.5,70.7 559.5,71.7 560,71.7 		"/>
		<polygon class="st1" points="554.4,74 554.4,74 552,74 551.9,74 551.9,75.1 552,75.1 553.1,75.1 553.1,76.2 552,76.2 551.9,76.2 
			551.9,77.3 551.9,77.3 550.6,77.3 550.6,78.4 551.9,78.4 552,78.4 554.4,78.4 554.4,78.4 554.4,76.2 555.7,76.2 555.7,75.1 
			554.4,75.1 		"/>
		<polygon class="st1" points="561.9,76.2 561.9,75.1 561.3,75.1 560.6,75.1 560.6,76.2 561.3,76.2 		"/>
		<polygon class="st1" points="563.8,75.1 563.2,75.1 563.2,76.2 561.9,76.2 561.9,77.3 561.3,77.3 560.6,77.3 560.6,78.4 
			561.3,78.4 563.2,78.4 563.2,77.3 563.8,77.3 564.4,77.3 564.4,76.2 565.7,76.2 565.7,75.1 567,75.1 567,78.4 567.9,78.4 
			568.2,78.4 568.2,70.7 567.9,70.7 567,70.7 567,74 565.7,74 565.7,72.8 564.4,72.8 564.4,75.1 		"/>
		<path class="st1" d="M565,59.6l-0.2-0.1h-1h-0.6V60c0.2,0.1,0.4,0.2,0.6,0.3c0.2,0.1,0.4,0.2,0.6,0.3v-0.1h2.5v-1.1h-1.8
			C565.1,59.5,565.1,59.6,565,59.6z"/>
		<path class="st1" d="M567.9,50.6h-4.1h-2.5H560h-0.6v4.8l0.6-0.3l0.6-0.3v-3.1h0.7h2.5h3.2v5.6h-0.2l0.3,0.4
			c-0.3,0.2-0.6,0.4-0.8,0.7h1.6h0.3v-7.8H567.9z"/>
		<path class="st1" d="M565.9,61.7c0.4,0.4,0.8,0.8,1,1.2v-0.1h0.9h0.3v-1.1h-0.3H565.9z"/>
		<path class="st1" d="M567.5,64c0.1,0.3,0.2,0.5,0.3,0.8c0,0.1,0.1,0.2,0.1,0.3h0.2V64h-0.3H567.5z"/>
		<path class="st1" d="M548.7,74.1c-0.2,0.3-0.4,0.6-0.6,0.9v0.1h0.6h0.6v-2.5C549.2,73.1,549,73.6,548.7,74.1z"/>
		<polygon class="st1" points="551.9,71.7 550.6,71.7 550.6,74 551.9,74 551.9,74 551.9,71.7 		"/>
		<path class="st1" d="M542.5,50.6h-2.4h-3.3v7.8h3.3h2.4h2.7h0.4v-7.8h-0.4H542.5z M544.4,57.3h-1.9h-2.4H538v-5.6h2.1h2.4h1.9
			V57.3z"/>
		<polygon class="st1" points="544.4,59.5 544.4,60.6 545.2,60.6 545.5,60.6 545.5,59.5 545.2,59.5 		"/>
		<path class="st1" d="M543.1,61.7v1.1h-0.6h-0.6v-1.1h-1.3v1.1h-0.5h-0.8v-1.1H538v-2.2h-1.3v3.4h1.3v2.2h-1.3v4.5h0.7
			c0.1-0.8,0.3-1.6,0.6-2.3v-1.1h0.6c0.3-0.4,0.6-0.8,1-1.1h-0.4V64h0.8h0.5v0.5c0.1-0.1,0.3-0.2,0.5-0.2c0.5-0.2,1-0.4,1.4-0.4
			c0.6-0.1,1.3-0.1,1.9,0v-0.9h0.2l0,0l0.7-0.3l0.4-0.2v-0.6h-0.4H543.1z"/>
		<rect x="564.4" y="70.7" class="st1" width="1.3" height="1"/>
		<polygon class="st1" points="540.1,52.9 539.3,52.9 539.3,56.2 540.1,56.2 542.5,56.2 543.1,56.2 543.1,52.9 542.5,52.9 		"/>
		<polygon class="st1" points="549.7,75.1 549.3,75.1 549.3,76.2 548.7,76.2 548.1,76.2 548.1,77.3 548.7,77.3 549.7,77.3 
			550.6,77.3 550.6,75.1 		"/>
		<polygon class="st1" points="543.1,61.7 543.1,60.6 542.5,60.6 541.8,60.6 541.8,61.7 542.5,61.7 		"/>
		<rect x="546.8" y="77.3" class="st1" width="1.3" height="1.1"/>
		<polygon class="st1" points="555.7,77.3 555.7,78.4 556.9,78.4 558.2,78.4 558.2,77.3 556.9,77.3 		"/>
	</g>
	<g>
		<path class="st1" d="M547.2,66.3c-1-1.1-2.3-1.8-3.8-1.8c-0.7,0-1.4,0.1-2.1,0.4c-2.7,1.3-3.9,4.6-2.7,7.6
			c0.9,2.2,2.8,3.5,4.8,3.6c0.8,0,1.5-0.1,2.3-0.5c0.6-0.3,1-0.6,1.5-1c1.6-1.6,2.1-4.2,1.1-6.6C548,67.4,547.7,66.8,547.2,66.3z
			 M545.1,73.9c-0.4,0.2-1-0.2-1.6-0.9c-0.4-0.5-0.9-1.3-1.3-2.1c-0.9-2-1-3.8-0.3-4.1c0.4-0.2,1,0.2,1.6,0.9
			c0.4,0.5,0.9,1.3,1.3,2.1C545.6,71.8,545.8,73.6,545.1,73.9z"/>
		<path class="st1" d="M550.6,64.3c1.2-0.6,3.2-1.8,4.1-1.8c0.4,0,0.7,0.3,1.1,0.5c0.2-0.2,0.4-0.4,0.6-0.6c0.1-0.1,0.3-0.3,0.5-0.4
			l-0.5-0.5L554,59c-2.2,1.1-4.5,2.3-6.7,3.4c-0.5,0.3-1.1,0.5-1.6,0.8c0.4,0.8,1,1.3,1.6,1.7c2.2,1.4,5.3,1.8,6.6,6.7
			c0.8-0.5,1.6-0.9,2.5-1.3c0.5-0.3,1.1-0.5,1.7-0.7c-0.4-1.1-1-1.9-1.7-2.6C554.9,65.5,552.9,64.8,550.6,64.3z"/>
		<path class="st1" d="M559.7,59.8c1.2-0.6,3.2-1.8,4.1-1.8c0.4,0,0.7,0.3,1.1,0.5c0.3-0.3,0.6-0.7,1-1l-2.8-3.1
			c-2.2,1.1-4.5,2.2-6.7,3.4c-0.5,0.3-1.1,0.5-1.7,0.8c0.4,0.8,1,1.3,1.7,1.7c2.2,1.4,5.3,1.8,6.6,6.6c1.3-0.8,2.7-1.5,4.1-2
			C565.8,61.7,563.1,60.6,559.7,59.8z"/>
	</g>
	<path class="st0" d="M552.5,13.7c10,21.7,19.8,43.5,29.7,65.2h-29.7v3.4h35l-35-75.8l0,0L552.5,13.7L552.5,13.7z M552.5,78.9h-29.7
		c9.9-21.7,19.7-43.5,29.7-65.2V6.5l-35,75.8h35V78.9z"/>
	<g>
		<path class="st0" d="M552.5,6.2c25.6,0,46.3,20.7,46.3,46.3c0,25.6-20.7,46.3-46.3,46.3c-25.6,0-46.3-20.7-46.3-46.3
			C506.1,26.9,526.9,6.2,552.5,6.2L552.5,6.2L552.5,6.2z M552.5,2.5c-27.6,0-50,22.4-50,50c0,27.6,22.4,50,50,50
			c27.6,0,50-22.4,50-50C602.5,24.9,580.1,2.5,552.5,2.5z"/>
	</g>
	<g>
		<path class="st0" d="M380.4,59.9L407.3,16H395l1.7-9.5h22.8l13.2,55.3h-11.1l-2.3-10.3h-22.7l-6,10.3h-21.5l-9.5-23.4h-9.8
			l-4.2,23.4h-10.5l4.2-23.4h-6.5l1.8-10h6.5l3.9-21.9h26.9c4.3,0,9,0.8,12.3,3.9c3.5,3.3,4,7.9,3.2,12.5c-1.6,9.2-8,13.7-16.5,15.3
			L380.4,59.9L380.4,59.9z M353.9,16.5l-2.1,11.9H369c2,0,3.8-0.5,5.4-1.7c1.5-1.1,2.4-2.6,2.7-4.5c0.3-1.5,0.2-3.1-0.9-4.2
			c-1.2-1.2-2.9-1.5-4.5-1.5H353.9L353.9,16.5z M417.4,42l-4.1-18.8l-11,18.8H417.4L417.4,42z M47.7,51.5H25.1l-6,10.3H7.6L35.7,16
			H23.4l1.7-9.5h22.8l13.2,55.3H50L47.7,51.5L47.7,51.5z M45.7,42l-4.1-18.8L30.5,42H45.7L45.7,42z M118.2,17l-0.8-1.2
			c-4.9-7.3-12.2-10.4-20.8-10.4c-8.3,0-15.7,2.9-22.1,8.2c-6.5,5.3-10.7,12-12.2,20.3c-1.4,7.6-0.1,14.7,5,20.6
			c5,5.9,11.8,8.4,19.5,8.4c9.4,0,17.3-3.7,24.1-10.1l1.2-1.2l-7.5-6.4l-1,1c-4.3,4.2-9.4,6.7-15.5,6.7c-4.8,0-8.8-1.6-11.8-5.4
			c-3-3.8-3.8-8.3-3-13c1-5.4,3.8-9.8,7.9-13.4c4.1-3.5,8.7-5.6,14.2-5.6c5.4,0,9.7,2,12.5,6.7l0.8,1.4L118.2,17L118.2,17z
			 M173.5,34.4c-1.5,8.3-5.7,15-12.2,20.3c-6.4,5.3-13.7,8.2-22.1,8.2c-7.7,0-14.4-2.5-19.5-8.4c-5.1-5.9-6.4-13.1-5-20.6
			c1.5-8.3,5.7-15,12.2-20.3c6.4-5.3,13.8-8.2,22.1-8.2c7.7,0,14.4,2.5,19.4,8.4C173.5,19.7,174.8,26.8,173.5,34.4L173.5,34.4z
			 M162.5,33.9c0.9-4.8,0-9.2-3-13c-3-3.8-7-5.5-11.8-5.5c-5.4,0-10.1,2.1-14.2,5.6c-4.1,3.6-6.9,8-7.9,13.4c-0.9,4.8-0.1,9.2,3,13
			c3,3.8,7,5.4,11.8,5.4c5.4,0,10.1-2.1,14.1-5.7C158.7,43.7,161.6,39.3,162.5,33.9L162.5,33.9z M179.9,38.4l-4.2,23.4h31.5
			c4.7,0,8.9-1.4,12.7-4.3c3.8-2.9,6-6.8,6.9-11.5c1.2-6.6-2.2-10.9-7.4-13.5c4.3-2.4,7.8-5.8,8.8-10.9c0.7-4,0.2-8.1-2.7-11.1
			c-2.9-3-6.7-4-10.8-4h-29l-3.9,21.9h-6.5l-1.8,10H179.9L179.9,38.4z M194.4,16.5h17.9c1.6,0,3.1,0.4,4.3,1.6
			c1.1,1.1,1.2,2.6,1,4.1c-0.3,1.9-1.2,3.3-2.7,4.5c-1.5,1.2-3.2,1.7-5.2,1.7h-17.3L194.4,16.5L194.4,16.5z M190.4,38.4h19.9
			c1.9,0,3.5,0.5,4.9,1.9c1.3,1.3,1.6,2.8,1.2,4.6c-0.4,2.1-1.5,3.7-3.2,4.9c-1.8,1.3-3.7,2-5.9,2H188L190.4,38.4L190.4,38.4z
			 M260.3,51.5h-22.7l-6,10.3h-11.4L248.3,16H236l1.7-9.5h22.8l13.2,55.3h-11.1L260.3,51.5L260.3,51.5z M258.3,42l-4.1-18.8
			l-11,18.8H258.3L258.3,42z M314.9,38.1l10.2,23.7h-12.1l-9.5-23.4h-9.8l-4.2,23.4h-10.5l4.2-23.4h-6.5l1.8-10h6.5l3.9-21.9h26.9
			c4.3,0,9,0.8,12.3,3.9c3.5,3.3,4,7.9,3.2,12.5C329.8,32,323.4,36.5,314.9,38.1L314.9,38.1z M297.8,16.5l-2.1,11.9h17.2
			c2,0,3.8-0.5,5.4-1.7c1.5-1.1,2.4-2.6,2.7-4.5c0.3-1.5,0.2-3.1-0.9-4.2c-1.2-1.2-2.9-1.5-4.5-1.5H297.8L297.8,16.5z M475,38.1
			c-1,4.1-3.1,7.7-6.3,10.6c-3.6,3.2-7.8,4.8-12.7,4.8c-6.2,0-10.6-2.9-13.7-8.2l-0.7-1.2l-9.6,5.2l0.8,1.3c2.2,3.9,5.2,6.9,9,9.1
			c3.9,2.2,8.2,3.3,12.7,3.3c7.8,0,14.7-2.6,20.6-7.6c5.9-5.1,9.6-11.6,11-19.3c0.3-1.9,0.7-3.9,0.8-5.8l0.1-1.6h-41.1
			c1.1-3.6,3.1-6.8,6-9.4c3.3-2.9,7.1-4.3,11.4-4.3c5.8,0,10.6,2.1,13.7,7.2l0.8,1.3l9.2-5.5l-0.8-1.3c-4.6-7.7-11.8-11.1-20.7-11.1
			c-7.2,0-13.7,2.4-19.4,6.8c-5.8,4.6-9.6,10.4-10.9,17.7c-0.4,2.2-0.7,4.4-0.8,6.6l-0.1,1.6H475z"/>
		<g>
			<path class="st1" d="M18.1,91.7c0.3,0.1,0.5,0.2,0.8,0.3c0.3,0.1,0.6,0.2,0.8,0.4c0.3,0.1,0.6,0.2,0.9,0.3c0.3,0.1,0.7,0.1,1,0.1
				c0.4,0,0.8-0.1,1.3-0.1c0.4-0.1,0.8-0.2,1.3-0.4c0.4-0.2,0.8-0.4,1.2-0.7c0.4-0.3,0.7-0.6,1-1c0.3-0.4,0.6-0.7,0.9-1.1
				c0.2-0.3,0.4-0.6,0.6-0.8c0.1-0.3,0.2-0.5,0.3-0.6c0.1-0.2,0.1-0.3,0.1-0.5c0-0.2-0.1-0.4-0.2-0.5c-0.1-0.1-0.3-0.3-0.5-0.4
				c-0.2-0.1-0.5-0.2-0.7-0.2c-0.3,0-0.6-0.1-0.9-0.1c-0.2,0-0.4,0-0.6,0c-0.2,0-0.5,0-0.7,0c-0.2,0-0.5,0-0.7,0c-0.2,0-0.4,0-0.6,0
				c-0.3,0-0.5,0-0.8-0.1c-0.3-0.1-0.5-0.1-0.8-0.3c-0.3-0.1-0.5-0.3-0.7-0.5c-0.2-0.2-0.4-0.5-0.5-0.8c0-0.1-0.1-0.2-0.1-0.4
				c0-0.1-0.1-0.3-0.1-0.5c0-0.2,0-0.4,0-0.5c0-0.2,0.1-0.3,0.1-0.5c0.1-0.4,0.3-0.8,0.5-1.2c0.3-0.4,0.5-0.8,0.9-1.2
				c0.3-0.4,0.7-0.7,1.1-1.1c0.4-0.4,0.8-0.7,1.3-1c0.4-0.3,0.9-0.6,1.3-0.8c0.4-0.3,0.8-0.5,1.2-0.6c0.5-0.2,1-0.4,1.5-0.5
				c0.5-0.1,1-0.2,1.6-0.2c0.3,0,0.6,0,0.9,0.1c0.3,0.1,0.5,0.2,0.7,0.4c0.2,0.2,0.4,0.3,0.5,0.6c0.1,0.2,0.2,0.5,0.2,0.8
				c0,0.2,0,0.3-0.1,0.4c0,0.1-0.1,0.2-0.1,0.3c-0.1,0.1-0.1,0.1-0.2,0.2c-0.1,0-0.1,0-0.2,0c-0.2,0-0.4,0-0.6-0.1
				c-0.2,0-0.3-0.1-0.5-0.2c-0.2-0.1-0.3-0.1-0.5-0.2c-0.2-0.1-0.3-0.1-0.5-0.1c-0.6,0-1.1,0.1-1.7,0.3c-0.6,0.2-1.2,0.5-1.7,0.9
				c-0.6,0.3-1.1,0.7-1.6,1.2c-0.5,0.4-0.9,0.8-1.3,1.3c-0.2,0.2-0.4,0.4-0.5,0.6c-0.1,0.2-0.1,0.4-0.1,0.6c0,0.3,0.1,0.5,0.4,0.7
				c0.2,0.2,0.5,0.2,0.9,0.2c0.2,0,0.4,0,0.7,0c0.3,0,0.5,0,0.8,0c0.3,0,0.5,0,0.8,0c0.3,0,0.5,0,0.7,0c0.5,0,0.9,0.1,1.4,0.2
				c0.4,0.1,0.8,0.3,1.2,0.6c0.3,0.3,0.6,0.6,0.8,1c0.2,0.4,0.3,0.8,0.3,1.3c0,0.3,0,0.6-0.1,0.9c-0.1,0.3-0.2,0.6-0.4,0.9
				c-0.2,0.3-0.3,0.6-0.5,0.9c-0.2,0.3-0.4,0.6-0.7,0.9c-0.4,0.5-0.9,1-1.4,1.5c-0.5,0.5-1,0.9-1.6,1.2c-0.6,0.4-1.2,0.6-1.8,0.8
				c-0.6,0.2-1.3,0.3-2,0.3c-0.3,0-0.6,0-0.9-0.1c-0.3-0.1-0.6-0.1-0.9-0.2c-0.3-0.1-0.6-0.2-0.8-0.4c-0.3-0.2-0.5-0.3-0.7-0.5
				c-0.2-0.2-0.4-0.4-0.5-0.7c-0.1-0.2-0.2-0.5-0.2-0.8c0-0.1,0-0.3,0.1-0.4C17.8,91.8,17.9,91.7,18.1,91.7L18.1,91.7z M32.4,90
				c0.1-0.5,0.3-1,0.5-1.5c0.2-0.5,0.6-1.1,0.9-1.6c0.4-0.5,0.9-1.1,1.4-1.6c0.5-0.5,1.2-1,1.9-1.4c0.1-0.1,0.3-0.1,0.5-0.2
				c0.2-0.1,0.5-0.1,0.7-0.1c0.3-0.3,0.7-0.5,1.2-0.5c0.6,0,1.1,0.2,1.5,0.5c0.4,0.3,0.7,0.7,1,1.2c0.1,0.2,0.2,0.3,0.2,0.5
				c0.1,0.2,0.1,0.3,0.2,0.5c0,0.2,0.1,0.4,0.1,0.6c0,0.2,0,0.4,0,0.7c0,0.6-0.1,1.2-0.3,1.8c-0.2,0.6-0.5,1.2-0.8,1.8
				c-0.4,0.6-0.8,1.2-1.3,1.7c-0.5,0.5-1.1,1-1.7,1.5c-0.4,0.3-0.9,0.5-1.4,0.7c-0.5,0.2-1.1,0.2-1.7,0.2c-0.6,0-1.1-0.1-1.5-0.2
				c-0.4-0.2-0.8-0.4-1.1-0.7c-0.3-0.3-0.5-0.6-0.6-1c-0.1-0.4-0.2-0.9-0.2-1.4C32.2,91,32.3,90.5,32.4,90L32.4,90z M34.3,90.1
				c0,0.2-0.1,0.3-0.1,0.5c0,0.2,0,0.3,0,0.5c0,0.3,0,0.5,0.1,0.7c0.1,0.2,0.2,0.4,0.3,0.6c0.1,0.2,0.3,0.3,0.5,0.4
				c0.2,0.1,0.5,0.1,0.8,0.1c0.6,0,1.1-0.1,1.6-0.4c0.5-0.3,0.9-0.7,1.3-1.1c0.4-0.4,0.7-0.9,1-1.4c0.3-0.5,0.5-1,0.6-1.4
				c0.1-0.3,0.1-0.5,0.2-0.8c0-0.2,0.1-0.5,0.1-0.7c0-0.2,0-0.4-0.1-0.6c-0.1-0.2-0.2-0.4-0.3-0.6c-0.1-0.1-0.1-0.3-0.2-0.4
				c-0.1-0.1-0.1-0.3-0.2-0.4c-0.1,0.1-0.1,0.2-0.2,0.3c-0.1,0.1-0.2,0.2-0.3,0.2c-0.1,0.1-0.3,0.1-0.6,0.2
				c-0.2,0.1-0.5,0.1-0.9,0.1c-0.3,0.1-0.5,0.2-0.8,0.4c-0.3,0.2-0.5,0.4-0.8,0.6c-0.3,0.2-0.5,0.5-0.7,0.8
				c-0.2,0.3-0.4,0.6-0.6,0.8c-0.2,0.3-0.3,0.6-0.5,0.8C34.5,89.6,34.4,89.9,34.3,90.1L34.3,90.1z M48.2,79.5c0-0.3,0.1-0.5,0.1-0.9
				c0-0.3,0.1-0.6,0.2-0.8c0.1-0.3,0.2-0.5,0.3-0.6c0.1-0.2,0.3-0.3,0.5-0.3c0.1,0,0.3,0,0.4,0.1c0.1,0,0.3,0.1,0.4,0.2
				c0.1,0.1,0.2,0.2,0.3,0.3c0.1,0.1,0.1,0.2,0.1,0.4c0,0.1,0,0.1,0,0.2c0,0.1,0,0.2-0.1,0.2l-2.9,11.5c-0.1,0.5-0.2,0.9-0.3,1.3
				c-0.1,0.4-0.1,0.8-0.2,1v0.3c0,0.2,0,0.5,0,0.8c0,0.3-0.1,0.5-0.2,0.8c-0.1,0.2-0.2,0.4-0.4,0.6c-0.1,0.2-0.3,0.2-0.6,0.2
				c-0.2,0-0.4,0-0.5-0.1c-0.2-0.1-0.3-0.2-0.4-0.3c-0.1-0.1-0.2-0.3-0.2-0.4c0-0.2-0.1-0.3-0.1-0.4c0-0.1,0-0.3,0-0.5
				c0-0.2,0.1-0.4,0.1-0.6c0-0.2,0.1-0.4,0.1-0.6c0-0.2,0.1-0.4,0.1-0.5L48.2,79.5L48.2,79.5z M52.7,84.1c0-0.1,0.1-0.2,0.1-0.3
				c0.1-0.1,0.1-0.2,0.2-0.2c0.1-0.1,0.1-0.1,0.2-0.1c0.1,0,0.1,0,0.1,0c0.1,0,0.2,0,0.3,0c0.1,0,0.2,0,0.3,0.1c0.1,0,0.2,0,0.4,0.1
				c0.2,0,0.3,0.1,0.4,0.2c0.1,0.2,0.1,0.3,0.1,0.6c0,0.2,0,0.3-0.1,0.5c-0.3,1-0.5,1.8-0.7,2.5c-0.2,0.7-0.4,1.3-0.5,1.8
				c-0.1,0.5-0.3,0.9-0.3,1.2c-0.1,0.3-0.1,0.6-0.1,0.7c0,0.2,0,0.3,0.1,0.5c0,0.2,0.1,0.4,0.2,0.6c0.1,0.2,0.2,0.3,0.3,0.4
				c0.1,0.1,0.3,0.2,0.5,0.2c0.3,0,0.6-0.1,1-0.3c0.3-0.2,0.6-0.4,0.9-0.7c0.3-0.3,0.6-0.6,0.8-0.9c0.2-0.3,0.4-0.6,0.6-0.9l0.3-0.5
				c0.2-0.3,0.4-0.7,0.5-1.1c0.2-0.4,0.3-0.8,0.4-1.3c0.1-0.4,0.2-0.8,0.3-1.2c0.1-0.4,0.1-0.7,0.2-0.9l0.3-1.5
				c0.1-0.3,0.2-0.5,0.3-0.6c0.1-0.1,0.3-0.2,0.6-0.2c0.2,0,0.4,0,0.5,0.1c0.2,0,0.3,0.1,0.4,0.2c0.1,0.1,0.2,0.3,0.2,0.4
				c0.1,0.2,0.1,0.4,0.1,0.7c0,0.3-0.1,0.7-0.2,1.2c-0.1,0.5-0.2,1-0.3,1.4c-0.1,0.3-0.1,0.6-0.2,0.9c-0.1,0.3-0.1,0.6-0.2,1
				c-0.1,0.3-0.1,0.6-0.1,0.9c0,0.3-0.1,0.5-0.1,0.8c0,0.4,0,0.8,0,1.2c0,0.4,0,0.8,0,1.2c0,0.2,0,0.4,0,0.5c0,0.2,0,0.3-0.1,0.3
				c-0.1,0.3-0.2,0.5-0.3,0.7c-0.1,0.1-0.4,0.2-0.7,0.2c-0.2,0-0.4,0-0.5-0.1c-0.1-0.1-0.2-0.1-0.3-0.2c-0.1-0.1-0.1-0.2-0.1-0.3
				c0-0.1,0-0.2,0-0.3l-0.1-2.2l-0.1,0c-0.3,0.3-0.5,0.7-0.8,1.1c-0.3,0.4-0.6,0.8-1,1.1c-0.4,0.3-0.8,0.6-1.2,0.9
				c-0.4,0.2-0.9,0.4-1.4,0.4c-0.1,0-0.2,0-0.4-0.1c-0.2-0.1-0.3-0.1-0.5-0.2c-0.2-0.1-0.3-0.2-0.5-0.3c-0.2-0.1-0.3-0.2-0.4-0.3
				c-0.4-0.4-0.7-0.8-0.9-1.3c-0.2-0.5-0.3-1-0.3-1.5c0-0.3,0-0.6,0.1-0.8c0-0.3,0.1-0.6,0.2-0.8c0.1-0.3,0.1-0.5,0.2-0.7
				c0.1-0.2,0.1-0.4,0.2-0.6c0.1-0.6,0.3-1.1,0.4-1.5c0.1-0.4,0.2-0.8,0.3-1.1c0.1-0.3,0.2-0.6,0.2-0.8
				C52.6,84.5,52.6,84.3,52.7,84.1L52.7,84.1z M63.7,89.9c0.1-0.6,0.4-1.2,0.7-1.8c0.3-0.6,0.6-1.3,1-1.9c0.4-0.6,0.9-1.2,1.4-1.7
				c0.5-0.5,1.1-0.9,1.7-1.2c0.2-0.1,0.4-0.2,0.7-0.2c0.2-0.1,0.5-0.1,0.7-0.1c0.3,0,0.5,0,0.7,0.1c0.2,0,0.4,0.1,0.6,0.2
				c0.2,0.1,0.3,0.2,0.4,0.4c0.1,0.2,0.1,0.4,0.1,0.6c0,0.2,0,0.4-0.1,0.6c-0.1,0.2-0.1,0.4-0.2,0.5c-0.1,0.1-0.2,0.3-0.4,0.4
				c-0.2,0.1-0.3,0.1-0.6,0.1c-0.2,0-0.3,0-0.5-0.1c-0.1-0.1-0.3-0.1-0.4-0.2c-0.1,0-0.1-0.1-0.2-0.1c-0.1,0-0.1-0.1-0.2-0.1
				c-0.3,0.1-0.6,0.3-0.9,0.5c-0.3,0.2-0.5,0.5-0.8,0.8c-0.2,0.3-0.5,0.6-0.6,0.9c-0.2,0.3-0.4,0.6-0.5,0.9
				c-0.2,0.3-0.3,0.6-0.4,0.9c-0.1,0.3-0.2,0.6-0.3,0.8c-0.1,0.2-0.1,0.4-0.1,0.6c0,0.2-0.1,0.5-0.1,0.7c0,0.2,0,0.3,0,0.4
				c0,0.1,0.1,0.3,0.1,0.4c0.1,0.1,0.2,0.2,0.3,0.3c0.1,0.1,0.3,0.1,0.4,0.1c0.3,0,0.5,0,0.8-0.1c0.3-0.1,0.5-0.2,0.8-0.3
				c0.3-0.1,0.5-0.2,0.7-0.4c0.2-0.1,0.5-0.3,0.7-0.4c0.1-0.1,0.3-0.2,0.4-0.3c0.1-0.1,0.3-0.2,0.4-0.3c0.1-0.1,0.3-0.1,0.4-0.2
				c0.1-0.1,0.2-0.1,0.3-0.1c0.1,0,0.2,0,0.3,0.1c0.1,0.1,0.1,0.2,0.1,0.3c0,0.1,0,0.2-0.1,0.3c-0.1,0.3-0.3,0.6-0.4,0.8
				c-0.2,0.2-0.4,0.4-0.6,0.6c-0.2,0.2-0.5,0.4-0.7,0.5c-0.3,0.1-0.5,0.3-0.8,0.4c-0.5,0.3-1,0.4-1.4,0.6c-0.5,0.1-0.9,0.2-1.2,0.2
				c-0.1,0-0.2,0-0.4,0c-0.1,0-0.3-0.1-0.4-0.1c-0.6-0.3-1.1-0.6-1.4-1.1c-0.3-0.5-0.4-1-0.4-1.6c0-0.3,0-0.5,0.1-0.8
				C63.6,90.5,63.7,90.2,63.7,89.9L63.7,89.9z M73.7,92.3c0.1-0.4,0.3-1,0.4-1.6c0.2-0.6,0.3-1.2,0.5-1.9c0.2-0.7,0.4-1.3,0.5-2
				c0.2-0.7,0.4-1.4,0.5-2c0,0,0-0.1,0.1-0.2c0-0.1,0.1-0.1,0.2-0.2c0.1-0.1,0.2-0.1,0.3-0.2c0.1-0.1,0.3-0.1,0.5-0.1
				c0.1,0,0.3,0,0.4,0c0.1,0,0.2,0.1,0.3,0.1c0.1,0.1,0.2,0.1,0.2,0.2c0.1,0.1,0.1,0.2,0.1,0.3c0,0,0,0,0,0.1c0,0,0,0.1,0,0.1
				l-0.3,1.2c-0.4,1.4-0.7,2.7-1.1,4.1c-0.4,1.4-0.7,2.7-1.1,4.1c0,0,0,0.1-0.1,0.2c0,0.1-0.1,0.1-0.1,0.2c-0.1,0.1-0.1,0.1-0.2,0.2
				c-0.1,0-0.2,0.1-0.3,0.1c-0.2,0-0.4,0-0.5-0.1c-0.2-0.1-0.3-0.2-0.4-0.3c-0.1-0.1-0.2-0.3-0.2-0.4c-0.1-0.1-0.1-0.3-0.1-0.4
				c0,0,0-0.1,0-0.1c0,0,0-0.1,0-0.1L73.7,92.3L73.7,92.3z M76.7,80.4c0-0.2,0.1-0.4,0.2-0.6c0.1-0.2,0.3-0.4,0.5-0.6
				c0.1-0.1,0.3-0.1,0.4-0.2c0.2-0.1,0.3-0.1,0.4-0.1c0.1,0,0.2,0,0.2,0.1c0.1,0.1,0.1,0.1,0.2,0.2c0.1,0.1,0.1,0.2,0.2,0.3
				c0.2,0,0.3,0.1,0.4,0.2c0.1,0.1,0.1,0.3,0.1,0.4c0,0.1,0,0.2,0,0.3c0,0.1,0,0.2-0.1,0.2c0,0.2-0.1,0.3-0.3,0.4
				c-0.1,0.1-0.3,0.2-0.5,0.3c-0.2,0.1-0.3,0.2-0.5,0.2c-0.2,0.1-0.3,0.1-0.5,0.1c-0.2,0-0.3,0-0.4-0.1c-0.1-0.1-0.2-0.2-0.4-0.4
				c-0.1-0.1-0.1-0.2-0.1-0.3c0-0.1,0-0.1,0-0.2c0-0.1,0-0.2,0-0.2S76.6,80.4,76.7,80.4L76.7,80.4z M79.8,90c0.1-0.5,0.3-1,0.5-1.5
				c0.2-0.5,0.6-1.1,0.9-1.6c0.4-0.5,0.9-1.1,1.4-1.6c0.5-0.5,1.2-1,1.9-1.4c0.1-0.1,0.3-0.1,0.5-0.2c0.2-0.1,0.5-0.1,0.7-0.1
				c0.3-0.3,0.7-0.5,1.2-0.5c0.6,0,1.1,0.2,1.5,0.5c0.4,0.3,0.7,0.7,1,1.2c0.1,0.2,0.2,0.3,0.2,0.5c0.1,0.2,0.1,0.3,0.2,0.5
				c0,0.2,0.1,0.4,0.1,0.6c0,0.2,0,0.4,0,0.7c0,0.6-0.1,1.2-0.3,1.8c-0.2,0.6-0.5,1.2-0.8,1.8c-0.4,0.6-0.8,1.2-1.3,1.7
				c-0.5,0.5-1.1,1-1.7,1.5c-0.4,0.3-0.9,0.5-1.4,0.7c-0.5,0.2-1.1,0.2-1.7,0.2c-0.6,0-1.1-0.1-1.5-0.2c-0.4-0.2-0.8-0.4-1.1-0.7
				c-0.3-0.3-0.5-0.6-0.6-1c-0.1-0.4-0.2-0.9-0.2-1.4C79.5,91,79.6,90.5,79.8,90L79.8,90z M81.7,90.1c0,0.2-0.1,0.3-0.1,0.5
				c0,0.2,0,0.3,0,0.5c0,0.3,0,0.5,0.1,0.7c0.1,0.2,0.2,0.4,0.3,0.6c0.1,0.2,0.3,0.3,0.5,0.4c0.2,0.1,0.5,0.1,0.8,0.1
				c0.6,0,1.1-0.1,1.6-0.4c0.5-0.3,0.9-0.7,1.3-1.1c0.4-0.4,0.7-0.9,1-1.4c0.3-0.5,0.5-1,0.6-1.4c0.1-0.3,0.1-0.5,0.2-0.8
				c0-0.2,0.1-0.5,0.1-0.7c0-0.2,0-0.4-0.1-0.6c-0.1-0.2-0.2-0.4-0.3-0.6c-0.1-0.1-0.1-0.3-0.2-0.4c-0.1-0.1-0.1-0.3-0.2-0.4
				c-0.1,0.1-0.1,0.2-0.2,0.3c-0.1,0.1-0.2,0.2-0.3,0.2c-0.1,0.1-0.3,0.1-0.6,0.2c-0.2,0.1-0.5,0.1-0.9,0.1
				c-0.3,0.1-0.5,0.2-0.8,0.4c-0.3,0.2-0.5,0.4-0.8,0.6c-0.3,0.2-0.5,0.5-0.7,0.8c-0.2,0.3-0.4,0.6-0.6,0.8
				c-0.2,0.3-0.3,0.6-0.5,0.8C81.8,89.6,81.7,89.9,81.7,90.1L81.7,90.1z M100.2,84.9c-0.3,0-0.6,0.1-0.9,0.2c-0.3,0.1-0.6,0.3-1,0.5
				c-0.3,0.2-0.7,0.5-1,0.7c-0.3,0.3-0.7,0.6-1,0.8c-0.2,0.1-0.3,0.3-0.5,0.4c-0.2,0.1-0.3,0.2-0.5,0.3c-0.1,0.2-0.2,0.4-0.3,0.7
				c-0.1,0.3-0.2,0.6-0.3,0.9c-0.1,0.3-0.2,0.7-0.3,1c-0.1,0.4-0.2,0.7-0.3,1c0,0.2-0.1,0.3-0.1,0.5c0,0.2-0.1,0.3-0.1,0.5
				c0,0.2-0.1,0.4-0.1,0.6c0,0.2-0.1,0.4-0.2,0.7c0,0.1-0.1,0.3-0.2,0.3c-0.1,0.1-0.2,0.2-0.3,0.2c-0.1,0-0.2,0.1-0.3,0.1
				c-0.1,0-0.1,0-0.2,0c-0.3,0-0.5-0.1-0.7-0.2c-0.2-0.1-0.3-0.4-0.3-0.8c0-0.1,0-0.2,0-0.3c0-0.1,0-0.3,0.1-0.4
				c0.2-0.7,0.3-1.4,0.5-2c0.2-0.6,0.3-1.1,0.5-1.6c0.2-0.5,0.3-1,0.5-1.4c0.2-0.4,0.3-0.9,0.5-1.3c0.2-0.5,0.3-0.9,0.5-1.4
				c0.2-0.5,0.4-1,0.6-1.6c0-0.1,0.2-0.2,0.4-0.3c0.2-0.1,0.4-0.1,0.6-0.1c0.3,0,0.5,0.1,0.7,0.2c0.2,0.1,0.3,0.3,0.3,0.6
				c0,0,0,0.1,0,0.1c0,0.1,0,0.1-0.1,0.2l-0.5,1.2c0.3-0.3,0.7-0.5,1-0.8c0.3-0.3,0.7-0.5,1.1-0.7c0.4-0.2,0.7-0.4,1.1-0.5
				c0.4-0.1,0.7-0.2,1.1-0.2c0.7,0,1.3,0.2,1.7,0.6c0.4,0.4,0.6,1,0.6,1.8c0,0.5-0.1,1-0.2,1.6c-0.2,0.6-0.4,1.2-0.6,1.9
				c-0.3,0.7-0.5,1.4-0.8,2.2c-0.3,0.8-0.6,1.5-0.8,2.3c-0.1,0.2-0.1,0.4-0.2,0.5c-0.1,0.1-0.2,0.3-0.3,0.3
				c-0.1,0.1-0.2,0.2-0.3,0.2c-0.1,0-0.3,0.1-0.5,0.1c-0.3,0-0.5-0.1-0.6-0.2c-0.1-0.1-0.2-0.3-0.2-0.5c0-0.2,0-0.5,0.1-0.8
				c0.1-0.3,0.2-0.7,0.3-1c0.1-0.4,0.3-0.8,0.4-1.2c0.2-0.4,0.3-0.8,0.5-1.3c0.1-0.4,0.3-0.7,0.4-1.1c0.1-0.4,0.3-0.7,0.4-1
				c0.1-0.3,0.2-0.6,0.3-0.9c0.1-0.3,0.1-0.6,0.1-0.8c0-0.2-0.1-0.4-0.2-0.6C100.7,85,100.5,84.9,100.2,84.9L100.2,84.9z
				 M104.9,89.9c0-0.3,0.1-0.6,0.3-0.8c0.2-0.2,0.4-0.4,0.7-0.5c0.1-0.2,0.2-0.4,0.4-0.7c0.2-0.3,0.4-0.6,0.7-0.9
				c0.3-0.3,0.6-0.7,0.9-1c0.3-0.3,0.7-0.6,1.1-0.9c0.4-0.3,0.8-0.5,1.3-0.7c0.5-0.2,1-0.3,1.5-0.3c0.4,0,0.8,0.1,1.2,0.2
				c0.3,0.1,0.6,0.3,0.8,0.4c0.2,0.2,0.4,0.4,0.5,0.7c0.1,0.3,0.2,0.5,0.2,0.9c0,0.3,0,0.5-0.1,0.7c-0.1,0.4-0.3,0.8-0.6,1.1
				c-0.3,0.3-0.6,0.6-1,0.8c-0.4,0.2-0.8,0.4-1.3,0.6c-0.5,0.2-0.9,0.3-1.4,0.4c-0.5,0.1-0.9,0.2-1.3,0.2c-0.4,0.1-0.8,0.1-1.1,0.1
				c-0.1,0.1-0.1,0.3-0.2,0.5c0,0.2-0.1,0.4-0.1,0.6c0,0.4,0.2,0.8,0.5,1c0.4,0.2,0.8,0.4,1.5,0.4c0.4,0,0.7,0,1-0.1
				c0.3-0.1,0.6-0.2,0.9-0.3c0.3-0.1,0.6-0.3,0.8-0.4c0.3-0.1,0.5-0.3,0.7-0.4c0.3-0.2,0.5-0.3,0.8-0.5c0.3-0.1,0.5-0.2,0.7-0.2
				c0.2,0,0.3,0,0.4,0.1c0.1,0.1,0.1,0.2,0.1,0.3c0,0.1,0,0.1,0,0.2c0,0.1,0,0.1,0,0.1c0,0.2-0.1,0.4-0.2,0.6
				c-0.1,0.2-0.3,0.4-0.4,0.5c-0.8,0.6-1.6,1.1-2.4,1.3c-0.8,0.3-1.7,0.4-2.7,0.4c-0.2,0-0.4,0-0.6,0c-0.2,0-0.5-0.1-0.8-0.1
				c-0.3-0.1-0.5-0.2-0.8-0.3c-0.3-0.1-0.5-0.3-0.7-0.5c-0.2-0.2-0.4-0.5-0.5-0.8c-0.1-0.3-0.2-0.7-0.2-1.1c0-0.4,0-0.8,0.1-1.2
				c-0.1,0-0.2-0.1-0.3-0.2C104.9,90.2,104.9,90.1,104.9,89.9L104.9,89.9z M112.1,86.7c0,0,0-0.1,0-0.1c0,0,0-0.1,0-0.1
				c0-0.2-0.1-0.4-0.2-0.5c-0.2-0.1-0.3-0.2-0.5-0.2c-0.3,0-0.7,0.1-1,0.3c-0.3,0.2-0.6,0.4-0.9,0.7c-0.3,0.3-0.5,0.5-0.8,0.8
				c-0.2,0.3-0.4,0.6-0.5,0.8c0.6,0,1.1-0.1,1.5-0.2c0.5-0.1,0.9-0.2,1.2-0.4c0.3-0.2,0.6-0.3,0.8-0.5C111.9,87.2,112,87,112.1,86.7
				z"/>
			<path class="st1" d="M116.9,92.3c0.1,0,0.1,0,0.2,0c0.1,0,0.1,0,0.2,0.1c0.1,0,0.1,0,0.2,0.1c0.1,0,0.2,0,0.3,0
				c0.4,0,0.8,0,1.2-0.1c0.4-0.1,0.9-0.2,1.2-0.3c0.4-0.1,0.7-0.3,1-0.4c0.3-0.2,0.4-0.3,0.5-0.5c0-0.1,0-0.2,0-0.2
				c0-0.1-0.1-0.3-0.2-0.4c-0.1-0.1-0.3-0.2-0.5-0.3c-0.2-0.1-0.4-0.2-0.6-0.3c-0.2-0.1-0.4-0.2-0.6-0.3l-0.4-0.2
				c-0.2-0.1-0.4-0.2-0.6-0.3c-0.2-0.1-0.4-0.2-0.5-0.4c-0.2-0.1-0.3-0.3-0.4-0.5c-0.1-0.2-0.2-0.4-0.3-0.7c0-0.1-0.1-0.2-0.1-0.3
				c0-0.1,0-0.2,0-0.3c0-0.2,0.1-0.4,0.2-0.7c0.1-0.3,0.3-0.5,0.5-0.8c0.2-0.3,0.5-0.5,0.8-0.7c0.3-0.2,0.6-0.4,0.9-0.6
				c0.2-0.2,0.5-0.3,0.7-0.4c0.2-0.1,0.4-0.2,0.7-0.3c0.2-0.1,0.4-0.2,0.7-0.2c0.2-0.1,0.5-0.1,0.7-0.1c0.2,0,0.5,0,0.7,0
				c0.3,0,0.5,0.1,0.7,0.2c0.2,0.1,0.4,0.2,0.6,0.4c0.1,0.2,0.2,0.4,0.2,0.7c0,0.1,0,0.2,0,0.3c0,0.1-0.1,0.3-0.1,0.4
				c-0.1,0.1-0.1,0.3-0.2,0.4c-0.1,0.1-0.2,0.1-0.3,0.1c-0.2,0-0.3,0-0.4-0.1c-0.1-0.1-0.2-0.1-0.3-0.2c-0.1-0.1-0.2-0.2-0.3-0.2
				c-0.1-0.1-0.2-0.1-0.4-0.1c-0.2,0-0.4,0-0.6,0.1c-0.2,0.1-0.5,0.2-0.7,0.3c-0.2,0.1-0.5,0.2-0.7,0.4c-0.2,0.1-0.4,0.3-0.6,0.4
				c-0.2,0.2-0.3,0.3-0.5,0.5c-0.1,0.1-0.2,0.3-0.2,0.4c0,0.1,0,0.2,0.1,0.3c0.1,0.1,0.2,0.2,0.3,0.2c0.2,0.1,0.4,0.2,0.6,0.3
				c0.2,0.1,0.4,0.2,0.7,0.3c0.2,0.1,0.4,0.2,0.7,0.3c0.2,0.1,0.4,0.2,0.5,0.3c0.2,0.1,0.4,0.2,0.6,0.3c0.2,0.1,0.3,0.2,0.4,0.3
				c0.1,0.1,0.2,0.3,0.3,0.4c0.1,0.2,0.1,0.3,0.1,0.5c0,0.1,0,0.2,0,0.3c0,0.1,0,0.2-0.1,0.3c0,0.1-0.1,0.3-0.1,0.4
				c-0.1,0.2-0.1,0.3-0.2,0.5c-0.1,0.1-0.1,0.3-0.2,0.4c-0.1,0.1-0.1,0.2-0.2,0.2c-0.3,0.3-0.7,0.5-1.1,0.8
				c-0.4,0.2-0.8,0.5-1.3,0.6c-0.4,0.2-0.9,0.3-1.3,0.4c-0.4,0.1-0.8,0.2-1.2,0.2c-0.2,0-0.4,0-0.6-0.1c-0.2-0.1-0.4-0.2-0.6-0.3
				c-0.2-0.1-0.3-0.3-0.5-0.4c-0.1-0.2-0.2-0.3-0.2-0.5c0-0.1,0-0.2,0.1-0.3c0-0.1,0.1-0.2,0.2-0.3c0.1-0.1,0.1-0.1,0.2-0.2
				C116.8,92.3,116.9,92.3,116.9,92.3L116.9,92.3z M139.5,87.8c0.1-0.3,0.1-0.6,0.2-1c0.1-0.4,0.2-0.7,0.3-1.1
				c0.1-0.4,0.2-0.8,0.3-1.2c0.1-0.4,0.2-0.8,0.3-1.1c0.1-0.4,0.2-0.7,0.3-1c0.1-0.3,0.2-0.6,0.2-0.8c0.1-0.5,0.3-1,0.4-1.5
				c0.1-0.5,0.3-1,0.4-1.6c0.2-0.3,0.4-0.5,0.6-0.6c0.3-0.1,0.5-0.2,0.9-0.2c0.2,0.1,0.4,0.3,0.6,0.5c0.1,0.2,0.2,0.5,0.2,0.8
				c0,0.2,0,0.4-0.1,0.7c-0.1,0.3-0.1,0.5-0.2,0.8c-0.1,0.3-0.2,0.6-0.3,0.9c-0.1,0.3-0.2,0.7-0.4,1c-0.2,0.6-0.4,1.3-0.6,1.9
				c-0.2,0.6-0.4,1.3-0.6,2c-0.1,0.2-0.1,0.4-0.2,0.6c-0.1,0.2-0.1,0.4-0.2,0.6c-0.1,0.2-0.1,0.5-0.2,0.7c-0.1,0.3-0.2,0.6-0.2,0.9
				c-0.1,0.4-0.2,0.8-0.2,1.2c-0.1,0.4-0.1,0.8-0.2,1.2c-0.1,0.4-0.1,0.8-0.2,1.3c-0.1,0.4-0.2,0.8-0.3,1.3c0,0.2-0.1,0.3-0.2,0.4
				c-0.1,0.1-0.2,0.2-0.3,0.3c-0.1,0.1-0.3,0.1-0.4,0.2c-0.1,0-0.3,0.1-0.4,0.1c-0.1,0-0.2,0-0.3,0c-0.1,0-0.2-0.1-0.3-0.1
				c-0.1-0.1-0.2-0.2-0.2-0.3c-0.1-0.1-0.1-0.3-0.1-0.4c0,0,0-0.1,0-0.1c0,0,0-0.1,0-0.1L139.5,87.8L139.5,87.8z M152.9,84.9
				c-0.3,0-0.6,0.1-0.9,0.2c-0.3,0.1-0.6,0.3-1,0.5c-0.3,0.2-0.7,0.5-1,0.7c-0.3,0.3-0.7,0.6-1,0.8c-0.2,0.1-0.3,0.3-0.5,0.4
				c-0.2,0.1-0.3,0.2-0.5,0.3c-0.1,0.2-0.2,0.4-0.3,0.7c-0.1,0.3-0.2,0.6-0.3,0.9c-0.1,0.3-0.2,0.7-0.3,1c-0.1,0.4-0.2,0.7-0.3,1
				c0,0.2-0.1,0.3-0.1,0.5c0,0.2-0.1,0.3-0.1,0.5c0,0.2-0.1,0.4-0.1,0.6c0,0.2-0.1,0.4-0.2,0.7c0,0.1-0.1,0.3-0.2,0.3
				c-0.1,0.1-0.2,0.2-0.3,0.2c-0.1,0-0.2,0.1-0.3,0.1c-0.1,0-0.1,0-0.2,0c-0.3,0-0.5-0.1-0.7-0.2c-0.2-0.1-0.3-0.4-0.3-0.8
				c0-0.1,0-0.2,0-0.3c0-0.1,0-0.3,0.1-0.4c0.2-0.7,0.3-1.4,0.5-2c0.2-0.6,0.3-1.1,0.5-1.6c0.2-0.5,0.3-1,0.5-1.4
				c0.2-0.4,0.3-0.9,0.5-1.3c0.2-0.5,0.3-0.9,0.5-1.4c0.2-0.5,0.4-1,0.6-1.6c0-0.1,0.2-0.2,0.4-0.3c0.2-0.1,0.4-0.1,0.6-0.1
				c0.3,0,0.5,0.1,0.7,0.2c0.2,0.1,0.3,0.3,0.3,0.6c0,0,0,0.1,0,0.1c0,0.1,0,0.1-0.1,0.2l-0.5,1.2c0.3-0.3,0.7-0.5,1-0.8
				c0.3-0.3,0.7-0.5,1.1-0.7c0.4-0.2,0.7-0.4,1.1-0.5c0.4-0.1,0.7-0.2,1.1-0.2c0.7,0,1.3,0.2,1.7,0.6c0.4,0.4,0.6,1,0.6,1.8
				c0,0.5-0.1,1-0.2,1.6c-0.2,0.6-0.4,1.2-0.6,1.9c-0.3,0.7-0.5,1.4-0.8,2.2c-0.3,0.8-0.6,1.5-0.8,2.3c-0.1,0.2-0.1,0.4-0.2,0.5
				c-0.1,0.1-0.2,0.3-0.3,0.3c-0.1,0.1-0.2,0.2-0.3,0.2c-0.1,0-0.3,0.1-0.5,0.1c-0.3,0-0.5-0.1-0.6-0.2c-0.1-0.1-0.2-0.3-0.2-0.5
				c0-0.2,0-0.5,0.1-0.8c0.1-0.3,0.2-0.7,0.3-1c0.1-0.4,0.3-0.8,0.4-1.2c0.2-0.4,0.3-0.8,0.5-1.3c0.1-0.4,0.3-0.7,0.4-1.1
				c0.1-0.4,0.3-0.7,0.4-1c0.1-0.3,0.2-0.6,0.3-0.9c0.1-0.3,0.1-0.6,0.1-0.8c0-0.2-0.1-0.4-0.2-0.6C153.4,85,153.2,84.9,152.9,84.9
				L152.9,84.9z M159.4,90.8c0-0.6,0.1-1.3,0.2-2c0.1-0.7,0.3-1.4,0.5-2c-0.2,0-0.4,0-0.6-0.1c-0.2-0.1-0.4-0.1-0.6-0.2
				c-0.2-0.1-0.3-0.2-0.4-0.3c-0.1-0.1-0.2-0.3-0.2-0.5c0-0.1,0-0.2,0-0.3c0-0.1,0.1-0.2,0.1-0.3c0.1-0.1,0.1-0.2,0.2-0.3
				c0.1-0.1,0.2-0.1,0.3-0.1h1.5c0.1,0,0.2-0.1,0.3-0.2c0.1-0.1,0.1-0.3,0.1-0.4c0.1-0.4,0.2-0.8,0.3-1.2c0.1-0.3,0.2-0.6,0.2-0.8
				c0.1-0.2,0.1-0.4,0.1-0.6c0-0.1,0.1-0.3,0.1-0.3c0-0.1,0-0.2,0-0.3c0-0.1,0-0.2,0-0.4v-0.1c0-0.1,0-0.1,0-0.2
				c0-0.1,0-0.2,0.1-0.4c0-0.1,0.1-0.3,0.3-0.4c0.1-0.1,0.3-0.2,0.5-0.2c0.2,0,0.4,0,0.5,0.1c0.1,0.1,0.3,0.2,0.4,0.3
				c0.1,0.1,0.2,0.3,0.2,0.5c0,0.2,0.1,0.4,0.1,0.5c0,0.2,0,0.4-0.1,0.5l-0.8,3.2c0.4-0.1,0.8-0.1,1.1-0.2c0.3-0.1,0.6-0.1,1-0.2
				c0.4-0.1,0.7-0.1,0.9-0.2c0.3-0.1,0.5-0.1,0.7-0.2c0.2,0,0.3-0.1,0.5-0.1c0.1,0,0.2,0,0.3,0c0.1,0,0.2,0,0.4,0
				c0.1,0,0.2,0.1,0.3,0.1c0.1,0,0.2,0.1,0.2,0.2c0.1,0.1,0.1,0.2,0.1,0.3c0,0.2,0,0.3-0.1,0.5c-0.1,0.1-0.2,0.3-0.3,0.4
				c-0.1,0.1-0.2,0.2-0.4,0.3c-0.1,0.1-0.3,0.1-0.4,0.1c-0.1,0-0.3,0.1-0.5,0.1c-0.2,0-0.4,0.1-0.6,0.1c-0.2,0.1-0.5,0.1-0.7,0.2
				c-0.3,0.1-0.5,0.1-0.7,0.2c-0.4,0.1-0.7,0.2-0.9,0.2c-0.3,0.1-0.5,0.1-0.6,0.1c-0.2,0-0.3,0.1-0.4,0.1c-0.1,0-0.2,0-0.3,0
				c-0.1,0.4-0.3,0.9-0.4,1.3c-0.1,0.4-0.2,0.8-0.3,1.2c-0.1,0.4-0.1,0.7-0.2,1c0,0.3-0.1,0.5-0.1,0.7c0,0.2,0,0.4,0.1,0.6
				c0,0.2,0.1,0.3,0.2,0.5c0.1,0.1,0.2,0.2,0.4,0.3c0.2,0.1,0.4,0.1,0.6,0.1c0.4,0,0.8-0.1,1.2-0.3c0.4-0.2,0.8-0.5,1.1-0.8
				c0.4-0.3,0.7-0.7,1-1.1c0.3-0.4,0.6-0.8,0.9-1.2c0.1-0.1,0.2-0.2,0.4-0.2c0,0,0.1,0,0.2,0c0.1,0,0.1,0,0.2,0.1
				c0.1,0,0.1,0.1,0.2,0.1c0,0.1,0.1,0.1,0.1,0.2c0,0.1,0,0.1,0,0.1c-0.1,0.5-0.3,1-0.6,1.4c-0.3,0.5-0.5,1-0.8,1.4
				c-0.1,0.2-0.2,0.3-0.4,0.5c-0.1,0.2-0.3,0.3-0.5,0.5c-0.2,0.1-0.4,0.3-0.5,0.4c-0.2,0.1-0.4,0.3-0.5,0.4c-0.3,0.2-0.6,0.3-1,0.4
				c-0.3,0.1-0.7,0.1-1,0.1c-0.5,0-0.9-0.1-1.3-0.3c-0.4-0.2-0.7-0.4-1-0.7c-0.3-0.3-0.5-0.7-0.6-1.1
				C159.4,91.7,159.4,91.3,159.4,90.8L159.4,90.8z M170,89.9c0-0.3,0.1-0.6,0.3-0.8c0.2-0.2,0.4-0.4,0.7-0.5
				c0.1-0.2,0.2-0.4,0.4-0.7c0.2-0.3,0.4-0.6,0.7-0.9c0.3-0.3,0.6-0.7,0.9-1c0.3-0.3,0.7-0.6,1.1-0.9c0.4-0.3,0.8-0.5,1.3-0.7
				c0.5-0.2,1-0.3,1.5-0.3c0.4,0,0.8,0.1,1.2,0.2c0.3,0.1,0.6,0.3,0.8,0.4c0.2,0.2,0.4,0.4,0.5,0.7c0.1,0.3,0.2,0.5,0.2,0.9
				c0,0.3,0,0.5-0.1,0.7c-0.1,0.4-0.3,0.8-0.6,1.1c-0.3,0.3-0.6,0.6-1,0.8c-0.4,0.2-0.8,0.4-1.3,0.6c-0.5,0.2-0.9,0.3-1.4,0.4
				c-0.5,0.1-0.9,0.2-1.3,0.2c-0.4,0.1-0.8,0.1-1.1,0.1c-0.1,0.1-0.1,0.3-0.2,0.5c0,0.2-0.1,0.4-0.1,0.6c0,0.4,0.2,0.8,0.5,1
				c0.4,0.2,0.8,0.4,1.5,0.4c0.4,0,0.7,0,1-0.1c0.3-0.1,0.6-0.2,0.9-0.3c0.3-0.1,0.6-0.3,0.8-0.4c0.3-0.1,0.5-0.3,0.7-0.4
				c0.3-0.2,0.5-0.3,0.8-0.5c0.3-0.1,0.5-0.2,0.7-0.2c0.2,0,0.3,0,0.4,0.1c0.1,0.1,0.1,0.2,0.1,0.3c0,0.1,0,0.1,0,0.2
				c0,0.1,0,0.1,0,0.1c0,0.2-0.1,0.4-0.2,0.6c-0.1,0.2-0.3,0.4-0.4,0.5c-0.8,0.6-1.6,1.1-2.4,1.3c-0.8,0.3-1.7,0.4-2.7,0.4
				c-0.2,0-0.4,0-0.6,0c-0.2,0-0.5-0.1-0.8-0.1c-0.3-0.1-0.5-0.2-0.8-0.3c-0.3-0.1-0.5-0.3-0.7-0.5c-0.2-0.2-0.4-0.5-0.5-0.8
				c-0.1-0.3-0.2-0.7-0.2-1.1c0-0.4,0-0.8,0.1-1.2c-0.1,0-0.2-0.1-0.3-0.2C170,90.2,170,90.1,170,89.9L170,89.9z M177.1,86.7
				c0,0,0-0.1,0-0.1c0,0,0-0.1,0-0.1c0-0.2-0.1-0.4-0.2-0.5c-0.2-0.1-0.3-0.2-0.5-0.2c-0.3,0-0.7,0.1-1,0.3
				c-0.3,0.2-0.6,0.4-0.9,0.7c-0.3,0.3-0.5,0.5-0.8,0.8c-0.2,0.3-0.4,0.6-0.5,0.8c0.6,0,1.1-0.1,1.5-0.2c0.5-0.1,0.9-0.2,1.2-0.4
				c0.3-0.2,0.6-0.3,0.8-0.5C176.9,87.2,177.1,87,177.1,86.7L177.1,86.7z M182.4,99.7c-0.1,0-0.1,0-0.2,0c-0.1,0-0.1-0.1-0.2-0.1
				c-0.1-0.1-0.1-0.1-0.2-0.2c0-0.1-0.1-0.2-0.1-0.3c0-0.1,0-0.2,0-0.3c0.1-0.3,0.1-0.5,0.2-0.6c0.1-0.2,0.2-0.3,0.3-0.4
				c0.1-0.1,0.3-0.2,0.5-0.3c0.2-0.1,0.5-0.1,0.9-0.2c0.2,0,0.4-0.1,0.7-0.2c0.2-0.1,0.4-0.1,0.5-0.2c0.4-0.3,0.7-0.7,1-1.1
				c0.3-0.4,0.5-0.7,0.7-1.1c0.2-0.4,0.3-0.8,0.5-1.2c0.1-0.4,0.2-0.8,0.4-1.3c0-0.1,0.1-0.3,0.1-0.5c0-0.2,0.1-0.3,0.1-0.5
				c-0.3,0.3-0.6,0.5-0.9,0.8c-0.3,0.3-0.6,0.5-1,0.7c-0.3,0.2-0.7,0.4-1,0.5c-0.3,0.1-0.7,0.2-1,0.2c-0.2,0-0.4-0.1-0.7-0.2
				c-0.3-0.1-0.5-0.3-0.7-0.5c-0.2-0.2-0.4-0.4-0.6-0.7c-0.2-0.3-0.2-0.5-0.2-0.8c0-0.2,0-0.4,0.1-0.6c0-0.2,0.1-0.4,0.1-0.6
				c0.1-0.5,0.3-1,0.5-1.5c0.2-0.5,0.5-0.9,0.8-1.4c0.3-0.4,0.7-0.8,1-1.2c0.4-0.4,0.8-0.7,1.2-1.1c0.5-0.4,1-0.7,1.5-0.9
				c0.5-0.2,1-0.3,1.6-0.3c0.2,0,0.5,0,0.7,0c0.2,0,0.4,0.1,0.6,0.1c0.2,0.1,0.4,0.2,0.5,0.3c0.2,0.1,0.3,0.3,0.5,0.6
				c0,0.1,0.1,0.1,0.1,0.2c0,0.1,0,0.1,0,0.2c0,0.1,0,0.2-0.1,0.5c0,0.2-0.1,0.5-0.1,0.9c-0.1,0.4-0.1,0.8-0.2,1.2
				c-0.1,0.4-0.2,0.9-0.2,1.3c-0.1,0.4-0.2,0.9-0.3,1.3c-0.1,0.4-0.2,0.8-0.2,1.2c-0.1,0.6-0.3,1.2-0.5,1.9
				c-0.2,0.6-0.4,1.3-0.7,1.9c-0.3,0.6-0.6,1.2-1,1.7c-0.4,0.5-0.8,1-1.3,1.4c-0.5,0.4-1.1,0.7-1.7,1
				C183.9,99.5,183.2,99.7,182.4,99.7L182.4,99.7z M183.5,90.2c0,0.1,0,0.2-0.1,0.3c0,0.1,0,0.2,0,0.3c0,0.2,0,0.3,0.1,0.4
				c0.1,0.1,0.2,0.2,0.3,0.2c0.3,0,0.5-0.1,0.9-0.3c0.3-0.2,0.7-0.4,1-0.7c0.3-0.3,0.7-0.6,1-0.9c0.3-0.3,0.5-0.6,0.7-0.9
				c0.1-0.1,0.2-0.3,0.3-0.5c0.1-0.2,0.3-0.4,0.4-0.7c0.1-0.2,0.2-0.5,0.3-0.7c0.1-0.3,0.2-0.5,0.2-0.7c0-0.1,0-0.3-0.1-0.4
				c-0.1-0.1-0.1-0.3-0.1-0.5h-0.1c-0.2,0-0.4,0.1-0.6,0.2c-0.2,0.1-0.5,0.3-0.8,0.5c-0.3,0.2-0.5,0.4-0.8,0.6
				c-0.3,0.2-0.5,0.5-0.8,0.7c-0.2,0.2-0.5,0.5-0.7,0.7c-0.2,0.2-0.3,0.4-0.4,0.6c-0.2,0.3-0.3,0.5-0.4,0.8
				C183.7,89.5,183.6,89.8,183.5,90.2L183.5,90.2z M193.1,93.2c0.1-0.5,0.2-1.1,0.3-1.8c0.1-0.6,0.3-1.3,0.4-2
				c0.1-0.7,0.3-1.3,0.4-1.9c0.1-0.6,0.2-1.2,0.3-1.7c0-0.1,0-0.1,0-0.2c0-0.1,0-0.1,0-0.2c0-0.2,0-0.5,0-0.7c0-0.2,0.1-0.5,0.1-0.7
				c0.1-0.3,0.2-0.5,0.3-0.6c0.1-0.1,0.3-0.2,0.5-0.2c0.2,0,0.4,0,0.5,0.1c0.1,0.1,0.2,0.2,0.3,0.3c0.1,0.1,0.1,0.3,0.1,0.5
				c0,0.2,0,0.4,0,0.6c0,0.1,0,0.2,0,0.4c0,0.1,0,0.2,0,0.3c0.2-0.2,0.4-0.4,0.7-0.7c0.2-0.2,0.5-0.4,0.8-0.6
				c0.3-0.2,0.6-0.3,0.9-0.5c0.3-0.1,0.6-0.2,0.9-0.2c0.1,0,0.3,0,0.4,0c0.1,0,0.3,0.1,0.4,0.1c0.2,0,0.3,0.1,0.5,0.2
				c0.2,0.1,0.3,0.2,0.5,0.3c0.3,0.2,0.5,0.4,0.6,0.7c0.2,0.3,0.3,0.6,0.3,0.9c0,0.1,0,0.2-0.1,0.4c0,0.1-0.1,0.3-0.2,0.4
				c-0.1,0.1-0.2,0.2-0.3,0.3c-0.1,0.1-0.2,0.1-0.4,0.1c-0.1,0-0.3,0-0.5-0.1c-0.2-0.1-0.3-0.1-0.5-0.3c-0.1,0-0.1-0.1-0.2-0.2
				c-0.1-0.1-0.1-0.2-0.2-0.3c-0.1-0.1-0.1-0.2-0.1-0.2c0-0.1-0.1-0.1-0.1-0.1c0,0-0.1,0-0.1,0c0,0-0.1,0-0.1,0
				c-0.4,0-0.8,0.1-1.1,0.3c-0.4,0.2-0.7,0.4-1,0.7c-0.3,0.3-0.6,0.6-0.8,0.9c-0.3,0.3-0.5,0.6-0.7,0.9c-0.2,0.6-0.3,1.3-0.5,2
				c-0.2,0.7-0.4,1.4-0.6,2.2v0.3c0,0.2,0,0.5,0,0.7c0,0.2-0.1,0.4-0.1,0.6c-0.1,0.1-0.2,0.2-0.4,0.3c-0.2,0.1-0.3,0.1-0.5,0.1
				c-0.3,0-0.6-0.1-0.7-0.3c-0.2-0.2-0.2-0.5-0.2-0.7C193,93.4,193,93.3,193.1,93.2L193.1,93.2z M208.4,93.9c0-0.2,0-0.5,0.1-0.8
				c0.1-0.3,0.1-0.7,0.1-1.2c-0.3,0.2-0.5,0.4-0.8,0.7c-0.3,0.3-0.6,0.5-1,0.7c-0.3,0.2-0.7,0.4-1,0.6c-0.3,0.2-0.6,0.2-0.9,0.2
				c-0.2,0-0.5,0-0.7-0.1c-0.2-0.1-0.4-0.2-0.5-0.3c-0.4-0.3-0.7-0.6-0.9-1c-0.2-0.3-0.3-0.7-0.3-1.1c0-0.2,0-0.4,0.1-0.6
				c0-0.2,0.1-0.4,0.2-0.7c0.3-1.2,0.8-2.3,1.5-3.4c0.7-1,1.6-1.9,2.6-2.6c0.4-0.3,0.8-0.5,1.2-0.5c0.4-0.1,0.8-0.1,1.2-0.1
				c0.2,0,0.4,0,0.6,0c0.2,0,0.4,0,0.6,0.1c0.2,0,0.3-0.1,0.4-0.1c0.1,0,0.2,0,0.3,0c0.2,0,0.4,0,0.6,0.1c0.2,0.1,0.3,0.1,0.4,0.2
				c0.1,0.1,0.2,0.2,0.2,0.4c0,0.1,0.1,0.3,0.1,0.4c0,0.2,0,0.4-0.1,0.6c-0.1,0.2-0.1,0.4-0.2,0.5l-1.5,6c0,0.3-0.1,0.6-0.1,0.9
				c0,0.3-0.1,0.5-0.1,0.8c0,0.1-0.1,0.2-0.1,0.3c0,0.1-0.1,0.2-0.2,0.3c-0.1,0.1-0.2,0.2-0.3,0.2c-0.1,0.1-0.3,0.1-0.5,0.1
				c-0.2,0-0.4,0-0.6,0c-0.1,0-0.3-0.1-0.3-0.1c-0.1-0.1-0.1-0.1-0.1-0.2C208.5,94.1,208.4,94,208.4,93.9L208.4,93.9z M204.6,90.4
				c0,0.1-0.1,0.3-0.1,0.5c0,0.2-0.1,0.4-0.1,0.6c0,0.2,0,0.4,0.1,0.6c0.1,0.2,0.2,0.2,0.4,0.2c0.3,0,0.6-0.1,0.9-0.2
				c0.3-0.1,0.5-0.3,0.8-0.5c0.3-0.3,0.7-0.6,1-0.9c0.3-0.3,0.7-0.7,1-1c0.3-0.4,0.6-0.7,0.8-1.1c0.2-0.4,0.4-0.8,0.5-1.2
				c0.1-0.2,0.1-0.5,0.2-0.8c0-0.3,0.1-0.6,0.1-0.8c0-0.1,0-0.2-0.1-0.3c0-0.1-0.1-0.1-0.3-0.1c-0.4,0-0.8,0.1-1.1,0.2
				c-0.4,0.1-0.7,0.3-1.1,0.6c-0.4,0.2-0.7,0.5-1,0.9c-0.3,0.3-0.6,0.7-0.9,1.1c-0.3,0.4-0.5,0.8-0.7,1.2
				C204.9,89.6,204.7,90,204.6,90.4z"/>
			<path class="st1" d="M217.7,79.5c0-0.3,0.1-0.5,0.1-0.9c0-0.3,0.1-0.6,0.2-0.8c0.1-0.3,0.2-0.5,0.3-0.6c0.1-0.2,0.3-0.3,0.5-0.3
				c0.1,0,0.3,0,0.4,0.1c0.1,0,0.3,0.1,0.4,0.2c0.1,0.1,0.2,0.2,0.3,0.3c0.1,0.1,0.1,0.2,0.1,0.4c0,0.1,0,0.1,0,0.2
				c0,0.1,0,0.2-0.1,0.2l-2.9,11.5c-0.1,0.5-0.2,0.9-0.3,1.3c-0.1,0.4-0.1,0.8-0.2,1v0.3c0,0.2,0,0.5,0,0.8c0,0.3-0.1,0.5-0.2,0.8
				c-0.1,0.2-0.2,0.4-0.4,0.6c-0.1,0.2-0.3,0.2-0.6,0.2c-0.2,0-0.4,0-0.5-0.1c-0.2-0.1-0.3-0.2-0.4-0.3c-0.1-0.1-0.2-0.3-0.2-0.4
				c0-0.2-0.1-0.3-0.1-0.4c0-0.1,0-0.3,0-0.5c0-0.2,0.1-0.4,0.1-0.6c0-0.2,0.1-0.4,0.1-0.6c0-0.2,0.1-0.4,0.1-0.5L217.7,79.5
				L217.7,79.5z M220,89.9c0,0.2,0,0.3,0.1,0.4c0.1,0.1,0.2,0.1,0.3,0.2c-0.1,0.4-0.1,0.8-0.1,1.2c0,0.4,0.1,0.8,0.2,1.1
				c0.1,0.3,0.3,0.6,0.5,0.8c0.2,0.2,0.4,0.4,0.7,0.5c0.3,0.1,0.5,0.2,0.8,0.3c0.3,0.1,0.5,0.1,0.8,0.1c0.3,0,0.5,0,0.7,0
				c0.9,0,1.8-0.1,2.7-0.4c0.8-0.3,1.7-0.7,2.4-1.3c0.2-0.1,0.3-0.3,0.4-0.5c0.1-0.2,0.2-0.4,0.2-0.6c0,0,0-0.1,0-0.1
				c0-0.1,0-0.1,0-0.2c0-0.1,0-0.2-0.1-0.3c-0.1-0.1-0.2-0.1-0.4-0.1c-0.2,0-0.4,0.1-0.7,0.2c-0.2,0.1-0.5,0.3-0.8,0.5
				c-0.2,0.1-0.5,0.3-0.7,0.4c-0.3,0.1-0.5,0.3-0.8,0.4c-0.3,0.1-0.6,0.2-0.9,0.3c-0.3,0.1-0.7,0.1-1,0.1c-0.6,0-1.1-0.1-1.5-0.4
				c-0.4-0.2-0.5-0.6-0.5-1c0-0.2,0-0.4,0.1-0.6c0.1-0.2,0.1-0.4,0.2-0.5c0.3,0,0.7-0.1,1.1-0.1c0.4-0.1,0.9-0.1,1.3-0.2
				c0.5-0.1,0.9-0.2,1.4-0.4c0.5-0.2,0.9-0.4,1.3-0.6c0.4-0.2,0.7-0.5,1-0.8c0.3-0.3,0.5-0.7,0.6-1.1c0.1-0.2,0.1-0.5,0.1-0.7
				c0-0.3-0.1-0.6-0.2-0.9c-0.1-0.3-0.3-0.5-0.5-0.7c-0.2-0.2-0.5-0.3-0.8-0.4c-0.3-0.1-0.7-0.2-1.2-0.2c-0.5,0-1,0.1-1.5,0.3
				c-0.5,0.2-0.9,0.4-1.3,0.7c-0.4,0.3-0.8,0.6-1.1,0.9c-0.3,0.3-0.6,0.7-0.9,1c-0.3,0.3-0.5,0.7-0.7,0.9c-0.2,0.3-0.3,0.5-0.4,0.7
				c-0.3,0.1-0.5,0.2-0.7,0.5C220.1,89.3,220,89.6,220,89.9L220,89.9z M227.2,86.7c-0.1,0.2-0.2,0.4-0.4,0.6
				c-0.2,0.2-0.5,0.4-0.8,0.5c-0.3,0.2-0.7,0.3-1.2,0.4c-0.5,0.1-1,0.2-1.5,0.2c0.1-0.2,0.3-0.5,0.5-0.8c0.2-0.3,0.5-0.6,0.8-0.8
				c0.3-0.3,0.6-0.5,0.9-0.7c0.3-0.2,0.7-0.3,1-0.3c0.2,0,0.4,0.1,0.5,0.2c0.2,0.1,0.2,0.3,0.2,0.5c0,0,0,0.1,0,0.1
				C227.2,86.7,227.2,86.7,227.2,86.7L227.2,86.7z M232.1,92.3c0.1,0,0.1,0,0.2,0c0.1,0,0.1,0,0.2,0.1c0.1,0,0.1,0,0.2,0.1
				c0.1,0,0.2,0,0.3,0c0.4,0,0.8,0,1.2-0.1c0.4-0.1,0.9-0.2,1.2-0.3c0.4-0.1,0.7-0.3,1-0.4c0.3-0.2,0.4-0.3,0.5-0.5
				c0-0.1,0-0.2,0-0.2c0-0.1-0.1-0.3-0.2-0.4c-0.1-0.1-0.3-0.2-0.5-0.3c-0.2-0.1-0.4-0.2-0.6-0.3c-0.2-0.1-0.4-0.2-0.6-0.3l-0.4-0.2
				c-0.2-0.1-0.4-0.2-0.6-0.3c-0.2-0.1-0.4-0.2-0.5-0.4c-0.2-0.1-0.3-0.3-0.4-0.5c-0.1-0.2-0.2-0.4-0.3-0.7c0-0.1-0.1-0.2-0.1-0.3
				c0-0.1,0-0.2,0-0.3c0-0.2,0.1-0.4,0.2-0.7c0.1-0.3,0.3-0.5,0.5-0.8c0.2-0.3,0.5-0.5,0.8-0.7c0.3-0.2,0.6-0.4,0.9-0.6
				c0.2-0.2,0.5-0.3,0.7-0.4c0.2-0.1,0.4-0.2,0.6-0.3c0.2-0.1,0.4-0.2,0.7-0.2c0.2-0.1,0.5-0.1,0.7-0.1c0.2,0,0.5,0,0.7,0
				c0.3,0,0.5,0.1,0.7,0.2c0.2,0.1,0.4,0.2,0.6,0.4c0.1,0.2,0.2,0.4,0.2,0.7c0,0.1,0,0.2,0,0.3c0,0.1-0.1,0.3-0.1,0.4
				c-0.1,0.1-0.1,0.3-0.2,0.4c-0.1,0.1-0.2,0.1-0.3,0.1c-0.2,0-0.3,0-0.4-0.1c-0.1-0.1-0.2-0.1-0.3-0.2c-0.1-0.1-0.2-0.2-0.3-0.2
				c-0.1-0.1-0.2-0.1-0.4-0.1c-0.2,0-0.4,0-0.6,0.1c-0.2,0.1-0.5,0.2-0.7,0.3c-0.2,0.1-0.5,0.2-0.7,0.4c-0.2,0.1-0.4,0.3-0.6,0.4
				c-0.2,0.2-0.3,0.3-0.5,0.5c-0.1,0.1-0.2,0.3-0.2,0.4c0,0.1,0,0.2,0.1,0.3c0.1,0.1,0.2,0.2,0.3,0.2c0.2,0.1,0.4,0.2,0.6,0.3
				c0.2,0.1,0.4,0.2,0.7,0.3c0.2,0.1,0.4,0.2,0.7,0.3c0.2,0.1,0.4,0.2,0.5,0.3c0.2,0.1,0.4,0.2,0.6,0.3c0.2,0.1,0.3,0.2,0.4,0.3
				c0.1,0.1,0.2,0.3,0.3,0.4c0.1,0.2,0.1,0.3,0.1,0.5c0,0.1,0,0.2,0,0.3c0,0.1,0,0.2-0.1,0.3c0,0.1-0.1,0.3-0.1,0.4
				c-0.1,0.2-0.1,0.3-0.2,0.5c-0.1,0.1-0.1,0.3-0.2,0.4c-0.1,0.1-0.1,0.2-0.2,0.2c-0.3,0.3-0.6,0.5-1.1,0.8
				c-0.4,0.2-0.8,0.5-1.3,0.6c-0.4,0.2-0.9,0.3-1.3,0.4c-0.4,0.1-0.8,0.2-1.2,0.2c-0.2,0-0.4,0-0.6-0.1c-0.2-0.1-0.4-0.2-0.6-0.3
				c-0.2-0.1-0.3-0.3-0.5-0.4c-0.1-0.2-0.2-0.3-0.2-0.5c0-0.1,0-0.2,0.1-0.3c0-0.1,0.1-0.2,0.2-0.3c0.1-0.1,0.1-0.1,0.2-0.2
				C231.9,92.3,232,92.3,232.1,92.3L232.1,92.3z M242.6,94.4c-0.4,0-0.7-0.2-1-0.5c-0.2-0.3-0.4-0.6-0.4-1c0-0.5,0.2-1,0.6-1.4
				c0.4-0.4,0.9-0.6,1.4-0.6c0.4,0,0.8,0.2,1,0.5c0.2,0.3,0.4,0.7,0.4,1.3c0,0.9-0.4,1.9-1.2,3c-0.8,1.2-1.4,1.7-2,1.7
				c-0.2,0-0.3-0.1-0.5-0.2c-0.1-0.1-0.2-0.3-0.2-0.5c0-0.2,0.1-0.4,0.1-0.5c0.1-0.1,0.3-0.3,0.6-0.6
				C242.1,95.4,242.4,95,242.6,94.4L242.6,94.4z M258.1,91.7c0.3,0.1,0.5,0.2,0.8,0.3c0.3,0.1,0.6,0.2,0.8,0.4
				c0.3,0.1,0.6,0.2,0.9,0.3c0.3,0.1,0.7,0.1,1,0.1c0.4,0,0.8-0.1,1.3-0.1c0.4-0.1,0.8-0.2,1.3-0.4c0.4-0.2,0.8-0.4,1.2-0.7
				c0.4-0.3,0.7-0.6,1-1c0.3-0.4,0.6-0.7,0.9-1.1c0.2-0.3,0.4-0.6,0.6-0.8c0.1-0.3,0.2-0.5,0.3-0.6c0.1-0.2,0.1-0.3,0.1-0.5
				c0-0.2-0.1-0.4-0.2-0.5c-0.1-0.1-0.3-0.3-0.5-0.4c-0.2-0.1-0.5-0.2-0.7-0.2c-0.3,0-0.6-0.1-0.9-0.1c-0.2,0-0.4,0-0.6,0
				c-0.2,0-0.5,0-0.7,0c-0.2,0-0.5,0-0.7,0c-0.2,0-0.4,0-0.6,0c-0.3,0-0.5,0-0.8-0.1c-0.3-0.1-0.5-0.1-0.8-0.3
				c-0.3-0.1-0.5-0.3-0.7-0.5c-0.2-0.2-0.4-0.5-0.5-0.8c0-0.1-0.1-0.2-0.1-0.4c0-0.1-0.1-0.3-0.1-0.5c0-0.2,0-0.4,0-0.5
				c0-0.2,0.1-0.3,0.1-0.5c0.1-0.4,0.3-0.8,0.5-1.2c0.3-0.4,0.5-0.8,0.9-1.2c0.3-0.4,0.7-0.7,1.1-1.1c0.4-0.4,0.8-0.7,1.3-1
				c0.4-0.3,0.9-0.6,1.3-0.8c0.4-0.3,0.8-0.5,1.2-0.6c0.5-0.2,1-0.4,1.5-0.5c0.5-0.1,1-0.2,1.6-0.2c0.3,0,0.6,0,0.9,0.1
				c0.3,0.1,0.5,0.2,0.7,0.4c0.2,0.2,0.4,0.3,0.5,0.6c0.1,0.2,0.2,0.5,0.2,0.8c0,0.2,0,0.3-0.1,0.4c0,0.1-0.1,0.2-0.1,0.3
				c-0.1,0.1-0.1,0.1-0.2,0.2c-0.1,0-0.1,0-0.2,0c-0.2,0-0.4,0-0.6-0.1c-0.2,0-0.3-0.1-0.5-0.2c-0.2-0.1-0.3-0.1-0.5-0.2
				c-0.2-0.1-0.3-0.1-0.5-0.1c-0.6,0-1.1,0.1-1.7,0.3c-0.6,0.2-1.2,0.5-1.7,0.9c-0.6,0.3-1.1,0.7-1.6,1.2c-0.5,0.4-0.9,0.8-1.3,1.3
				c-0.2,0.2-0.4,0.4-0.5,0.6c-0.1,0.2-0.1,0.4-0.1,0.6c0,0.3,0.1,0.5,0.4,0.7c0.2,0.2,0.5,0.2,0.9,0.2c0.2,0,0.4,0,0.7,0
				c0.3,0,0.5,0,0.8,0c0.3,0,0.5,0,0.8,0c0.3,0,0.5,0,0.7,0c0.5,0,0.9,0.1,1.4,0.2c0.4,0.1,0.8,0.3,1.2,0.6c0.3,0.3,0.6,0.6,0.8,1
				c0.2,0.4,0.3,0.8,0.3,1.3c0,0.3,0,0.6-0.1,0.9c-0.1,0.3-0.2,0.6-0.4,0.9c-0.2,0.3-0.3,0.6-0.5,0.9c-0.2,0.3-0.4,0.6-0.7,0.9
				c-0.4,0.5-0.9,1-1.4,1.5c-0.5,0.5-1.1,0.9-1.6,1.2c-0.6,0.4-1.2,0.6-1.8,0.8c-0.6,0.2-1.3,0.3-2,0.3c-0.3,0-0.6,0-0.9-0.1
				c-0.3-0.1-0.6-0.1-0.9-0.2c-0.3-0.1-0.6-0.2-0.8-0.4c-0.3-0.2-0.5-0.3-0.7-0.5c-0.2-0.2-0.4-0.4-0.5-0.7
				c-0.1-0.2-0.2-0.5-0.2-0.8c0-0.1,0-0.3,0.1-0.4C257.9,91.8,258,91.7,258.1,91.7L258.1,91.7z M272.5,90c0.1-0.5,0.3-1,0.5-1.5
				c0.2-0.5,0.6-1.1,0.9-1.6c0.4-0.5,0.9-1.1,1.4-1.6c0.5-0.5,1.2-1,1.9-1.4c0.1-0.1,0.3-0.1,0.5-0.2c0.2-0.1,0.5-0.1,0.7-0.1
				c0.3-0.3,0.7-0.5,1.2-0.5c0.6,0,1.1,0.2,1.5,0.5c0.4,0.3,0.7,0.7,1,1.2c0.1,0.2,0.2,0.3,0.2,0.5c0.1,0.2,0.1,0.3,0.2,0.5
				c0,0.2,0.1,0.4,0.1,0.6c0,0.2,0,0.4,0,0.7c0,0.6-0.1,1.2-0.3,1.8c-0.2,0.6-0.5,1.2-0.8,1.8c-0.4,0.6-0.8,1.2-1.3,1.7
				c-0.5,0.5-1.1,1-1.7,1.5c-0.4,0.3-0.9,0.5-1.4,0.7c-0.5,0.2-1.1,0.2-1.7,0.2c-0.6,0-1.1-0.1-1.5-0.2c-0.4-0.2-0.8-0.4-1.1-0.7
				c-0.3-0.3-0.5-0.6-0.6-1c-0.1-0.4-0.2-0.9-0.2-1.4C272.3,91,272.4,90.5,272.5,90L272.5,90z M274.4,90.1c0,0.2-0.1,0.3-0.1,0.5
				c0,0.2,0,0.3,0,0.5c0,0.3,0,0.5,0.1,0.7c0.1,0.2,0.2,0.4,0.3,0.6c0.1,0.2,0.3,0.3,0.5,0.4c0.2,0.1,0.5,0.1,0.8,0.1
				c0.6,0,1.1-0.1,1.6-0.4c0.5-0.3,0.9-0.7,1.3-1.1c0.4-0.4,0.7-0.9,1-1.4c0.3-0.5,0.5-1,0.6-1.4c0.1-0.3,0.1-0.5,0.2-0.8
				c0-0.2,0.1-0.5,0.1-0.7c0-0.2,0-0.4-0.1-0.6c-0.1-0.2-0.2-0.4-0.3-0.6c-0.1-0.1-0.1-0.3-0.2-0.4c-0.1-0.1-0.1-0.3-0.2-0.4
				c-0.1,0.1-0.1,0.2-0.2,0.3c-0.1,0.1-0.2,0.2-0.3,0.2c-0.1,0.1-0.3,0.1-0.6,0.2c-0.2,0.1-0.5,0.1-0.9,0.1
				c-0.3,0.1-0.5,0.2-0.8,0.4c-0.3,0.2-0.5,0.4-0.8,0.6c-0.3,0.2-0.5,0.5-0.7,0.8c-0.2,0.3-0.4,0.6-0.6,0.8
				c-0.2,0.3-0.3,0.6-0.5,0.8C274.6,89.6,274.5,89.9,274.4,90.1L274.4,90.1z M288.3,79.5c0-0.3,0.1-0.5,0.1-0.9
				c0-0.3,0.1-0.6,0.2-0.8c0.1-0.3,0.2-0.5,0.3-0.6c0.1-0.2,0.3-0.3,0.5-0.3c0.1,0,0.3,0,0.4,0.1c0.1,0,0.3,0.1,0.4,0.2
				c0.1,0.1,0.2,0.2,0.3,0.3c0.1,0.1,0.1,0.2,0.1,0.4c0,0.1,0,0.1,0,0.2c0,0.1,0,0.2-0.1,0.2l-2.9,11.5c-0.1,0.5-0.2,0.9-0.3,1.3
				c-0.1,0.4-0.1,0.8-0.2,1v0.3c0,0.2,0,0.5,0,0.8c0,0.3-0.1,0.5-0.2,0.8c-0.1,0.2-0.2,0.4-0.4,0.6c-0.1,0.2-0.3,0.2-0.6,0.2
				c-0.2,0-0.4,0-0.5-0.1c-0.2-0.1-0.3-0.2-0.4-0.3c-0.1-0.1-0.2-0.3-0.2-0.4c0-0.2-0.1-0.3-0.1-0.4c0-0.1,0-0.3,0-0.5
				c0-0.2,0.1-0.4,0.1-0.6c0-0.2,0.1-0.4,0.1-0.6c0-0.2,0.1-0.4,0.1-0.5L288.3,79.5L288.3,79.5z M292.8,84.1c0-0.1,0.1-0.2,0.1-0.3
				c0.1-0.1,0.1-0.2,0.2-0.2c0.1-0.1,0.1-0.1,0.2-0.1c0.1,0,0.1,0,0.1,0c0.1,0,0.2,0,0.3,0c0.1,0,0.2,0,0.3,0.1c0.1,0,0.2,0,0.4,0.1
				c0.2,0,0.3,0.1,0.4,0.2c0.1,0.2,0.1,0.3,0.1,0.6c0,0.2,0,0.3-0.1,0.5c-0.3,1-0.5,1.8-0.7,2.5c-0.2,0.7-0.4,1.3-0.5,1.8
				c-0.1,0.5-0.3,0.9-0.3,1.2c-0.1,0.3-0.1,0.6-0.1,0.7c0,0.2,0,0.3,0.1,0.5c0,0.2,0.1,0.4,0.2,0.6c0.1,0.2,0.2,0.3,0.3,0.4
				c0.1,0.1,0.3,0.2,0.5,0.2c0.3,0,0.6-0.1,1-0.3c0.3-0.2,0.6-0.4,0.9-0.7c0.3-0.3,0.6-0.6,0.8-0.9c0.2-0.3,0.4-0.6,0.6-0.9l0.3-0.5
				c0.2-0.3,0.4-0.7,0.5-1.1c0.2-0.4,0.3-0.8,0.4-1.3c0.1-0.4,0.2-0.8,0.3-1.2c0.1-0.4,0.1-0.7,0.2-0.9l0.3-1.5
				c0.1-0.3,0.2-0.5,0.3-0.6c0.1-0.1,0.3-0.2,0.6-0.2c0.2,0,0.4,0,0.5,0.1c0.2,0,0.3,0.1,0.4,0.2c0.1,0.1,0.2,0.3,0.2,0.4
				c0.1,0.2,0.1,0.4,0.1,0.7c0,0.3-0.1,0.7-0.2,1.2c-0.1,0.5-0.2,1-0.3,1.4c-0.1,0.3-0.1,0.6-0.2,0.9c-0.1,0.3-0.1,0.6-0.2,1
				c-0.1,0.3-0.1,0.6-0.1,0.9c0,0.3-0.1,0.5-0.1,0.8c0,0.4,0,0.8,0,1.2c0,0.4,0,0.8,0,1.2c0,0.2,0,0.4,0,0.5c0,0.2,0,0.3-0.1,0.3
				c-0.1,0.3-0.2,0.5-0.3,0.7c-0.1,0.1-0.4,0.2-0.7,0.2c-0.2,0-0.4,0-0.5-0.1c-0.1-0.1-0.2-0.1-0.3-0.2c-0.1-0.1-0.1-0.2-0.1-0.3
				c0-0.1,0-0.2,0-0.3l-0.1-2.2l-0.1,0c-0.3,0.3-0.5,0.7-0.8,1.1c-0.3,0.4-0.6,0.8-1,1.1c-0.4,0.3-0.8,0.6-1.2,0.9
				c-0.4,0.2-0.9,0.4-1.4,0.4c-0.1,0-0.2,0-0.4-0.1c-0.2-0.1-0.3-0.1-0.5-0.2c-0.2-0.1-0.3-0.2-0.5-0.3c-0.2-0.1-0.3-0.2-0.4-0.3
				c-0.4-0.4-0.7-0.8-0.9-1.3c-0.2-0.5-0.3-1-0.3-1.5c0-0.3,0-0.6,0.1-0.8c0-0.3,0.1-0.6,0.2-0.8c0.1-0.3,0.1-0.5,0.2-0.7
				c0.1-0.2,0.1-0.4,0.2-0.6c0.1-0.6,0.3-1.1,0.4-1.5c0.1-0.4,0.2-0.8,0.3-1.1c0.1-0.3,0.2-0.6,0.2-0.8
				C292.7,84.5,292.7,84.3,292.8,84.1L292.8,84.1z M303.8,89.9c0.1-0.6,0.4-1.2,0.7-1.8c0.3-0.6,0.6-1.3,1-1.9
				c0.4-0.6,0.9-1.2,1.4-1.7c0.5-0.5,1.1-0.9,1.7-1.2c0.2-0.1,0.4-0.2,0.7-0.2c0.2-0.1,0.5-0.1,0.7-0.1c0.3,0,0.5,0,0.7,0.1
				c0.2,0,0.4,0.1,0.6,0.2c0.2,0.1,0.3,0.2,0.4,0.4c0.1,0.2,0.1,0.4,0.1,0.6c0,0.2,0,0.4-0.1,0.6s-0.1,0.4-0.2,0.5
				c-0.1,0.1-0.2,0.3-0.4,0.4c-0.2,0.1-0.3,0.1-0.6,0.1c-0.2,0-0.3,0-0.5-0.1c-0.1-0.1-0.3-0.1-0.4-0.2c-0.1,0-0.1-0.1-0.2-0.1
				c-0.1,0-0.1-0.1-0.2-0.1c-0.3,0.1-0.6,0.3-0.9,0.5c-0.3,0.2-0.5,0.5-0.8,0.8c-0.2,0.3-0.4,0.6-0.6,0.9c-0.2,0.3-0.4,0.6-0.5,0.9
				c-0.2,0.3-0.3,0.6-0.4,0.9c-0.1,0.3-0.2,0.6-0.3,0.8c-0.1,0.2-0.1,0.4-0.1,0.6c0,0.2-0.1,0.5-0.1,0.7c0,0.2,0,0.3,0,0.4
				c0,0.1,0.1,0.3,0.1,0.4c0.1,0.1,0.2,0.2,0.3,0.3c0.1,0.1,0.3,0.1,0.4,0.1c0.3,0,0.5,0,0.8-0.1c0.3-0.1,0.5-0.2,0.8-0.3
				c0.3-0.1,0.5-0.2,0.7-0.4c0.2-0.1,0.5-0.3,0.7-0.4c0.1-0.1,0.3-0.2,0.4-0.3c0.1-0.1,0.3-0.2,0.4-0.3c0.1-0.1,0.3-0.1,0.4-0.2
				c0.1-0.1,0.2-0.1,0.3-0.1c0.1,0,0.2,0,0.3,0.1c0.1,0.1,0.1,0.2,0.1,0.3c0,0.1,0,0.2-0.1,0.3c-0.1,0.3-0.3,0.6-0.4,0.8
				c-0.2,0.2-0.4,0.4-0.6,0.6c-0.2,0.2-0.5,0.4-0.7,0.5c-0.3,0.1-0.5,0.3-0.8,0.4c-0.5,0.3-1,0.4-1.4,0.6c-0.5,0.1-0.9,0.2-1.2,0.2
				c-0.1,0-0.2,0-0.4,0c-0.1,0-0.3-0.1-0.4-0.1c-0.6-0.3-1.1-0.6-1.4-1.1c-0.3-0.5-0.4-1-0.4-1.6c0-0.3,0-0.5,0.1-0.8
				C303.7,90.5,303.8,90.2,303.8,89.9L303.8,89.9z M313.8,92.3c0.1-0.4,0.3-1,0.4-1.6c0.2-0.6,0.3-1.2,0.5-1.9
				c0.2-0.7,0.4-1.3,0.5-2c0.2-0.7,0.4-1.4,0.5-2c0,0,0-0.1,0.1-0.2c0-0.1,0.1-0.1,0.2-0.2c0.1-0.1,0.2-0.1,0.3-0.2
				c0.1-0.1,0.3-0.1,0.5-0.1c0.1,0,0.3,0,0.4,0c0.1,0,0.2,0.1,0.3,0.1c0.1,0.1,0.2,0.1,0.2,0.2c0.1,0.1,0.1,0.2,0.1,0.3
				c0,0,0,0,0,0.1c0,0,0,0.1,0,0.1l-0.3,1.2c-0.4,1.4-0.7,2.7-1.1,4.1c-0.4,1.4-0.7,2.7-1.1,4.1c0,0,0,0.1-0.1,0.2
				c0,0.1-0.1,0.1-0.1,0.2c-0.1,0.1-0.1,0.1-0.2,0.2c-0.1,0-0.2,0.1-0.3,0.1c-0.2,0-0.4,0-0.5-0.1c-0.2-0.1-0.3-0.2-0.4-0.3
				c-0.1-0.1-0.2-0.3-0.2-0.4c-0.1-0.1-0.1-0.3-0.1-0.4c0,0,0-0.1,0-0.1c0,0,0-0.1,0-0.1L313.8,92.3L313.8,92.3z M316.8,80.4
				c0-0.2,0.1-0.4,0.2-0.6c0.1-0.2,0.3-0.4,0.5-0.6c0.1-0.1,0.3-0.1,0.4-0.2c0.2-0.1,0.3-0.1,0.4-0.1c0.1,0,0.2,0,0.2,0.1
				c0.1,0.1,0.1,0.1,0.2,0.2c0.1,0.1,0.1,0.2,0.2,0.3c0.2,0,0.3,0.1,0.4,0.2c0.1,0.1,0.1,0.3,0.1,0.4c0,0.1,0,0.2,0,0.3
				c0,0.1,0,0.2-0.1,0.2c0,0.2-0.1,0.3-0.3,0.4c-0.1,0.1-0.3,0.2-0.4,0.3c-0.2,0.1-0.3,0.2-0.5,0.2c-0.2,0.1-0.3,0.1-0.5,0.1
				c-0.2,0-0.3,0-0.4-0.1c-0.1-0.1-0.2-0.2-0.4-0.4c-0.1-0.1-0.1-0.2-0.1-0.3c0-0.1,0-0.1,0-0.2c0-0.1,0-0.2,0-0.2
				C316.7,80.5,316.7,80.4,316.8,80.4z"/>
			<path class="st1" d="M319.8,90c0.1-0.5,0.3-1,0.5-1.5c0.2-0.5,0.6-1.1,0.9-1.6c0.4-0.5,0.9-1.1,1.4-1.6c0.5-0.5,1.2-1,1.9-1.4
				c0.1-0.1,0.3-0.1,0.5-0.2c0.2-0.1,0.5-0.1,0.7-0.1c0.3-0.3,0.7-0.5,1.2-0.5c0.6,0,1.1,0.2,1.5,0.5c0.4,0.3,0.7,0.7,1,1.2
				c0.1,0.2,0.2,0.3,0.2,0.5c0.1,0.2,0.1,0.3,0.2,0.5c0,0.2,0.1,0.4,0.1,0.6c0,0.2,0,0.4,0,0.7c0,0.6-0.1,1.2-0.3,1.8
				c-0.2,0.6-0.5,1.2-0.8,1.8c-0.4,0.6-0.8,1.2-1.3,1.7c-0.5,0.5-1.1,1-1.7,1.5c-0.4,0.3-0.9,0.5-1.4,0.7c-0.5,0.2-1.1,0.2-1.7,0.2
				c-0.6,0-1.1-0.1-1.5-0.2c-0.4-0.2-0.8-0.4-1.1-0.7c-0.3-0.3-0.5-0.6-0.6-1c-0.1-0.4-0.2-0.9-0.2-1.4
				C319.6,91,319.7,90.5,319.8,90L319.8,90z M321.8,90.1c0,0.2-0.1,0.3-0.1,0.5c0,0.2,0,0.3,0,0.5c0,0.3,0,0.5,0.1,0.7
				c0.1,0.2,0.2,0.4,0.3,0.6c0.1,0.2,0.3,0.3,0.5,0.4c0.2,0.1,0.5,0.1,0.8,0.1c0.6,0,1.1-0.1,1.6-0.4c0.5-0.3,0.9-0.7,1.3-1.1
				c0.4-0.4,0.7-0.9,1-1.4c0.3-0.5,0.5-1,0.6-1.4c0.1-0.3,0.1-0.5,0.2-0.8c0-0.2,0.1-0.5,0.1-0.7c0-0.2,0-0.4-0.1-0.6
				c-0.1-0.2-0.2-0.4-0.3-0.6c-0.1-0.1-0.1-0.3-0.2-0.4c-0.1-0.1-0.1-0.3-0.2-0.4c-0.1,0.1-0.1,0.2-0.2,0.3
				c-0.1,0.1-0.2,0.2-0.3,0.2c-0.1,0.1-0.3,0.1-0.6,0.2c-0.2,0.1-0.5,0.1-0.9,0.1c-0.3,0.1-0.5,0.2-0.8,0.4
				c-0.3,0.2-0.5,0.4-0.8,0.6c-0.3,0.2-0.5,0.5-0.7,0.8c-0.2,0.3-0.4,0.6-0.6,0.8c-0.2,0.3-0.3,0.6-0.5,0.8
				C321.9,89.6,321.8,89.9,321.8,90.1L321.8,90.1z M340.3,84.9c-0.3,0-0.6,0.1-0.9,0.2c-0.3,0.1-0.6,0.3-1,0.5
				c-0.3,0.2-0.7,0.5-1,0.7c-0.3,0.3-0.7,0.6-1,0.8c-0.2,0.1-0.3,0.3-0.5,0.4c-0.2,0.1-0.3,0.2-0.5,0.3c-0.1,0.2-0.2,0.4-0.3,0.7
				c-0.1,0.3-0.2,0.6-0.3,0.9c-0.1,0.3-0.2,0.7-0.3,1c-0.1,0.4-0.2,0.7-0.3,1c0,0.2-0.1,0.3-0.1,0.5c0,0.2-0.1,0.3-0.1,0.5
				c0,0.2-0.1,0.4-0.1,0.6c0,0.2-0.1,0.4-0.2,0.7c0,0.1-0.1,0.3-0.2,0.3c-0.1,0.1-0.2,0.2-0.3,0.2c-0.1,0-0.2,0.1-0.3,0.1
				c-0.1,0-0.1,0-0.2,0c-0.3,0-0.5-0.1-0.7-0.2c-0.2-0.1-0.3-0.4-0.3-0.8c0-0.1,0-0.2,0-0.3c0-0.1,0-0.3,0.1-0.4
				c0.2-0.7,0.3-1.4,0.5-2c0.2-0.6,0.3-1.1,0.5-1.6c0.2-0.5,0.3-1,0.5-1.4c0.2-0.4,0.3-0.9,0.5-1.3c0.2-0.5,0.3-0.9,0.5-1.4
				c0.2-0.5,0.4-1,0.6-1.6c0-0.1,0.2-0.2,0.4-0.3c0.2-0.1,0.4-0.1,0.6-0.1c0.3,0,0.5,0.1,0.7,0.2c0.2,0.1,0.3,0.3,0.3,0.6
				c0,0,0,0.1,0,0.1c0,0.1,0,0.1-0.1,0.2l-0.5,1.2c0.3-0.3,0.7-0.5,1-0.8c0.3-0.3,0.7-0.5,1.1-0.7c0.4-0.2,0.7-0.4,1.1-0.5
				c0.4-0.1,0.7-0.2,1.1-0.2c0.7,0,1.3,0.2,1.7,0.6c0.4,0.4,0.6,1,0.6,1.8c0,0.5-0.1,1-0.2,1.6c-0.2,0.6-0.4,1.2-0.6,1.9
				c-0.3,0.7-0.5,1.4-0.8,2.2c-0.3,0.8-0.6,1.5-0.8,2.3c-0.1,0.2-0.1,0.4-0.2,0.5c-0.1,0.1-0.2,0.3-0.3,0.3
				c-0.1,0.1-0.2,0.2-0.3,0.2c-0.1,0-0.3,0.1-0.5,0.1c-0.3,0-0.5-0.1-0.6-0.2c-0.1-0.1-0.2-0.3-0.2-0.5c0-0.2,0-0.5,0.1-0.8
				c0.1-0.3,0.2-0.7,0.3-1c0.1-0.4,0.3-0.8,0.4-1.2c0.2-0.4,0.3-0.8,0.5-1.3c0.1-0.4,0.3-0.7,0.4-1.1c0.1-0.4,0.3-0.7,0.4-1
				c0.1-0.3,0.2-0.6,0.3-0.9c0.1-0.3,0.1-0.6,0.1-0.8c0-0.2-0.1-0.4-0.2-0.6C340.8,85,340.6,84.9,340.3,84.9L340.3,84.9z M345,89.9
				c0-0.3,0.1-0.6,0.3-0.8c0.2-0.2,0.4-0.4,0.7-0.5c0.1-0.2,0.2-0.4,0.4-0.7c0.2-0.3,0.4-0.6,0.7-0.9c0.3-0.3,0.6-0.7,0.9-1
				c0.3-0.3,0.7-0.6,1.1-0.9c0.4-0.3,0.8-0.5,1.3-0.7c0.5-0.2,1-0.3,1.5-0.3c0.4,0,0.8,0.1,1.2,0.2c0.3,0.1,0.6,0.3,0.8,0.4
				c0.2,0.2,0.4,0.4,0.5,0.7c0.1,0.3,0.2,0.5,0.2,0.9c0,0.3,0,0.5-0.1,0.7c-0.1,0.4-0.3,0.8-0.6,1.1c-0.3,0.3-0.6,0.6-1,0.8
				c-0.4,0.2-0.8,0.4-1.3,0.6c-0.5,0.2-0.9,0.3-1.4,0.4c-0.5,0.1-0.9,0.2-1.3,0.2c-0.4,0.1-0.8,0.1-1.1,0.1
				c-0.1,0.1-0.1,0.3-0.2,0.5c0,0.2-0.1,0.4-0.1,0.6c0,0.4,0.2,0.8,0.5,1c0.4,0.2,0.8,0.4,1.5,0.4c0.4,0,0.7,0,1-0.1
				c0.3-0.1,0.6-0.2,0.9-0.3c0.3-0.1,0.6-0.3,0.8-0.4c0.3-0.1,0.5-0.3,0.7-0.4c0.3-0.2,0.5-0.3,0.8-0.5c0.3-0.1,0.5-0.2,0.7-0.2
				c0.2,0,0.3,0,0.4,0.1c0.1,0.1,0.1,0.2,0.1,0.3c0,0.1,0,0.1,0,0.2c0,0.1,0,0.1,0,0.1c0,0.2-0.1,0.4-0.2,0.6
				c-0.1,0.2-0.3,0.4-0.4,0.5c-0.8,0.6-1.6,1.1-2.4,1.3c-0.8,0.3-1.7,0.4-2.7,0.4c-0.2,0-0.4,0-0.6,0c-0.2,0-0.5-0.1-0.8-0.1
				c-0.3-0.1-0.5-0.2-0.8-0.3c-0.3-0.1-0.5-0.3-0.7-0.5c-0.2-0.2-0.4-0.5-0.5-0.8c-0.1-0.3-0.2-0.7-0.2-1.1c0-0.4,0-0.8,0.1-1.2
				c-0.1,0-0.2-0.1-0.3-0.2C345,90.2,345,90.1,345,89.9L345,89.9z M352.2,86.7c0,0,0-0.1,0-0.1c0,0,0-0.1,0-0.1
				c0-0.2-0.1-0.4-0.2-0.5c-0.2-0.1-0.3-0.2-0.5-0.2c-0.3,0-0.7,0.1-1,0.3c-0.3,0.2-0.6,0.4-0.9,0.7c-0.3,0.3-0.5,0.5-0.8,0.8
				c-0.2,0.3-0.4,0.6-0.5,0.8c0.6,0,1.1-0.1,1.5-0.2c0.5-0.1,0.9-0.2,1.2-0.4c0.3-0.2,0.6-0.3,0.8-0.5C352,87.2,352.1,87,352.2,86.7
				L352.2,86.7z M357,92.3c0.1,0,0.1,0,0.2,0c0.1,0,0.1,0,0.2,0.1c0.1,0,0.1,0,0.2,0.1c0.1,0,0.2,0,0.3,0c0.4,0,0.8,0,1.2-0.1
				c0.4-0.1,0.9-0.2,1.2-0.3c0.4-0.1,0.7-0.3,1-0.4c0.3-0.2,0.4-0.3,0.5-0.5c0-0.1,0-0.2,0-0.2c0-0.1-0.1-0.3-0.2-0.4
				c-0.1-0.1-0.3-0.2-0.5-0.3c-0.2-0.1-0.4-0.2-0.6-0.3c-0.2-0.1-0.4-0.2-0.6-0.3l-0.4-0.2c-0.2-0.1-0.4-0.2-0.6-0.3
				c-0.2-0.1-0.4-0.2-0.5-0.4c-0.2-0.1-0.3-0.3-0.4-0.5c-0.1-0.2-0.2-0.4-0.3-0.7c0-0.1-0.1-0.2-0.1-0.3c0-0.1,0-0.2,0-0.3
				c0-0.2,0.1-0.4,0.2-0.7c0.1-0.3,0.3-0.5,0.5-0.8c0.2-0.3,0.5-0.5,0.8-0.7c0.3-0.2,0.6-0.4,0.9-0.6c0.2-0.2,0.5-0.3,0.7-0.4
				c0.2-0.1,0.4-0.2,0.6-0.3c0.2-0.1,0.4-0.2,0.7-0.2c0.2-0.1,0.5-0.1,0.7-0.1c0.2,0,0.5,0,0.7,0c0.3,0,0.5,0.1,0.7,0.2
				c0.2,0.1,0.4,0.2,0.6,0.4c0.1,0.2,0.2,0.4,0.2,0.7c0,0.1,0,0.2,0,0.3c0,0.1-0.1,0.3-0.1,0.4c-0.1,0.1-0.1,0.3-0.2,0.4
				c-0.1,0.1-0.2,0.1-0.3,0.1c-0.2,0-0.3,0-0.4-0.1c-0.1-0.1-0.2-0.1-0.3-0.2c-0.1-0.1-0.2-0.2-0.3-0.2c-0.1-0.1-0.2-0.1-0.4-0.1
				c-0.2,0-0.4,0-0.6,0.1c-0.2,0.1-0.5,0.2-0.7,0.3c-0.2,0.1-0.5,0.2-0.7,0.4c-0.2,0.1-0.4,0.3-0.6,0.4c-0.2,0.2-0.3,0.3-0.5,0.5
				c-0.1,0.1-0.2,0.3-0.2,0.4c0,0.1,0,0.2,0.1,0.3c0.1,0.1,0.2,0.2,0.3,0.2c0.2,0.1,0.4,0.2,0.6,0.3c0.2,0.1,0.4,0.2,0.7,0.3
				c0.2,0.1,0.4,0.2,0.7,0.3c0.2,0.1,0.4,0.2,0.5,0.3c0.2,0.1,0.4,0.2,0.6,0.3c0.2,0.1,0.3,0.2,0.4,0.3c0.1,0.1,0.2,0.3,0.3,0.4
				c0.1,0.2,0.1,0.3,0.1,0.5c0,0.1,0,0.2,0,0.3c0,0.1,0,0.2-0.1,0.3c0,0.1-0.1,0.3-0.1,0.4c-0.1,0.2-0.1,0.3-0.2,0.5
				c-0.1,0.1-0.1,0.3-0.2,0.4c-0.1,0.1-0.1,0.2-0.2,0.2c-0.3,0.3-0.6,0.5-1.1,0.8c-0.4,0.2-0.8,0.5-1.3,0.6
				c-0.4,0.2-0.9,0.3-1.3,0.4c-0.4,0.1-0.8,0.2-1.2,0.2c-0.2,0-0.4,0-0.6-0.1c-0.2-0.1-0.4-0.2-0.6-0.3c-0.2-0.1-0.3-0.3-0.5-0.4
				c-0.1-0.2-0.2-0.3-0.2-0.5c0-0.1,0-0.2,0.1-0.3c0-0.1,0.1-0.2,0.2-0.3c0.1-0.1,0.1-0.1,0.2-0.2C356.9,92.3,357,92.3,357,92.3
				L357,92.3z M390.7,86.2c-0.1,0-0.3,0.1-0.5,0.1c-0.2,0.1-0.5,0.2-0.8,0.3c-0.3,0.1-0.6,0.2-0.9,0.3c-0.3,0.1-0.6,0.2-0.9,0.3
				c-0.3,0.1-0.6,0.2-0.8,0.3c-0.2,0.1-0.4,0.1-0.4,0.1c-0.1,0-0.1,0-0.2,0.1c-0.1,0-0.2,0.1-0.3,0.1c-0.1,0-0.2,0.1-0.3,0.1
				c-0.1,0-0.1,0.1-0.2,0.1c-0.2,0-0.3,0-0.4-0.1c-0.1-0.1-0.2-0.2-0.3-0.3c-0.1-0.1-0.2-0.2-0.2-0.4c0-0.1-0.1-0.3-0.1-0.4
				c0-0.3,0.1-0.6,0.3-0.7c0.2-0.2,0.4-0.3,0.6-0.4c0.2-0.1,0.5-0.2,0.8-0.2c0.3,0,0.5-0.1,0.6-0.1c0,0,0.1,0,0.1,0
				c0.1,0,0.1-0.1,0.2-0.1c0.1,0,0.2-0.1,0.3-0.1c0.1,0,0.2,0,0.2,0c0.1-0.1,0.4-0.2,0.6-0.3c0.3-0.1,0.6-0.2,1-0.4
				c0.3-0.1,0.7-0.2,1-0.3c0.3-0.1,0.6-0.1,0.9-0.1c0.3,0,0.5,0,0.7,0.1c0.2,0.1,0.4,0.2,0.5,0.4c0.2,0.2,0.3,0.3,0.4,0.6
				c0.1,0.2,0.1,0.4,0.1,0.7c0,0.1,0,0.2,0,0.3c0,0.1,0,0.2-0.1,0.4c-0.2,0.9-0.6,1.7-1.1,2.4c-0.5,0.7-1,1.4-1.7,2
				c-0.6,0.6-1.3,1.1-2.1,1.6c-0.8,0.5-1.6,0.8-2.4,1.1l0,0c-0.1,0.1-0.3,0.1-0.5,0.2c-0.2,0.1-0.4,0.1-0.6,0.2
				c-0.2,0-0.4,0.1-0.6,0.1c-0.2,0-0.4,0-0.5,0c-0.3,0-0.5,0-0.8,0c-0.2,0-0.4,0-0.5-0.1c-0.1,0-0.3-0.1-0.4-0.1
				c-0.1,0-0.2-0.1-0.3-0.1c-0.4-0.2-0.8-0.4-1.2-0.7c-0.4-0.3-0.7-0.6-0.9-1c-0.3-0.4-0.5-0.8-0.6-1.2c-0.1-0.4-0.2-0.9-0.2-1.5
				c0-0.6,0.1-1.2,0.3-1.8c0.2-0.6,0.4-1.2,0.8-1.9c0.3-0.6,0.7-1.2,1.1-1.9c0.4-0.6,0.9-1.2,1.4-1.8c0.5-0.6,1-1.1,1.6-1.6
				c0.5-0.5,1.1-0.9,1.6-1.3c0.3-0.2,0.7-0.5,1.1-0.7c0.4-0.2,0.8-0.4,1.2-0.6c0.4-0.2,0.8-0.3,1.2-0.5c0.4-0.1,0.8-0.2,1.2-0.2
				c0.3,0,0.6,0,0.9,0.1c0.3,0.1,0.6,0.2,0.8,0.4c0.2,0.2,0.4,0.4,0.6,0.6c0.2,0.2,0.2,0.5,0.2,0.8c0,0.1,0,0.3-0.1,0.4
				c0,0.1,0,0.2-0.1,0.3c0,0.2-0.1,0.3-0.2,0.4l0,0c0,0.1-0.1,0.2-0.2,0.2c-0.1,0-0.1,0-0.2,0c-0.2,0-0.4-0.1-0.6-0.2
				c-0.2-0.1-0.3-0.2-0.4-0.4c-0.1-0.1-0.3-0.3-0.4-0.4c-0.1-0.1-0.3-0.2-0.5-0.2h-0.3c-0.6,0.1-1.2,0.4-1.9,0.7
				c-0.7,0.4-1.3,0.8-2,1.3c-0.7,0.5-1.3,1.1-1.9,1.7c-0.6,0.6-1.2,1.3-1.6,2c-0.5,0.7-0.8,1.4-1.1,2c-0.3,0.7-0.4,1.4-0.4,2
				c0,0.5,0.1,1,0.4,1.3c0.2,0.4,0.6,0.7,1,1.1h0c0.2,0.2,0.5,0.3,0.8,0.4c0.3,0.1,0.6,0.2,0.8,0.2c0.3,0,0.6-0.1,0.9-0.2
				c0.3-0.1,0.7-0.2,1-0.4c0.3-0.2,0.6-0.3,1-0.5c0.3-0.2,0.6-0.4,0.8-0.5c0.8-0.5,1.5-1.2,2.1-1.9c0.6-0.7,1-1.5,1.4-2.3
				c0,0,0-0.1,0-0.1C390.7,86.4,390.7,86.3,390.7,86.2C390.7,86.3,390.7,86.2,390.7,86.2L390.7,86.2z M397.4,79.5
				c0-0.3,0.1-0.5,0.1-0.9c0-0.3,0.1-0.6,0.2-0.8c0.1-0.3,0.2-0.5,0.3-0.6c0.1-0.2,0.3-0.3,0.5-0.3c0.1,0,0.3,0,0.4,0.1
				c0.1,0,0.3,0.1,0.4,0.2c0.1,0.1,0.2,0.2,0.3,0.3c0.1,0.1,0.1,0.2,0.1,0.4c0,0.1,0,0.1,0,0.2c0,0.1,0,0.2-0.1,0.2l-2.9,11.5
				c-0.1,0.5-0.2,0.9-0.3,1.3c-0.1,0.4-0.1,0.8-0.2,1v0.3c0,0.2,0,0.5,0,0.8c0,0.3-0.1,0.5-0.2,0.8c-0.1,0.2-0.2,0.4-0.4,0.6
				c-0.1,0.2-0.3,0.2-0.6,0.2c-0.2,0-0.4,0-0.5-0.1c-0.2-0.1-0.3-0.2-0.4-0.3c-0.1-0.1-0.2-0.3-0.2-0.4c0-0.2-0.1-0.3-0.1-0.4
				c0-0.1,0-0.3,0-0.5c0-0.2,0.1-0.4,0.1-0.6c0-0.2,0.1-0.4,0.1-0.6c0-0.2,0.1-0.4,0.1-0.5L397.4,79.5L397.4,79.5z M400,90
				c-0.1,0.6-0.2,1.1-0.2,1.5c0,0.5,0.1,1,0.2,1.4c0.1,0.4,0.4,0.8,0.6,1c0.3,0.3,0.6,0.5,1.1,0.7c0.4,0.2,0.9,0.2,1.5,0.2
				c0.6,0,1.2-0.1,1.7-0.2c0.5-0.2,1-0.4,1.4-0.7c0.6-0.4,1.2-0.9,1.7-1.5c0.5-0.5,0.9-1.1,1.3-1.7c0.4-0.6,0.6-1.2,0.8-1.8
				c0.2-0.6,0.3-1.2,0.3-1.8c0-0.3,0-0.5,0-0.7c0-0.2-0.1-0.4-0.1-0.6c-0.1-0.2-0.1-0.3-0.2-0.5c-0.1-0.2-0.2-0.3-0.2-0.5
				c-0.3-0.5-0.6-0.9-1-1.2c-0.4-0.3-0.9-0.5-1.5-0.5c-0.5,0-0.9,0.2-1.2,0.5c-0.3,0-0.5,0.1-0.7,0.1c-0.2,0.1-0.4,0.2-0.5,0.2
				c-0.7,0.4-1.4,0.9-1.9,1.4c-0.5,0.5-1,1-1.4,1.6c-0.4,0.5-0.7,1.1-0.9,1.6C400.3,89,400.1,89.5,400,90L400,90z M401.9,90.1
				c0.1-0.2,0.1-0.5,0.3-0.8c0.1-0.3,0.3-0.6,0.5-0.8c0.2-0.3,0.4-0.6,0.6-0.8c0.2-0.3,0.5-0.5,0.7-0.8c0.2-0.2,0.5-0.4,0.8-0.6
				c0.3-0.2,0.5-0.3,0.8-0.4c0.4,0,0.7-0.1,0.9-0.1c0.2-0.1,0.4-0.1,0.6-0.2c0.1-0.1,0.2-0.1,0.3-0.2c0.1-0.1,0.1-0.2,0.2-0.3
				c0.1,0.1,0.1,0.3,0.2,0.4c0.1,0.1,0.1,0.3,0.2,0.4c0.1,0.2,0.2,0.4,0.3,0.6c0.1,0.2,0.1,0.4,0.1,0.6c0,0.2,0,0.4-0.1,0.7
				c-0.1,0.2-0.1,0.5-0.2,0.8c-0.1,0.4-0.3,0.9-0.6,1.4c-0.3,0.5-0.6,1-1,1.4c-0.4,0.4-0.8,0.8-1.3,1.1c-0.5,0.3-1,0.4-1.6,0.4
				c-0.3,0-0.6,0-0.8-0.1c-0.2-0.1-0.4-0.2-0.5-0.4c-0.1-0.2-0.3-0.3-0.3-0.6c-0.1-0.2-0.1-0.5-0.1-0.7c0-0.1,0-0.3,0-0.5
				C401.8,90.4,401.9,90.3,401.9,90.1L401.9,90.1z M413,90.6c0.2-0.6,0.3-1.3,0.5-2c0.2-0.7,0.4-1.5,0.6-2.2
				c0.2-0.8,0.4-1.5,0.6-2.3c0.2-0.7,0.4-1.5,0.6-2.1c0.2-0.7,0.3-1.3,0.5-1.8c0.1-0.5,0.2-1,0.3-1.3l0.1-0.9c0-0.1,0-0.1,0.1-0.2
				c0-0.1,0.1-0.2,0.1-0.2c0.1-0.1,0.1-0.1,0.2-0.2c0.1-0.1,0.2-0.1,0.3-0.1c0.2,0,0.4,0,0.6,0.1c0.2,0.1,0.3,0.2,0.4,0.3
				c0.1,0.1,0.2,0.3,0.2,0.5c0,0.2,0.1,0.4,0.1,0.6c0,0.2,0,0.4,0,0.6c0,0.2-0.1,0.4-0.1,0.5c-0.3,1-0.5,2.1-0.9,3.2
				c-0.3,1.1-0.6,2.1-0.9,3.2c0.3-0.3,0.6-0.6,1-0.8c0.3-0.3,0.7-0.5,1.1-0.7c0.4-0.2,0.8-0.3,1.2-0.5c0.4-0.1,0.8-0.2,1.2-0.2
				c0.4,0,0.8,0.1,1.1,0.2c0.3,0.1,0.6,0.3,0.8,0.5c0.2,0.2,0.3,0.5,0.4,0.8c0.1,0.3,0.1,0.6,0.1,0.9c0,0.2,0,0.3,0,0.5
				c0,0.2,0,0.3-0.1,0.5c-0.2,0.8-0.5,1.5-0.8,2.1c-0.4,0.6-0.8,1.2-1.2,1.7c-0.5,0.5-1,0.9-1.5,1.3c-0.5,0.4-1.1,0.7-1.6,1
				c-0.4,0.2-0.7,0.3-1,0.4c-0.3,0.1-0.7,0.2-1,0.2c-0.3,0-0.6,0-0.7-0.1c-0.2-0.1-0.3-0.2-0.4-0.3c0,0.1-0.1,0.2-0.1,0.2
				c-0.1,0.1-0.1,0.2-0.2,0.2c-0.1,0.1-0.2,0.1-0.3,0.2c-0.1,0-0.2,0.1-0.4,0.1c-0.4,0-0.7-0.1-0.9-0.3c-0.2-0.2-0.3-0.5-0.3-0.9
				c0-0.1,0-0.3,0-0.4c0-0.1,0.1-0.3,0.1-0.4L413,90.6L413,90.6z M420.3,85.9c-0.4,0-0.8,0.1-1.2,0.3c-0.4,0.2-0.9,0.4-1.3,0.7
				c-0.4,0.3-0.8,0.6-1.2,0.9c-0.4,0.3-0.7,0.6-1.1,0.8c-0.1,0.3-0.2,0.6-0.3,0.9c-0.1,0.3-0.2,0.6-0.3,0.9
				c-0.1,0.3-0.2,0.6-0.2,0.9c-0.1,0.3-0.1,0.6-0.2,1l-0.1,0.4l0.1,0.2c0.2-0.1,0.3-0.2,0.4-0.2c0.1,0,0.3-0.1,0.4-0.1
				c0.1,0,0.3-0.1,0.4-0.1c0.1,0,0.3-0.1,0.5-0.2c1.2-0.5,2.2-1.1,3-1.9c0.8-0.8,1.4-1.8,1.7-3c0-0.2,0.1-0.3,0.1-0.4
				c0-0.1,0-0.2,0-0.4c0-0.2-0.1-0.4-0.2-0.5C420.7,86,420.5,85.9,420.3,85.9z"/>
			<path class="st1" d="M430.4,93.9c0-0.2,0-0.5,0.1-0.8c0.1-0.3,0.1-0.7,0.1-1.2c-0.3,0.2-0.5,0.4-0.8,0.7c-0.3,0.3-0.6,0.5-1,0.7
				c-0.3,0.2-0.7,0.4-1,0.6c-0.3,0.2-0.6,0.2-0.9,0.2c-0.2,0-0.4,0-0.7-0.1c-0.2-0.1-0.4-0.2-0.5-0.3c-0.4-0.3-0.7-0.6-0.9-1
				c-0.2-0.3-0.3-0.7-0.3-1.1c0-0.2,0-0.4,0.1-0.6c0-0.2,0.1-0.4,0.2-0.7c0.3-1.2,0.8-2.3,1.5-3.4c0.7-1,1.6-1.9,2.6-2.6
				c0.4-0.3,0.8-0.5,1.2-0.5c0.4-0.1,0.8-0.1,1.2-0.1c0.2,0,0.4,0,0.6,0c0.2,0,0.4,0,0.6,0.1c0.2,0,0.3-0.1,0.4-0.1
				c0.1,0,0.2,0,0.3,0c0.2,0,0.4,0,0.6,0.1c0.2,0.1,0.3,0.1,0.4,0.2c0.1,0.1,0.2,0.2,0.2,0.4c0,0.1,0.1,0.3,0.1,0.4
				c0,0.2,0,0.4-0.1,0.6c-0.1,0.2-0.1,0.4-0.2,0.5l-1.5,6c0,0.3-0.1,0.6-0.1,0.9c0,0.3-0.1,0.5-0.1,0.8c0,0.1-0.1,0.2-0.1,0.3
				c0,0.1-0.1,0.2-0.2,0.3c-0.1,0.1-0.2,0.2-0.3,0.2c-0.1,0.1-0.3,0.1-0.4,0.1c-0.2,0-0.4,0-0.6,0c-0.1,0-0.3-0.1-0.3-0.1
				c-0.1-0.1-0.1-0.1-0.1-0.2C430.5,94.1,430.4,94,430.4,93.9L430.4,93.9z M426.6,90.4c0,0.1-0.1,0.3-0.1,0.5c0,0.2-0.1,0.4-0.1,0.6
				c0,0.2,0,0.4,0.1,0.6c0.1,0.2,0.2,0.2,0.4,0.2c0.3,0,0.6-0.1,0.9-0.2c0.3-0.1,0.5-0.3,0.8-0.5c0.3-0.3,0.7-0.6,1-0.9
				c0.3-0.3,0.7-0.7,1-1c0.3-0.4,0.6-0.7,0.8-1.1c0.2-0.4,0.4-0.8,0.5-1.2c0.1-0.2,0.1-0.5,0.2-0.8c0-0.3,0.1-0.6,0.1-0.8
				c0-0.1,0-0.2-0.1-0.3c0-0.1-0.1-0.1-0.3-0.1c-0.4,0-0.8,0.1-1.1,0.2c-0.4,0.1-0.7,0.3-1.1,0.6c-0.4,0.2-0.7,0.5-1,0.9
				c-0.3,0.3-0.6,0.7-0.9,1.1c-0.3,0.4-0.5,0.8-0.7,1.2C426.9,89.6,426.7,90,426.6,90.4L426.6,90.4z M439.7,79.5
				c0-0.3,0.1-0.5,0.1-0.9c0-0.3,0.1-0.6,0.2-0.8c0.1-0.3,0.2-0.5,0.3-0.6c0.1-0.2,0.3-0.3,0.5-0.3c0.1,0,0.3,0,0.4,0.1
				c0.1,0,0.3,0.1,0.4,0.2c0.1,0.1,0.2,0.2,0.3,0.3c0.1,0.1,0.1,0.2,0.1,0.4c0,0.1,0,0.1,0,0.2c0,0.1,0,0.2-0.1,0.2l-2.9,11.5
				c-0.1,0.5-0.2,0.9-0.3,1.3c-0.1,0.4-0.1,0.8-0.2,1v0.3c0,0.2,0,0.5,0,0.8c0,0.3-0.1,0.5-0.2,0.8c-0.1,0.2-0.2,0.4-0.4,0.6
				c-0.1,0.2-0.3,0.2-0.6,0.2c-0.2,0-0.4,0-0.5-0.1c-0.2-0.1-0.3-0.2-0.4-0.3c-0.1-0.1-0.2-0.3-0.2-0.4c0-0.2-0.1-0.3-0.1-0.4
				c0-0.1,0-0.3,0-0.5c0-0.2,0.1-0.4,0.1-0.6c0-0.2,0.1-0.4,0.1-0.6c0-0.2,0.1-0.4,0.1-0.5L439.7,79.5L439.7,79.5z M442,89.9
				c0,0.2,0,0.3,0.1,0.4c0.1,0.1,0.2,0.1,0.3,0.2c-0.1,0.4-0.1,0.8-0.1,1.2c0,0.4,0.1,0.8,0.2,1.1c0.1,0.3,0.3,0.6,0.5,0.8
				c0.2,0.2,0.4,0.4,0.7,0.5c0.3,0.1,0.5,0.2,0.8,0.3c0.3,0.1,0.5,0.1,0.8,0.1c0.3,0,0.5,0,0.7,0c0.9,0,1.8-0.1,2.7-0.4
				c0.8-0.3,1.7-0.7,2.4-1.3c0.2-0.1,0.3-0.3,0.4-0.5c0.1-0.2,0.2-0.4,0.2-0.6c0,0,0-0.1,0-0.1c0-0.1,0-0.1,0-0.2
				c0-0.1,0-0.2-0.1-0.3c-0.1-0.1-0.2-0.1-0.4-0.1c-0.2,0-0.4,0.1-0.7,0.2c-0.2,0.1-0.5,0.3-0.8,0.5c-0.2,0.1-0.5,0.3-0.7,0.4
				c-0.3,0.1-0.5,0.3-0.8,0.4c-0.3,0.1-0.6,0.2-0.9,0.3c-0.3,0.1-0.7,0.1-1,0.1c-0.6,0-1.1-0.1-1.5-0.4c-0.4-0.2-0.5-0.6-0.5-1
				c0-0.2,0-0.4,0.1-0.6c0.1-0.2,0.1-0.4,0.2-0.5c0.3,0,0.7-0.1,1.1-0.1c0.4-0.1,0.9-0.1,1.3-0.2c0.5-0.1,0.9-0.2,1.4-0.4
				c0.5-0.2,0.9-0.4,1.3-0.6c0.4-0.2,0.7-0.5,1-0.8c0.3-0.3,0.5-0.7,0.6-1.1c0.1-0.2,0.1-0.5,0.1-0.7c0-0.3-0.1-0.6-0.2-0.9
				c-0.1-0.3-0.3-0.5-0.5-0.7c-0.2-0.2-0.5-0.3-0.8-0.4c-0.3-0.1-0.7-0.2-1.2-0.2c-0.5,0-1,0.1-1.5,0.3c-0.5,0.2-0.9,0.4-1.3,0.7
				c-0.4,0.3-0.8,0.6-1.1,0.9c-0.3,0.3-0.6,0.7-0.9,1c-0.3,0.3-0.5,0.7-0.7,0.9c-0.2,0.3-0.3,0.5-0.4,0.7c-0.3,0.1-0.5,0.2-0.7,0.5
				C442.1,89.3,442,89.6,442,89.9L442,89.9z M449.2,86.7c-0.1,0.2-0.2,0.4-0.4,0.6c-0.2,0.2-0.5,0.4-0.8,0.5
				c-0.3,0.2-0.7,0.3-1.2,0.4c-0.5,0.1-1,0.2-1.5,0.2c0.1-0.2,0.3-0.5,0.5-0.8c0.2-0.3,0.5-0.6,0.8-0.8c0.3-0.3,0.6-0.5,0.9-0.7
				c0.3-0.2,0.7-0.3,1-0.3c0.2,0,0.4,0.1,0.5,0.2c0.2,0.1,0.2,0.3,0.2,0.5c0,0,0,0.1,0,0.1C449.2,86.7,449.2,86.7,449.2,86.7
				L449.2,86.7z M454.1,92.3c0.1,0,0.1,0,0.2,0c0.1,0,0.1,0,0.2,0.1c0.1,0,0.1,0,0.2,0.1c0.1,0,0.2,0,0.3,0c0.4,0,0.8,0,1.2-0.1
				c0.4-0.1,0.9-0.2,1.2-0.3c0.4-0.1,0.7-0.3,1-0.4c0.3-0.2,0.4-0.3,0.5-0.5c0-0.1,0-0.2,0-0.2c0-0.1-0.1-0.3-0.2-0.4
				c-0.1-0.1-0.3-0.2-0.5-0.3c-0.2-0.1-0.4-0.2-0.6-0.3c-0.2-0.1-0.4-0.2-0.6-0.3l-0.4-0.2c-0.2-0.1-0.4-0.2-0.6-0.3
				c-0.2-0.1-0.4-0.2-0.5-0.4c-0.2-0.1-0.3-0.3-0.4-0.5c-0.1-0.2-0.2-0.4-0.3-0.7c0-0.1-0.1-0.2-0.1-0.3c0-0.1,0-0.2,0-0.3
				c0-0.2,0.1-0.4,0.2-0.7c0.1-0.3,0.3-0.5,0.5-0.8c0.2-0.3,0.5-0.5,0.8-0.7c0.3-0.2,0.6-0.4,0.9-0.6c0.2-0.2,0.5-0.3,0.7-0.4
				c0.2-0.1,0.4-0.2,0.6-0.3c0.2-0.1,0.4-0.2,0.7-0.2c0.2-0.1,0.5-0.1,0.7-0.1c0.2,0,0.5,0,0.7,0c0.3,0,0.5,0.1,0.7,0.2
				c0.2,0.1,0.4,0.2,0.6,0.4c0.1,0.2,0.2,0.4,0.2,0.7c0,0.1,0,0.2,0,0.3c0,0.1-0.1,0.3-0.1,0.4c-0.1,0.1-0.1,0.3-0.2,0.4
				c-0.1,0.1-0.2,0.1-0.3,0.1c-0.2,0-0.3,0-0.4-0.1c-0.1-0.1-0.2-0.1-0.3-0.2c-0.1-0.1-0.2-0.2-0.3-0.2c-0.1-0.1-0.2-0.1-0.4-0.1
				c-0.2,0-0.4,0-0.6,0.1c-0.2,0.1-0.5,0.2-0.7,0.3c-0.2,0.1-0.5,0.2-0.7,0.4c-0.2,0.1-0.4,0.3-0.6,0.4c-0.2,0.2-0.3,0.3-0.5,0.5
				c-0.1,0.1-0.2,0.3-0.2,0.4c0,0.1,0,0.2,0.1,0.3c0.1,0.1,0.2,0.2,0.3,0.2c0.2,0.1,0.4,0.2,0.6,0.3c0.2,0.1,0.4,0.2,0.7,0.3
				c0.2,0.1,0.4,0.2,0.7,0.3c0.2,0.1,0.4,0.2,0.5,0.3c0.2,0.1,0.4,0.2,0.6,0.3c0.2,0.1,0.3,0.2,0.4,0.3c0.1,0.1,0.2,0.3,0.3,0.4
				c0.1,0.2,0.1,0.3,0.1,0.5c0,0.1,0,0.2,0,0.3c0,0.1,0,0.2-0.1,0.3c0,0.1-0.1,0.3-0.1,0.4c-0.1,0.2-0.1,0.3-0.2,0.5
				c-0.1,0.1-0.1,0.3-0.2,0.4c-0.1,0.1-0.1,0.2-0.2,0.2c-0.3,0.3-0.7,0.5-1.1,0.8c-0.4,0.2-0.8,0.5-1.3,0.6
				c-0.4,0.2-0.9,0.3-1.3,0.4c-0.4,0.1-0.8,0.2-1.2,0.2c-0.2,0-0.4,0-0.6-0.1c-0.2-0.1-0.4-0.2-0.6-0.3c-0.2-0.1-0.3-0.3-0.5-0.4
				c-0.1-0.2-0.2-0.3-0.2-0.5c0-0.1,0-0.2,0.1-0.3c0-0.1,0.1-0.2,0.2-0.3c0.1-0.1,0.1-0.1,0.2-0.2C453.9,92.3,454,92.3,454.1,92.3
				L454.1,92.3z M465.9,93.2c0,0.2-0.1,0.4-0.3,0.6c-0.1,0.2-0.3,0.4-0.6,0.6c-0.1,0.1-0.3,0.2-0.4,0.2c-0.1,0.1-0.3,0.1-0.5,0.1
				c-0.4,0-0.7-0.1-0.9-0.4c-0.2-0.2-0.3-0.5-0.3-0.9c0-0.1,0-0.2,0-0.3c0-0.1,0-0.2,0.1-0.3c0-0.2,0.1-0.3,0.3-0.5
				c0.1-0.1,0.3-0.3,0.5-0.4c0.2-0.1,0.4-0.2,0.6-0.2c0.2-0.1,0.3-0.1,0.5-0.1c0.2,0,0.3,0,0.4,0.1c0.1,0,0.2,0.1,0.3,0.1
				c0.1,0.1,0.1,0.1,0.2,0.2c0.1,0.1,0.1,0.2,0.2,0.3c0,0.1,0.1,0.1,0.1,0.2c0,0.1,0,0.2,0,0.3C465.9,93.1,465.9,93.1,465.9,93.2
				L465.9,93.2z M471.7,93.2c0,0.2-0.1,0.4-0.3,0.6c-0.1,0.2-0.3,0.4-0.6,0.6c-0.1,0.1-0.3,0.2-0.4,0.2c-0.2,0.1-0.3,0.1-0.5,0.1
				c-0.4,0-0.7-0.1-0.9-0.4c-0.2-0.2-0.3-0.5-0.3-0.9c0-0.1,0-0.2,0-0.3c0-0.1,0-0.2,0.1-0.3c0-0.2,0.1-0.3,0.3-0.5
				c0.1-0.1,0.3-0.3,0.5-0.4c0.2-0.1,0.4-0.2,0.5-0.2c0.2-0.1,0.3-0.1,0.5-0.1c0.3,0,0.5,0.1,0.7,0.2c0.1,0.1,0.2,0.3,0.4,0.5
				c0.1,0.1,0.1,0.3,0.1,0.5C471.7,93.1,471.7,93.1,471.7,93.2L471.7,93.2z M477.5,93.2c0,0.2-0.1,0.4-0.3,0.6
				c-0.1,0.2-0.3,0.4-0.6,0.6c-0.1,0.1-0.3,0.2-0.4,0.2c-0.1,0.1-0.3,0.1-0.5,0.1c-0.4,0-0.7-0.1-0.9-0.4c-0.2-0.2-0.3-0.5-0.3-0.9
				c0-0.1,0-0.2,0-0.3c0-0.1,0-0.2,0.1-0.3c0-0.2,0.1-0.3,0.3-0.5c0.1-0.1,0.3-0.3,0.5-0.4c0.2-0.1,0.4-0.2,0.6-0.2
				c0.2-0.1,0.3-0.1,0.5-0.1c0.2,0,0.3,0,0.4,0c0.1,0,0.2,0.1,0.3,0.1c0.1,0.1,0.1,0.1,0.2,0.2c0.1,0.1,0.1,0.2,0.2,0.3
				c0,0.1,0.1,0.1,0.1,0.2c0,0.1,0,0.2,0,0.2C477.5,93,477.5,93.1,477.5,93.2z"/>
		</g>
	</g>
</g>
</svg>
