<?xml version="1.0" encoding="UTF-8"?>
<svg id="Capa_1" data-name="Capa 1" xmlns="http://www.w3.org/2000/svg" viewBox="0 0 651.97 566.93">
  <defs>
    <style>
      .cls-1 {
        fill: #001689;
      }

      .cls-2 {
        fill: #fc0;
      }

      .cls-3 {
        fill: #0082ca;
      }
    </style>
  </defs>
  <g>
    <g>
      <path class="cls-3" d="M219.95,307.74h11.5v1.96h-9.5v6.29h9.41v1.96h-9.41v7.88h9.41v1.96h-11.42v-20.07Z"/>
      <path class="cls-3" d="M236.26,307.46h1.91v5.51h3.03v1.65h-3.03v13.19h-1.91v-13.19h-2.61v-1.65h2.61v-5.51Z"/>
      <path class="cls-3" d="M244.73,306.86c.43,0,.81,.15,1.11,.46,.31,.31,.46,.68,.46,1.12s-.15,.8-.46,1.11c-.31,.31-.68,.46-1.11,.46s-.79-.15-1.1-.46c-.31-.31-.46-.68-.46-1.11s.15-.81,.46-1.12,.67-.46,1.1-.46Zm-.95,6.11h1.91v14.84h-1.91v-14.84Z"/>
      <path class="cls-3" d="M264.44,312.97v20.27h-1.88v-7.98c-.8,.97-1.7,1.71-2.69,2.2s-2.08,.74-3.27,.74c-2.1,0-3.89-.76-5.38-2.29s-2.23-3.38-2.23-5.56,.75-3.96,2.25-5.48c1.5-1.52,3.31-2.28,5.42-2.28,1.22,0,2.32,.26,3.31,.78,.99,.52,1.85,1.3,2.6,2.33v-2.73h1.88Zm-7.63,1.46c-1.06,0-2.04,.26-2.94,.78-.9,.52-1.62,1.26-2.15,2.2-.53,.94-.8,1.94-.8,3s.27,2.04,.8,3c.54,.95,1.26,1.7,2.16,2.23,.9,.53,1.87,.8,2.91,.8s2.03-.26,2.97-.79c.94-.53,1.66-1.24,2.16-2.14,.5-.9,.76-1.91,.76-3.04,0-1.72-.57-3.15-1.7-4.31-1.13-1.15-2.52-1.73-4.18-1.73Z"/>
      <path class="cls-3" d="M268.47,312.97h1.91v6.93c0,1.69,.09,2.86,.27,3.49,.27,.91,.79,1.63,1.56,2.16s1.69,.79,2.75,.79,1.97-.26,2.71-.77,1.25-1.19,1.54-2.03c.19-.57,.29-1.79,.29-3.64v-6.93h1.95v7.29c0,2.05-.24,3.59-.72,4.62-.48,1.04-1.2,1.85-2.16,2.44-.96,.59-2.16,.88-3.61,.88s-2.65-.29-3.62-.88c-.97-.59-1.69-1.41-2.17-2.46-.48-1.05-.72-2.63-.72-4.74v-7.15Z"/>
      <path class="cls-3" d="M298.2,322.89l1.61,.85c-.53,1.04-1.14,1.87-1.83,2.51-.69,.64-1.47,1.12-2.33,1.45-.87,.33-1.84,.5-2.94,.5-2.42,0-4.31-.79-5.68-2.38-1.37-1.59-2.05-3.38-2.05-5.38,0-1.88,.58-3.56,1.73-5.03,1.46-1.87,3.43-2.81,5.88-2.81s4.55,.96,6.06,2.88c1.07,1.36,1.62,3.05,1.64,5.08h-13.36c.04,1.72,.59,3.14,1.65,4.24s2.38,1.65,3.95,1.65c.76,0,1.49-.13,2.21-.39,.71-.26,1.32-.61,1.82-1.05s1.04-1.14,1.63-2.11Zm0-4c-.25-1.02-.63-1.83-1.11-2.44s-1.13-1.1-1.93-1.47c-.8-.37-1.64-.56-2.53-.56-1.46,0-2.71,.47-3.76,1.41-.77,.68-1.34,1.71-1.74,3.07h11.06Z"/>
      <path class="cls-3" d="M305.53,307.46h1.91v5.51h3.03v1.65h-3.03v13.19h-1.91v-13.19h-2.61v-1.65h2.61v-5.51Z"/>
      <path class="cls-3" d="M328.12,312.97v14.84h-1.88v-2.55c-.8,.97-1.7,1.71-2.69,2.2s-2.08,.74-3.27,.74c-2.1,0-3.89-.76-5.38-2.29s-2.23-3.38-2.23-5.56,.75-3.96,2.25-5.48c1.5-1.52,3.31-2.28,5.42-2.28,1.22,0,2.32,.26,3.31,.78,.99,.52,1.85,1.3,2.6,2.33v-2.73h1.88Zm-7.63,1.46c-1.06,0-2.04,.26-2.94,.78-.9,.52-1.62,1.26-2.15,2.2-.53,.94-.8,1.94-.8,3s.27,2.04,.8,3c.54,.95,1.26,1.7,2.16,2.23,.9,.53,1.87,.8,2.91,.8s2.03-.26,2.97-.79c.94-.53,1.66-1.24,2.16-2.14,.5-.9,.76-1.91,.76-3.04,0-1.72-.57-3.15-1.7-4.31-1.13-1.15-2.52-1.73-4.18-1.73Z"/>
      <path class="cls-3" d="M339.88,314.59l-1.23,1.27c-1.02-.99-2.02-1.49-3-1.49-.62,0-1.15,.21-1.59,.61-.44,.41-.66,.89-.66,1.43,0,.48,.18,.94,.55,1.38,.36,.45,1.13,.97,2.3,1.57,1.42,.74,2.39,1.45,2.9,2.13,.5,.69,.75,1.47,.75,2.33,0,1.22-.43,2.25-1.28,3.1-.86,.85-1.93,1.27-3.21,1.27-.86,0-1.67-.19-2.45-.56-.78-.37-1.42-.89-1.93-1.54l1.2-1.36c.98,1.1,2.01,1.65,3.1,1.65,.77,0,1.42-.25,1.96-.74,.54-.49,.81-1.07,.81-1.73,0-.55-.18-1.03-.53-1.46-.36-.42-1.16-.95-2.41-1.58-1.34-.69-2.25-1.37-2.73-2.05s-.72-1.44-.72-2.31c0-1.13,.38-2.06,1.15-2.81,.77-.75,1.74-1.12,2.92-1.12,1.37,0,2.74,.67,4.13,2.01Z"/>
      <path class="cls-3" d="M365.82,307.24v20.57h-1.88v-2.55c-.8,.97-1.7,1.71-2.69,2.2s-2.08,.74-3.27,.74c-2.1,0-3.89-.76-5.38-2.29s-2.23-3.38-2.23-5.56,.75-3.96,2.25-5.48c1.5-1.52,3.31-2.28,5.42-2.28,1.22,0,2.32,.26,3.31,.78,.99,.52,1.85,1.3,2.6,2.33v-8.46h1.88Zm-7.63,7.19c-1.06,0-2.04,.26-2.94,.78-.9,.52-1.62,1.26-2.15,2.2-.53,.94-.8,1.94-.8,3s.27,2.04,.8,3c.54,.95,1.26,1.7,2.16,2.23,.9,.53,1.87,.8,2.91,.8s2.03-.26,2.97-.79c.94-.53,1.66-1.24,2.16-2.14s.76-1.91,.76-3.04c0-1.72-.57-3.15-1.7-4.31-1.13-1.15-2.52-1.73-4.18-1.73Z"/>
      <path class="cls-3" d="M382.64,322.89l1.61,.85c-.53,1.04-1.14,1.87-1.83,2.51-.69,.64-1.47,1.12-2.33,1.45-.87,.33-1.84,.5-2.94,.5-2.42,0-4.31-.79-5.68-2.38-1.37-1.59-2.05-3.38-2.05-5.38,0-1.88,.58-3.56,1.73-5.03,1.46-1.87,3.43-2.81,5.88-2.81s4.55,.96,6.06,2.88c1.07,1.36,1.62,3.05,1.64,5.08h-13.36c.04,1.72,.59,3.14,1.65,4.24s2.38,1.65,3.95,1.65c.76,0,1.49-.13,2.21-.39,.71-.26,1.32-.61,1.82-1.05s1.04-1.14,1.63-2.11Zm0-4c-.25-1.02-.63-1.83-1.11-2.44s-1.13-1.1-1.93-1.47c-.8-.37-1.64-.56-2.53-.56-1.46,0-2.71,.47-3.76,1.41-.77,.68-1.34,1.71-1.74,3.07h11.06Z"/>
      <path class="cls-3" d="M388.01,307.24h1.91v20.57h-1.91v-20.57Z"/>
      <path class="cls-3" d="M401.61,312.97h1.91v2.56c.67-.95,1.35-1.64,2.05-2.07,.96-.58,1.98-.87,3.05-.87,.72,0,1.4,.14,2.05,.42,.65,.28,1.17,.66,1.58,1.13,.41,.47,.77,1.14,1.07,2.01,.64-1.16,1.43-2.05,2.38-2.65,.95-.6,1.98-.91,3.08-.91,1.03,0,1.93,.26,2.71,.78,.79,.52,1.37,1.24,1.75,2.17,.38,.93,.57,2.32,.57,4.17v8.1h-1.95v-8.1c0-1.59-.11-2.69-.34-3.28s-.61-1.08-1.16-1.44c-.55-.36-1.2-.55-1.96-.55-.92,0-1.77,.27-2.54,.82-.77,.54-1.33,1.27-1.68,2.18s-.53,2.43-.53,4.56v5.81h-1.91v-7.6c0-1.79-.11-3.01-.33-3.65-.22-.64-.61-1.16-1.17-1.54s-1.21-.58-1.98-.58c-.88,0-1.71,.27-2.48,.8-.77,.53-1.34,1.25-1.71,2.15s-.55,2.28-.55,4.13v6.29h-1.91v-14.84Z"/>
      <path class="cls-3" d="M442.62,312.97v14.84h-1.88v-2.55c-.8,.97-1.7,1.71-2.69,2.2s-2.08,.74-3.27,.74c-2.1,0-3.89-.76-5.38-2.29s-2.23-3.38-2.23-5.56,.75-3.96,2.25-5.48c1.5-1.52,3.31-2.28,5.42-2.28,1.22,0,2.32,.26,3.31,.78,.99,.52,1.85,1.3,2.6,2.33v-2.73h1.88Zm-7.63,1.46c-1.06,0-2.04,.26-2.94,.78-.9,.52-1.62,1.26-2.15,2.2-.53,.94-.8,1.94-.8,3s.27,2.04,.8,3c.54,.95,1.26,1.7,2.16,2.23,.9,.53,1.87,.8,2.91,.8s2.03-.26,2.97-.79c.94-.53,1.66-1.24,2.16-2.14,.5-.9,.76-1.91,.76-3.04,0-1.72-.57-3.15-1.7-4.31-1.13-1.15-2.52-1.73-4.18-1.73Z"/>
      <path class="cls-3" d="M446.2,312.97h1.95v2.17c.58-.86,1.2-1.49,1.84-1.92,.65-.42,1.32-.63,2.02-.63,.53,0,1.09,.17,1.69,.5l-1,1.61c-.4-.17-.74-.26-1.01-.26-.64,0-1.25,.26-1.84,.79-.59,.52-1.04,1.33-1.35,2.43-.24,.85-.35,2.56-.35,5.13v5.02h-1.95v-14.84Z"/>
      <path class="cls-3" d="M477.47,316.05l-1.51,.94c-1.31-1.74-3.09-2.61-5.36-2.61-1.81,0-3.31,.58-4.5,1.75-1.19,1.16-1.79,2.58-1.79,4.24,0,1.08,.27,2.1,.82,3.05,.55,.95,1.3,1.69,2.26,2.22,.96,.53,2.03,.79,3.22,.79,2.18,0,3.96-.87,5.34-2.61l1.51,1c-.71,1.07-1.66,1.9-2.86,2.49s-2.56,.88-4.09,.88c-2.35,0-4.29-.75-5.84-2.24-1.55-1.49-2.32-3.31-2.32-5.44,0-1.44,.36-2.77,1.08-4,.72-1.23,1.72-2.19,2.98-2.89,1.26-.69,2.68-1.04,4.24-1.04,.98,0,1.93,.15,2.84,.45,.91,.3,1.69,.69,2.33,1.17s1.18,1.1,1.62,1.84Z"/>
      <path class="cls-3" d="M495.92,312.97v14.84h-1.88v-2.55c-.8,.97-1.7,1.71-2.69,2.2s-2.08,.74-3.27,.74c-2.1,0-3.89-.76-5.38-2.29s-2.23-3.38-2.23-5.56,.75-3.96,2.25-5.48c1.5-1.52,3.31-2.28,5.42-2.28,1.22,0,2.32,.26,3.31,.78,.99,.52,1.85,1.3,2.6,2.33v-2.73h1.88Zm-7.63,1.46c-1.06,0-2.04,.26-2.94,.78-.9,.52-1.62,1.26-2.15,2.2-.53,.94-.8,1.94-.8,3s.27,2.04,.8,3c.54,.95,1.26,1.7,2.16,2.23,.9,.53,1.87,.8,2.91,.8s2.03-.26,2.97-.79c.94-.53,1.66-1.24,2.16-2.14,.5-.9,.76-1.91,.76-3.04,0-1.72-.57-3.15-1.7-4.31-1.13-1.15-2.52-1.73-4.18-1.73Z"/>
      <path class="cls-3" d="M499.5,312.97h1.95v2.17c.58-.86,1.2-1.49,1.84-1.92,.65-.42,1.32-.63,2.02-.63,.53,0,1.09,.17,1.69,.5l-1,1.61c-.4-.17-.74-.26-1.01-.26-.64,0-1.25,.26-1.84,.79-.59,.52-1.04,1.33-1.35,2.43-.24,.85-.35,2.56-.35,5.13v5.02h-1.95v-14.84Z"/>
      <path class="cls-3" d="M509.29,306.86c.43,0,.81,.15,1.11,.46,.31,.31,.46,.68,.46,1.12s-.15,.8-.46,1.11c-.31,.31-.68,.46-1.11,.46s-.79-.15-1.1-.46c-.31-.31-.46-.68-.46-1.11s.15-.81,.46-1.12,.67-.46,1.1-.46Zm-.95,6.11h1.91v14.84h-1.91v-14.84Z"/>
      <path class="cls-3" d="M514.34,327.81v-20.57h1.91v8.28c.8-.98,1.69-1.72,2.68-2.2s2.08-.73,3.26-.73c2.1,0,3.89,.76,5.38,2.29,1.49,1.52,2.23,3.37,2.23,5.55s-.75,3.98-2.25,5.5c-1.5,1.52-3.3,2.28-5.41,2.28-1.21,0-2.3-.26-3.28-.78-.98-.52-1.85-1.3-2.6-2.33v2.73h-1.91Zm7.64-1.46c1.06,0,2.04-.26,2.94-.78s1.61-1.26,2.14-2.2c.53-.95,.8-1.95,.8-3s-.27-2.06-.8-3.01-1.25-1.7-2.16-2.23-1.87-.8-2.89-.8-2.03,.27-2.97,.8-1.66,1.25-2.16,2.15c-.5,.9-.76,1.92-.76,3.04,0,1.72,.56,3.16,1.69,4.31s2.52,1.73,4.17,1.73Z"/>
      <path class="cls-3" d="M545.78,322.89l1.61,.85c-.53,1.04-1.14,1.87-1.83,2.51-.69,.64-1.47,1.12-2.33,1.45-.87,.33-1.84,.5-2.94,.5-2.42,0-4.31-.79-5.68-2.38-1.37-1.59-2.05-3.38-2.05-5.38,0-1.88,.58-3.56,1.73-5.03,1.46-1.87,3.43-2.81,5.88-2.81s4.55,.96,6.06,2.88c1.07,1.36,1.62,3.05,1.64,5.08h-13.36c.04,1.72,.59,3.14,1.65,4.24s2.38,1.65,3.95,1.65c.76,0,1.49-.13,2.21-.39,.71-.26,1.32-.61,1.82-1.05s1.04-1.14,1.63-2.11Zm0-4c-.25-1.02-.63-1.83-1.11-2.44s-1.13-1.1-1.93-1.47c-.8-.37-1.64-.56-2.53-.56-1.46,0-2.71,.47-3.76,1.41-.77,.68-1.34,1.71-1.74,3.07h11.06Z"/>
    </g>
    <g>
      <path class="cls-1" d="M218.1,301.84c-.42,0-.62-.21-.62-.62v-46.44c0-2.64,.8-4.54,2.41-5.68,1.61-1.14,3.71-1.71,6.3-1.71h23.65c.41,0,.62,.21,.62,.62,0,1.25-.12,2.4-.35,3.46-.23,1.06-.61,1.98-1.13,2.76-.52,.78-1.19,1.39-2.02,1.83-.83,.44-1.87,.66-3.11,.66h-15.87v12.13h21.24c.42,0,.62,.21,.62,.62,0,.93-.09,1.92-.27,2.96-.18,1.04-.52,1.98-1.01,2.84-.49,.86-1.19,1.56-2.1,2.1-.91,.54-2.06,.82-3.46,.82h-15.01v14.31h15.79c1.45,0,2.62,.22,3.5,.66,.88,.44,1.56,1.05,2.02,1.83,.47,.78,.76,1.7,.89,2.76,.13,1.06,.19,2.22,.19,3.46,0,.42-.21,.62-.62,.62h-31.66Z"/>
      <path class="cls-1" d="M259.64,268.78c-.42,0-.62-.21-.62-.62,0-2.18,.38-3.99,1.13-5.45,.75-1.45,1.8-2.18,3.15-2.18h2.41v-1.48c0-1.71,.35-3.11,1.05-4.2,.7-1.09,1.56-1.95,2.57-2.57,1.01-.62,2.09-1.05,3.23-1.28,1.14-.23,2.15-.35,3.03-.35,.42,0,.62,.21,.62,.62l.08,9.26h11.51c.41,0,.62,.21,.62,.62,0,.83-.08,1.7-.23,2.61-.16,.91-.42,1.72-.78,2.45-.36,.73-.87,1.34-1.52,1.83-.65,.49-1.44,.74-2.37,.74h-7.23v19.76c0,.73,.05,1.45,.16,2.18,.1,.73,.32,1.36,.66,1.91,.34,.54,.8,.99,1.4,1.32,.6,.34,1.39,.51,2.37,.51,.78,0,1.56-.09,2.33-.27,.78-.18,1.52-.41,2.22-.7,.7-.28,1.33-.57,1.91-.86,.57-.28,1.04-.53,1.4-.74,.41-.26,.78-.39,1.09-.39,.57,0,.89,.34,.97,1.01,.08,.67-.3,1.45-1.13,2.33-.47,.47-1.09,1.09-1.87,1.87-.78,.78-1.71,1.56-2.8,2.33-1.09,.78-2.31,1.44-3.66,1.98-1.35,.54-2.83,.82-4.43,.82-1.76,0-3.33-.36-4.71-1.09-1.37-.73-2.54-1.68-3.5-2.88-.96-1.19-1.69-2.61-2.18-4.24-.49-1.63-.74-3.33-.74-5.09v-19.76h-6.15Z"/>
      <path class="cls-1" d="M302.66,254.78c-1.45,0-2.75-.51-3.89-1.52-1.14-1.01-1.71-2.35-1.71-4.01,0-1.56,.57-2.84,1.71-3.85,1.14-1.01,2.44-1.52,3.89-1.52s2.63,.51,3.7,1.52c1.06,1.01,1.59,2.29,1.59,3.85,0,1.66-.53,2.99-1.59,4.01-1.06,1.01-2.29,1.52-3.7,1.52Zm-4.59,47.06c-.42,0-.62-.21-.62-.62v-34.77c0-1.66,.34-2.97,1.01-3.93,.67-.96,1.5-1.67,2.49-2.14,.98-.47,2.05-.75,3.19-.86,1.14-.1,2.18-.16,3.11-.16,.41,0,.62,.21,.62,.62v35c0,1.71-.27,3.03-.82,3.97-.54,.93-1.26,1.61-2.14,2.02s-1.92,.66-3.11,.74c-1.19,.08-2.44,.12-3.73,.12Z"/>
      <path class="cls-1" d="M360.61,251.67c.67,.57,1,.95,.97,1.13-.03,.18-.12,.38-.27,.58-.21,.36-.58,.77-1.13,1.21-.54,.44-1.21,.87-1.98,1.28-.78,.42-1.67,.77-2.68,1.05-1.01,.29-2.09,.43-3.23,.43-1.4,0-2.72-.17-3.97-.51-1.25-.34-2.72-.51-4.43-.51-2.54,0-4.81,.49-6.81,1.48-2,.99-3.7,2.31-5.1,3.97-1.4,1.66-2.46,3.55-3.19,5.68-.73,2.13-1.09,4.36-1.09,6.69s.32,4.72,.97,7c.65,2.28,1.63,4.33,2.96,6.15s3,3.28,5.02,4.39c2.02,1.12,4.43,1.67,7.23,1.67,1.66,0,3.27-.18,4.82-.54,1.56-.36,3-.8,4.32-1.32,1.32-.52,2.46-1.02,3.42-1.52,.96-.49,1.65-.84,2.06-1.05,.16-.1,.41-.16,.78-.16,.57,0,1.01,.23,1.32,.7,.31,.47,.26,1.06-.16,1.79-.67,1.14-1.5,2.33-2.49,3.58-.99,1.25-2.21,2.39-3.66,3.42-1.45,1.04-3.15,1.91-5.09,2.61s-4.21,1.05-6.81,1.05c-3.94,0-7.47-.69-10.58-2.06s-5.74-3.28-7.9-5.72c-2.15-2.44-3.8-5.3-4.94-8.6-1.14-3.29-1.71-6.83-1.71-10.62s.67-7.38,2.02-10.77c1.35-3.4,3.23-6.37,5.64-8.91,2.41-2.54,5.26-4.55,8.56-6.03,3.29-1.48,6.88-2.22,10.77-2.22,2.13,0,4.06,.14,5.79,.43,1.74,.29,3.28,.66,4.63,1.13,1.35,.47,2.51,.97,3.5,1.52,.98,.54,1.79,1.08,2.41,1.59Z"/>
      <path class="cls-1" d="M390.4,276.02l.31,.16c.1,0,.16-.13,.16-.39,0-.62-.07-1.45-.19-2.49-.13-1.04-.48-2.06-1.05-3.07-.57-1.01-1.44-1.88-2.61-2.61-1.17-.73-2.79-1.09-4.86-1.09-.93,0-2.19,.16-3.77,.47-1.58,.31-3.38,.99-5.41,2.02-.31,.16-.62,.23-.93,.23-.57,0-1.01-.22-1.32-.66-.31-.44-.31-.95,0-1.52,1.3-2.33,3.27-4.26,5.91-5.79,2.64-1.53,5.65-2.29,9.02-2.29,2.54,0,4.8,.44,6.77,1.32,1.97,.88,3.63,2.08,4.98,3.58,1.35,1.5,2.37,3.29,3.07,5.37s1.05,4.28,1.05,6.61l-.08,25.36c0,.42-.21,.62-.62,.62-.88,0-1.79-.03-2.72-.08-.93-.05-1.79-.19-2.57-.43-.78-.23-1.41-.61-1.91-1.13-.49-.52-.74-1.24-.74-2.18,0-.31-.08-.47-.23-.47-.1,0-.21,.08-.31,.23-1.04,1.3-2.55,2.35-4.55,3.15-2,.8-4.14,1.21-6.42,1.21-2.08,0-3.99-.38-5.76-1.13-1.76-.75-3.29-1.79-4.59-3.11-1.3-1.32-2.29-2.88-3-4.67s-1.05-3.72-1.05-5.79c0-2.49,.4-4.6,1.21-6.34,.8-1.74,1.88-3.15,3.23-4.24,1.35-1.09,2.9-1.88,4.67-2.37,1.76-.49,3.58-.74,5.45-.74,.93,0,2.24,.12,3.93,.35,1.68,.23,3.33,.87,4.94,1.91Zm-12.91,11.12c0,1.82,.53,3.32,1.59,4.51,1.06,1.19,2.63,1.79,4.71,1.79,.73,0,1.5-.09,2.33-.27,.83-.18,1.59-.48,2.29-.9,.7-.41,1.28-.96,1.75-1.63s.7-1.5,.7-2.49v-3.81c-2.02-2.23-4.38-3.34-7.08-3.34-.78,0-1.54,.1-2.29,.31-.75,.21-1.43,.54-2.02,1.01-.6,.47-1.08,1.09-1.44,1.87-.36,.78-.54,1.76-.54,2.96Z"/>
      <path class="cls-1" d="M410.86,268.16c0-1.76,.36-3.16,1.09-4.2,.73-1.04,1.61-1.83,2.65-2.37,1.04-.54,2.11-.89,3.23-1.05,1.12-.16,2.06-.23,2.84-.23,.41,0,.62,.21,.62,.62v4.04c0,.26,.05,.39,.16,.39s.21-.05,.31-.16c1.24-1.5,2.58-2.65,4.01-3.42,1.43-.78,3.02-1.17,4.78-1.17,.21,0,.39,.01,.54,.04,.16,.03,.31,.04,.47,.04,1.5,.1,2.66,.39,3.46,.86,.8,.47,1.21,.91,1.21,1.32,0,.31-.14,.82-.43,1.52-.29,.7-.71,1.4-1.28,2.1-.57,.7-1.3,1.32-2.18,1.87-.88,.54-1.94,.82-3.19,.82-.99,0-1.94,.13-2.88,.39-.93,.26-1.78,.69-2.53,1.28-.75,.6-1.35,1.37-1.79,2.33-.44,.96-.66,2.14-.66,3.54v18.12c0,.88-.16,1.74-.47,2.57-.31,.83-.84,1.58-1.59,2.26-.75,.67-1.75,1.21-3,1.59-1.24,.39-2.83,.58-4.74,.58-.42,0-.62-.21-.62-.62v-33.06Z"/>
      <path class="cls-1" d="M448.04,254.78c-1.45,0-2.75-.51-3.89-1.52-1.14-1.01-1.71-2.35-1.71-4.01,0-1.56,.57-2.84,1.71-3.85,1.14-1.01,2.44-1.52,3.89-1.52s2.63,.51,3.7,1.52c1.06,1.01,1.59,2.29,1.59,3.85,0,1.66-.53,2.99-1.59,4.01-1.06,1.01-2.29,1.52-3.7,1.52Zm-4.59,47.06c-.42,0-.62-.21-.62-.62v-34.77c0-1.66,.34-2.97,1.01-3.93,.67-.96,1.5-1.67,2.49-2.14,.98-.47,2.05-.75,3.19-.86,1.14-.1,2.18-.16,3.11-.16,.41,0,.62,.21,.62,.62v35c0,1.71-.27,3.03-.82,3.97-.54,.93-1.26,1.61-2.14,2.02s-1.92,.66-3.11,.74c-1.19,.08-2.44,.12-3.73,.12Z"/>
      <path class="cls-1" d="M463.44,254.86c0-1.66,.35-2.98,1.05-3.97,.7-.98,1.56-1.74,2.57-2.26,1.01-.52,2.07-.86,3.19-1.01,1.11-.16,2.11-.23,3-.23,.41,0,.62,.21,.62,.62v15.09c0,.21,.05,.31,.16,.31,.05,0,.13-.05,.23-.16,1.25-1.04,2.68-1.89,4.32-2.57,1.63-.67,3.54-1.01,5.72-1.01,2.8,0,5.33,.56,7.58,1.67,2.26,1.12,4.17,2.63,5.76,4.55,1.58,1.92,2.8,4.15,3.66,6.69,.86,2.54,1.28,5.24,1.28,8.09s-.51,5.65-1.52,8.25c-1.01,2.59-2.41,4.87-4.2,6.85-1.79,1.97-3.88,3.54-6.26,4.71-2.39,1.17-4.95,1.75-7.7,1.75-2.39,0-4.46-.45-6.22-1.36-1.76-.91-3.01-2.19-3.73-3.85-.05-.16-.13-.23-.23-.23-.05,0-.13,.13-.23,.39-.57,1.76-1.66,2.98-3.27,3.66-1.61,.67-3.32,1.01-5.13,1.01-.42,0-.62-.21-.62-.62v-46.36Zm10.42,30.57c0,1.09,.26,2.14,.78,3.15,.52,1.01,1.21,1.91,2.06,2.68,.86,.78,1.83,1.39,2.92,1.83,1.09,.44,2.18,.66,3.27,.66,1.5,0,2.84-.4,4.01-1.21,1.17-.8,2.14-1.83,2.92-3.07,.78-1.25,1.36-2.62,1.75-4.12,.39-1.5,.58-2.96,.58-4.36s-.19-2.75-.58-4.2c-.39-1.45-.99-2.77-1.79-3.97-.8-1.19-1.8-2.18-2.99-2.96-1.19-.78-2.59-1.17-4.2-1.17-1.24,0-2.4,.23-3.46,.7-1.06,.47-1.98,1.1-2.76,1.91-.78,.8-1.39,1.74-1.83,2.8-.44,1.06-.66,2.22-.66,3.46v7.86Z"/>
      <path class="cls-1" d="M550.1,277.81c.1,.88-.05,1.71-.47,2.49-.42,.78-.97,1.48-1.67,2.1-.7,.62-1.52,1.16-2.45,1.59-.93,.44-1.87,.77-2.8,.97l-20.46,2.02c.47,2.39,1.56,4.14,3.27,5.25,1.71,1.12,3.89,1.67,6.53,1.67,2.07,0,4.04-.25,5.91-.74s3.79-1.18,5.76-2.06c.52-.21,.91-.31,1.17-.31,.47,0,.87,.14,1.21,.43,.34,.29,.56,.66,.66,1.13,.1,.47,.08,.96-.08,1.48-.16,.52-.47,1.01-.93,1.48-.83,.78-1.76,1.59-2.8,2.45-1.04,.86-2.23,1.63-3.58,2.33-1.35,.7-2.87,1.27-4.55,1.71-1.69,.44-3.54,.66-5.56,.66-3.16,0-5.93-.57-8.28-1.71-2.36-1.14-4.33-2.67-5.91-4.59-1.58-1.92-2.76-4.11-3.54-6.57-.78-2.46-1.17-5.04-1.17-7.74,0-2.9,.44-5.69,1.32-8.36,.88-2.67,2.2-5.03,3.97-7.08,1.76-2.05,3.99-3.68,6.69-4.9,2.7-1.22,5.83-1.83,9.41-1.83,2.75,0,5.2,.49,7.35,1.48,2.15,.99,4.01,2.32,5.56,4.01,1.56,1.69,2.79,3.62,3.7,5.79,.91,2.18,1.49,4.46,1.75,6.85Zm-10.81-.78c-.1-1.09-.39-2.16-.86-3.23-.47-1.06-1.08-2-1.83-2.8-.75-.8-1.65-1.46-2.68-1.98-1.04-.52-2.18-.78-3.42-.78s-2.45,.27-3.62,.82c-1.17,.54-2.18,1.28-3.03,2.22s-1.54,2.01-2.06,3.23c-.52,1.22-.78,2.53-.78,3.93l18.28-1.4Z"/>
    </g>
  </g>
  <g>
    <path class="cls-1" d="M152.76,334.38c-28.08,0-50.92-22.84-50.92-50.92s22.84-50.92,50.92-50.92,50.92,22.84,50.92,50.92-22.84,50.92-50.92,50.92Zm0-98.43c-26.2,0-47.51,21.31-47.51,47.51s21.31,47.51,47.51,47.51,47.51-21.31,47.51-47.51-21.31-47.51-47.51-47.51Z"/>
    <g>
      <path class="cls-1" d="M193.89,259.6l-27.58-.05-13.55-23.41-13.5,23.37-27.77-.05,13.91,24.04-13.77,23.83,27.58,.05,13.54,23.41,13.5-23.37,27.78,.04-13.91-24.04,13.77-23.82Zm-5.61,44.52l-23.91-.03-11.63,20.11-11.66-20.15-23.74-.04,11.85-20.51-11.97-20.69,23.9,.03,11.62-20.12,11.66,20.16,23.74,.04-11.85,20.51,11.98,20.69Z"/>
      <g>
        <polygon class="cls-2" points="152.77 253.48 147.35 262.86 158.21 262.87 152.77 253.48"/>
        <polygon class="cls-2" points="126.56 268.2 132.31 278.13 138.02 268.22 126.56 268.2"/>
        <polygon class="cls-2" points="126.67 298.64 137.98 298.66 132.32 288.87 126.67 298.64"/>
        <polygon class="cls-2" points="178.85 268.29 167.54 268.27 173.2 278.06 178.85 268.29"/>
        <polygon class="cls-2" points="152.75 313.45 158.17 304.07 147.31 304.06 152.75 313.45"/>
        <polygon class="cls-2" points="178.95 298.73 173.2 288.8 167.49 298.7 178.95 298.73"/>
        <circle class="cls-2" cx="152.76" cy="283.46" r="15.87"/>
      </g>
    </g>
  </g>
</svg>