<?xml version="1.0" encoding="utf-8"?>
<!-- Generator: Adobe Illustrator 26.0.1, SVG Export Plug-In . SVG Version: 6.00 Build 0)  -->
<svg version="1.1" id="Capa_1" xmlns="http://www.w3.org/2000/svg" xmlns:xlink="http://www.w3.org/1999/xlink" x="0px" y="0px"
	 viewBox="0 0 605 105" style="enable-background:new 0 0 605 105;" xml:space="preserve">
<style type="text/css">
	.st0{fill:#FFFFFF;}
	.st1{fill:#FFCC00;}
</style>
<g>
	<g>
		<g>
			<path class="st0" d="M196.5,76.8H208v2h-9.5V85h9.4v2h-9.4v7.9h9.4v2h-11.4L196.5,76.8L196.5,76.8z"/>
			<path class="st0" d="M212.8,76.5h1.9V82h3v1.6h-3v13.2h-1.9V83.7h-2.6V82h2.6V76.5z"/>
			<path class="st0" d="M221.2,75.9c0.4,0,0.8,0.1,1.1,0.5c0.3,0.3,0.5,0.7,0.5,1.1s-0.1,0.8-0.5,1.1c-0.3,0.3-0.7,0.5-1.1,0.5
				s-0.8-0.1-1.1-0.5c-0.3-0.3-0.5-0.7-0.5-1.1s0.1-0.8,0.5-1.1S220.8,75.9,221.2,75.9z M220.3,82h1.9v14.8h-1.9V82z"/>
			<path class="st0" d="M241,82v20.3h-1.9v-8c-0.8,1-1.7,1.7-2.7,2.2s-2.1,0.7-3.3,0.7c-2.1,0-3.9-0.8-5.4-2.3s-2.2-3.4-2.2-5.6
				s0.8-4,2.2-5.5c1.5-1.5,3.3-2.3,5.4-2.3c1.2,0,2.3,0.3,3.3,0.8s1.9,1.3,2.6,2.3V82L241,82L241,82z M233.3,83.5
				c-1.1,0-2,0.3-2.9,0.8c-0.9,0.5-1.6,1.3-2.1,2.2s-0.8,1.9-0.8,3s0.3,2,0.8,3c0.5,1,1.3,1.7,2.2,2.2c0.9,0.5,1.9,0.8,2.9,0.8
				s2-0.3,3-0.8s1.7-1.2,2.2-2.1c0.5-0.9,0.8-1.9,0.8-3c0-1.7-0.6-3.1-1.7-4.3C236.4,84,235,83.5,233.3,83.5L233.3,83.5z"/>
			<path class="st0" d="M245,82h1.9v6.9c0,1.7,0.1,2.9,0.3,3.5c0.3,0.9,0.8,1.6,1.6,2.2s1.7,0.8,2.8,0.8s2-0.3,2.7-0.8
				s1.2-1.2,1.5-2c0.2-0.6,0.3-1.8,0.3-3.6V82h2v7.3c0,2-0.2,3.6-0.7,4.6c-0.5,1-1.2,1.9-2.2,2.4c-1,0.6-2.2,0.9-3.6,0.9
				s-2.6-0.3-3.6-0.9s-1.7-1.4-2.2-2.5s-0.7-2.6-0.7-4.7L245,82L245,82z"/>
			<path class="st0" d="M274.7,91.9l1.6,0.9c-0.5,1-1.1,1.9-1.8,2.5c-0.7,0.6-1.5,1.1-2.3,1.5c-0.9,0.3-1.8,0.5-2.9,0.5
				c-2.4,0-4.3-0.8-5.7-2.4s-2-3.4-2-5.4c0-1.9,0.6-3.6,1.7-5c1.5-1.9,3.4-2.8,5.9-2.8s4.5,1,6.1,2.9c1.1,1.4,1.6,3,1.6,5.1h-13.4
				c0,1.7,0.6,3.1,1.6,4.2s2.4,1.6,4,1.6c0.8,0,1.5-0.1,2.2-0.4c0.7-0.3,1.3-0.6,1.8-1S274.1,92.9,274.7,91.9L274.7,91.9z
				 M274.7,87.9c-0.2-1-0.6-1.8-1.1-2.4s-1.1-1.1-1.9-1.5s-1.6-0.6-2.5-0.6c-1.5,0-2.7,0.5-3.8,1.4c-0.8,0.7-1.3,1.7-1.7,3.1
				L274.7,87.9L274.7,87.9z"/>
			<path class="st0" d="M282,76.5h1.9V82h3v1.6h-3v13.2H282V83.7h-2.6V82h2.6V76.5z"/>
			<path class="st0" d="M304.6,82v14.8h-1.9v-2.5c-0.8,1-1.7,1.7-2.7,2.2s-2.1,0.7-3.3,0.7c-2.1,0-3.9-0.8-5.4-2.3s-2.2-3.4-2.2-5.6
				s0.8-4,2.2-5.5c1.5-1.5,3.3-2.3,5.4-2.3c1.2,0,2.3,0.3,3.3,0.8s1.9,1.3,2.6,2.3V82L304.6,82L304.6,82z M297,83.5
				c-1.1,0-2,0.3-2.9,0.8s-1.6,1.3-2.1,2.2s-0.8,1.9-0.8,3s0.3,2,0.8,3c0.5,1,1.3,1.7,2.2,2.2s1.9,0.8,2.9,0.8s2-0.3,3-0.8
				s1.7-1.2,2.2-2.1c0.5-0.9,0.8-1.9,0.8-3c0-1.7-0.6-3.1-1.7-4.3C300,84,298.7,83.5,297,83.5L297,83.5z"/>
			<path class="st0" d="M316.4,83.6l-1.2,1.3c-1-1-2-1.5-3-1.5c-0.6,0-1.1,0.2-1.6,0.6c-0.4,0.4-0.7,0.9-0.7,1.4
				c0,0.5,0.2,0.9,0.5,1.4c0.4,0.5,1.1,1,2.3,1.6c1.4,0.7,2.4,1.5,2.9,2.1c0.5,0.7,0.8,1.5,0.8,2.3c0,1.2-0.4,2.2-1.3,3.1
				c-0.9,0.9-1.9,1.3-3.2,1.3c-0.9,0-1.7-0.2-2.5-0.6s-1.4-0.9-1.9-1.5l1.2-1.4c1,1.1,2,1.6,3.1,1.6c0.8,0,1.4-0.2,2-0.7
				c0.5-0.5,0.8-1.1,0.8-1.7c0-0.5-0.2-1-0.5-1.5c-0.4-0.4-1.2-1-2.4-1.6c-1.3-0.7-2.2-1.4-2.7-2s-0.7-1.4-0.7-2.3
				c0-1.1,0.4-2.1,1.1-2.8s1.7-1.1,2.9-1.1C313.7,81.6,315,82.3,316.4,83.6L316.4,83.6z"/>
			<path class="st0" d="M342.3,76.3v20.6h-1.9v-2.5c-0.8,1-1.7,1.7-2.7,2.2s-2.1,0.7-3.3,0.7c-2.1,0-3.9-0.8-5.4-2.3
				s-2.2-3.4-2.2-5.6s0.8-4,2.2-5.5c1.5-1.5,3.3-2.3,5.4-2.3c1.2,0,2.3,0.3,3.3,0.8s1.9,1.3,2.6,2.3v-8.5H342.3L342.3,76.3z
				 M334.7,83.5c-1.1,0-2,0.3-2.9,0.8s-1.6,1.3-2.1,2.2s-0.8,1.9-0.8,3s0.3,2,0.8,3c0.5,1,1.3,1.7,2.2,2.2s1.9,0.8,2.9,0.8
				s2-0.3,3-0.8s1.7-1.2,2.2-2.1s0.8-1.9,0.8-3c0-1.7-0.6-3.1-1.7-4.3C337.7,84,336.4,83.5,334.7,83.5L334.7,83.5z"/>
			<path class="st0" d="M359.2,91.9l1.6,0.9c-0.5,1-1.1,1.9-1.8,2.5c-0.7,0.6-1.5,1.1-2.3,1.5c-0.9,0.3-1.8,0.5-2.9,0.5
				c-2.4,0-4.3-0.8-5.7-2.4s-2-3.4-2-5.4c0-1.9,0.6-3.6,1.7-5c1.5-1.9,3.4-2.8,5.9-2.8s4.5,1,6.1,2.9c1.1,1.4,1.6,3,1.6,5.1h-13.4
				c0,1.7,0.6,3.1,1.6,4.2s2.4,1.6,4,1.6c0.8,0,1.5-0.1,2.2-0.4c0.7-0.3,1.3-0.6,1.8-1S358.6,92.9,359.2,91.9L359.2,91.9z
				 M359.2,87.9c-0.2-1-0.6-1.8-1.1-2.4s-1.1-1.1-1.9-1.5s-1.6-0.6-2.5-0.6c-1.5,0-2.7,0.5-3.8,1.4c-0.8,0.7-1.3,1.7-1.7,3.1
				L359.2,87.9L359.2,87.9z"/>
			<path class="st0" d="M364.5,76.3h1.9v20.6h-1.9V76.3z"/>
			<path class="st0" d="M378.1,82h1.9v2.6c0.7-1,1.4-1.6,2-2.1c1-0.6,2-0.9,3-0.9c0.7,0,1.4,0.1,2,0.4s1.2,0.7,1.6,1.1
				c0.4,0.5,0.8,1.1,1.1,2c0.6-1.2,1.4-2,2.4-2.6s2-0.9,3.1-0.9c1,0,1.9,0.3,2.7,0.8c0.8,0.5,1.4,1.2,1.8,2.2
				c0.4,0.9,0.6,2.3,0.6,4.2v8.1h-2v-8.1c0-1.6-0.1-2.7-0.3-3.3s-0.6-1.1-1.2-1.4c-0.5-0.4-1.2-0.5-2-0.5c-0.9,0-1.8,0.3-2.5,0.8
				c-0.8,0.5-1.3,1.3-1.7,2.2s-0.5,2.4-0.5,4.6v5.8h-1.9v-7.6c0-1.8-0.1-3-0.3-3.6c-0.2-0.6-0.6-1.2-1.2-1.5s-1.2-0.6-2-0.6
				c-0.9,0-1.7,0.3-2.5,0.8c-0.8,0.5-1.3,1.2-1.7,2.1s-0.5,2.3-0.5,4.1v6.3h-1.9L378.1,82L378.1,82z"/>
			<path class="st0" d="M419.1,82v14.8h-1.9v-2.5c-0.8,1-1.7,1.7-2.7,2.2s-2.1,0.7-3.3,0.7c-2.1,0-3.9-0.8-5.4-2.3s-2.2-3.4-2.2-5.6
				s0.8-4,2.2-5.5c1.5-1.5,3.3-2.3,5.4-2.3c1.2,0,2.3,0.3,3.3,0.8s1.9,1.3,2.6,2.3V82L419.1,82L419.1,82z M411.5,83.5
				c-1.1,0-2,0.3-2.9,0.8s-1.6,1.3-2.1,2.2s-0.8,1.9-0.8,3s0.3,2,0.8,3c0.5,1,1.3,1.7,2.2,2.2s1.9,0.8,2.9,0.8s2-0.3,3-0.8
				s1.7-1.2,2.2-2.1c0.5-0.9,0.8-1.9,0.8-3c0-1.7-0.6-3.1-1.7-4.3C414.5,84,413.2,83.5,411.5,83.5L411.5,83.5z"/>
			<path class="st0" d="M422.7,82h2v2.2c0.6-0.9,1.2-1.5,1.8-1.9c0.6-0.4,1.3-0.6,2-0.6c0.5,0,1.1,0.2,1.7,0.5l-1,1.6
				c-0.4-0.2-0.7-0.3-1-0.3c-0.6,0-1.2,0.3-1.8,0.8c-0.6,0.5-1,1.3-1.4,2.4c-0.2,0.9-0.4,2.6-0.4,5.1v5h-2L422.7,82L422.7,82z"/>
			<path class="st0" d="M454,85.1l-1.5,0.9c-1.3-1.7-3.1-2.6-5.4-2.6c-1.8,0-3.3,0.6-4.5,1.8c-1.2,1.2-1.8,2.6-1.8,4.2
				c0,1.1,0.3,2.1,0.8,3c0.5,1,1.3,1.7,2.3,2.2c1,0.5,2,0.8,3.2,0.8c2.2,0,4-0.9,5.3-2.6l1.5,1c-0.7,1.1-1.7,1.9-2.9,2.5
				s-2.6,0.9-4.1,0.9c-2.4,0-4.3-0.8-5.8-2.2s-2.3-3.3-2.3-5.4c0-1.4,0.4-2.8,1.1-4s1.7-2.2,3-2.9c1.3-0.7,2.7-1,4.2-1
				c1,0,1.9,0.1,2.8,0.5c0.9,0.3,1.7,0.7,2.3,1.2S453.5,84.3,454,85.1L454,85.1z"/>
			<path class="st0" d="M472.4,82v14.8h-1.9v-2.5c-0.8,1-1.7,1.7-2.7,2.2s-2.1,0.7-3.3,0.7c-2.1,0-3.9-0.8-5.4-2.3s-2.2-3.4-2.2-5.6
				s0.8-4,2.2-5.5c1.5-1.5,3.3-2.3,5.4-2.3c1.2,0,2.3,0.3,3.3,0.8s1.9,1.3,2.6,2.3V82L472.4,82L472.4,82z M464.8,83.5
				c-1.1,0-2,0.3-2.9,0.8s-1.6,1.3-2.1,2.2s-0.8,1.9-0.8,3s0.3,2,0.8,3c0.5,1,1.3,1.7,2.2,2.2s1.9,0.8,2.9,0.8s2-0.3,3-0.8
				s1.7-1.2,2.2-2.1c0.5-0.9,0.8-1.9,0.8-3c0-1.7-0.6-3.1-1.7-4.3C467.8,84,466.5,83.5,464.8,83.5L464.8,83.5z"/>
			<path class="st0" d="M476,82h2v2.2c0.6-0.9,1.2-1.5,1.8-1.9c0.6-0.4,1.3-0.6,2-0.6c0.5,0,1.1,0.2,1.7,0.5l-1,1.6
				c-0.4-0.2-0.7-0.3-1-0.3c-0.6,0-1.2,0.3-1.8,0.8c-0.6,0.5-1,1.3-1.4,2.4c-0.2,0.9-0.4,2.6-0.4,5.1v5h-2L476,82L476,82z"/>
			<path class="st0" d="M485.8,75.9c0.4,0,0.8,0.1,1.1,0.5c0.3,0.3,0.5,0.7,0.5,1.1s-0.1,0.8-0.5,1.1s-0.7,0.5-1.1,0.5
				s-0.8-0.1-1.1-0.5s-0.5-0.7-0.5-1.1s0.1-0.8,0.5-1.1S485.4,75.9,485.8,75.9z M484.9,82h1.9v14.8h-1.9V82z"/>
			<path class="st0" d="M490.9,96.8V76.3h1.9v8.3c0.8-1,1.7-1.7,2.7-2.2s2.1-0.7,3.3-0.7c2.1,0,3.9,0.8,5.4,2.3
				c1.5,1.5,2.2,3.4,2.2,5.5s-0.8,4-2.2,5.5s-3.3,2.3-5.4,2.3c-1.2,0-2.3-0.3-3.3-0.8c-1-0.5-1.8-1.3-2.6-2.3v2.7L490.9,96.8
				L490.9,96.8z M498.5,95.4c1.1,0,2-0.3,2.9-0.8s1.6-1.3,2.1-2.2c0.5-1,0.8-2,0.8-3s-0.3-2.1-0.8-3s-1.2-1.7-2.2-2.2
				s-1.9-0.8-2.9-0.8s-2,0.3-3,0.8s-1.7,1.2-2.2,2.1s-0.8,1.9-0.8,3c0,1.7,0.6,3.2,1.7,4.3S496.8,95.4,498.5,95.4L498.5,95.4z"/>
			<path class="st0" d="M522.3,91.9l1.6,0.9c-0.5,1-1.1,1.9-1.8,2.5s-1.5,1.1-2.3,1.5c-0.9,0.3-1.8,0.5-2.9,0.5
				c-2.4,0-4.3-0.8-5.7-2.4c-1.4-1.6-2-3.4-2-5.4c0-1.9,0.6-3.6,1.7-5c1.5-1.9,3.4-2.8,5.9-2.8s4.5,1,6.1,2.9c1.1,1.4,1.6,3,1.6,5.1
				H511c0,1.7,0.6,3.1,1.6,4.2c1.1,1.1,2.4,1.6,4,1.6c0.8,0,1.5-0.1,2.2-0.4c0.7-0.3,1.3-0.6,1.8-1S521.7,92.9,522.3,91.9
				L522.3,91.9z M522.3,87.9c-0.2-1-0.6-1.8-1.1-2.4s-1.1-1.1-1.9-1.5s-1.6-0.6-2.5-0.6c-1.5,0-2.7,0.5-3.8,1.4
				c-0.8,0.7-1.3,1.7-1.7,3.1L522.3,87.9L522.3,87.9z"/>
		</g>
		<g>
			<path class="st0" d="M194.6,70.9c-0.4,0-0.6-0.2-0.6-0.6V23.8c0-2.6,0.8-4.5,2.4-5.7s3.7-1.7,6.3-1.7h23.6c0.4,0,0.6,0.2,0.6,0.6
				c0,1.2-0.1,2.4-0.4,3.5c-0.2,1.1-0.6,2-1.1,2.8s-1.2,1.4-2,1.8s-1.9,0.7-3.1,0.7h-15.9v12.1h21.2c0.4,0,0.6,0.2,0.6,0.6
				c0,0.9-0.1,1.9-0.3,3c-0.2,1-0.5,2-1,2.8c-0.5,0.9-1.2,1.6-2.1,2.1s-2.1,0.8-3.5,0.8h-15v14.3h15.8c1.4,0,2.6,0.2,3.5,0.7
				s1.6,1,2,1.8c0.5,0.8,0.8,1.7,0.9,2.8s0.2,2.2,0.2,3.5c0,0.4-0.2,0.6-0.6,0.6L194.6,70.9L194.6,70.9z"/>
			<path class="st0" d="M236.2,37.8c-0.4,0-0.6-0.2-0.6-0.6c0-2.2,0.4-4,1.1-5.5c0.8-1.5,1.8-2.2,3.1-2.2h2.4v-1.5
				c0-1.7,0.4-3.1,1-4.2c0.7-1.1,1.6-1.9,2.6-2.6c1-0.6,2.1-1.1,3.2-1.3s2.1-0.4,3-0.4c0.4,0,0.6,0.2,0.6,0.6l0.1,9.3h11.5
				c0.4,0,0.6,0.2,0.6,0.6c0,0.8-0.1,1.7-0.2,2.6c-0.2,0.9-0.4,1.7-0.8,2.5s-0.9,1.3-1.5,1.8s-1.4,0.7-2.4,0.7h-7.2v19.8
				c0,0.7,0,1.5,0.2,2.2c0.1,0.7,0.3,1.4,0.7,1.9c0.3,0.5,0.8,1,1.4,1.3c0.6,0.3,1.4,0.5,2.4,0.5c0.8,0,1.6-0.1,2.3-0.3
				c0.8-0.2,1.5-0.4,2.2-0.7c0.7-0.3,1.3-0.6,1.9-0.9c0.6-0.3,1-0.5,1.4-0.7c0.4-0.3,0.8-0.4,1.1-0.4c0.6,0,0.9,0.3,1,1
				s-0.3,1.5-1.1,2.3c-0.5,0.5-1.1,1.1-1.9,1.9s-1.7,1.6-2.8,2.3c-1.1,0.8-2.3,1.4-3.7,2s-2.8,0.8-4.4,0.8c-1.8,0-3.3-0.4-4.7-1.1
				c-1.4-0.7-2.5-1.7-3.5-2.9c-1-1.2-1.7-2.6-2.2-4.2s-0.7-3.3-0.7-5.1V37.8L236.2,37.8L236.2,37.8z"/>
			<path class="st0" d="M279.2,23.8c-1.5,0-2.8-0.5-3.9-1.5c-1.1-1-1.7-2.4-1.7-4c0-1.6,0.6-2.8,1.7-3.9c1.1-1,2.4-1.5,3.9-1.5
				s2.6,0.5,3.7,1.5c1.1,1,1.6,2.3,1.6,3.9c0,1.7-0.5,3-1.6,4C281.8,23.3,280.6,23.8,279.2,23.8z M274.6,70.9
				c-0.4,0-0.6-0.2-0.6-0.6V35.5c0-1.7,0.3-3,1-3.9s1.5-1.7,2.5-2.1c1-0.5,2-0.8,3.2-0.9c1.1-0.1,2.2-0.2,3.1-0.2
				c0.4,0,0.6,0.2,0.6,0.6v35c0,1.7-0.3,3-0.8,4c-0.5,0.9-1.3,1.6-2.1,2s-1.9,0.7-3.1,0.7C277.1,70.8,275.9,70.9,274.6,70.9
				L274.6,70.9z"/>
			<path class="st0" d="M337.1,20.7c0.7,0.6,1,0.9,1,1.1c0,0.2-0.1,0.4-0.3,0.6c-0.2,0.4-0.6,0.8-1.1,1.2c-0.5,0.4-1.2,0.9-2,1.3
				c-0.8,0.4-1.7,0.8-2.7,1.1c-1,0.3-2.1,0.4-3.2,0.4c-1.4,0-2.7-0.2-4-0.5s-2.7-0.5-4.4-0.5c-2.5,0-4.8,0.5-6.8,1.5
				c-2,1-3.7,2.3-5.1,4s-2.5,3.5-3.2,5.7s-1.1,4.4-1.1,6.7s0.3,4.7,1,7s1.6,4.3,3,6.1s3,3.3,5,4.4c2,1.1,4.4,1.7,7.2,1.7
				c1.7,0,3.3-0.2,4.8-0.5c1.6-0.4,3-0.8,4.3-1.3c1.3-0.5,2.5-1,3.4-1.5c1-0.5,1.6-0.8,2.1-1c0.2-0.1,0.4-0.2,0.8-0.2
				c0.6,0,1,0.2,1.3,0.7s0.3,1.1-0.2,1.8c-0.7,1.1-1.5,2.3-2.5,3.6s-2.2,2.4-3.7,3.4c-1.5,1-3.1,1.9-5.1,2.6s-4.2,1-6.8,1
				c-3.9,0-7.5-0.7-10.6-2.1s-5.7-3.3-7.9-5.7c-2.1-2.4-3.8-5.3-4.9-8.6c-1.1-3.3-1.7-6.8-1.7-10.6s0.7-7.4,2-10.8
				c1.4-3.4,3.2-6.4,5.6-8.9c2.4-2.5,5.3-4.6,8.6-6c3.3-1.5,6.9-2.2,10.8-2.2c2.1,0,4.1,0.1,5.8,0.4c1.7,0.3,3.3,0.7,4.6,1.1
				s2.5,1,3.5,1.5C335.7,19.7,336.5,20.2,337.1,20.7L337.1,20.7z"/>
			<path class="st0" d="M366.9,45.1l0.3,0.2c0.1,0,0.2-0.1,0.2-0.4c0-0.6-0.1-1.5-0.2-2.5c-0.1-1-0.5-2.1-1-3.1
				c-0.6-1-1.4-1.9-2.6-2.6c-1.2-0.7-2.8-1.1-4.9-1.1c-0.9,0-2.2,0.2-3.8,0.5s-3.4,1-5.4,2c-0.3,0.2-0.6,0.2-0.9,0.2
				c-0.6,0-1-0.2-1.3-0.7s-0.3-1,0-1.5c1.3-2.3,3.3-4.3,5.9-5.8s5.6-2.3,9-2.3c2.5,0,4.8,0.4,6.8,1.3s3.6,2.1,5,3.6s2.4,3.3,3.1,5.4
				s1,4.3,1,6.6L378,70.3c0,0.4-0.2,0.6-0.6,0.6c-0.9,0-1.8,0-2.7-0.1s-1.8-0.2-2.6-0.4c-0.8-0.2-1.4-0.6-1.9-1.1
				c-0.5-0.5-0.7-1.2-0.7-2.2c0-0.3-0.1-0.5-0.2-0.5c-0.1,0-0.2,0.1-0.3,0.2c-1,1.3-2.5,2.4-4.5,3.1s-4.1,1.2-6.4,1.2
				c-2.1,0-4-0.4-5.8-1.1c-1.8-0.8-3.3-1.8-4.6-3.1c-1.3-1.3-2.3-2.9-3-4.7s-1-3.7-1-5.8c0-2.5,0.4-4.6,1.2-6.3
				c0.8-1.7,1.9-3.1,3.2-4.2s2.9-1.9,4.7-2.4c1.8-0.5,3.6-0.7,5.5-0.7c0.9,0,2.2,0.1,3.9,0.4C363.7,43.4,365.3,44,366.9,45.1
				L366.9,45.1z M354,56.2c0,1.8,0.5,3.3,1.6,4.5s2.6,1.8,4.7,1.8c0.7,0,1.5-0.1,2.3-0.3s1.6-0.5,2.3-0.9c0.7-0.4,1.3-1,1.8-1.6
				s0.7-1.5,0.7-2.5v-3.8c-2-2.2-4.4-3.3-7.1-3.3c-0.8,0-1.5,0.1-2.3,0.3s-1.4,0.5-2,1c-0.6,0.5-1.1,1.1-1.4,1.9
				C354.2,54,354,55,354,56.2L354,56.2z"/>
			<path class="st0" d="M387.4,37.2c0-1.8,0.4-3.2,1.1-4.2s1.6-1.8,2.6-2.4s2.1-0.9,3.2-1c1.1-0.2,2.1-0.2,2.8-0.2
				c0.4,0,0.6,0.2,0.6,0.6v4c0,0.3,0,0.4,0.2,0.4s0.2,0,0.3-0.2c1.2-1.5,2.6-2.6,4-3.4c1.4-0.8,3-1.2,4.8-1.2c0.2,0,0.4,0,0.5,0
				c0.2,0,0.3,0,0.5,0c1.5,0.1,2.7,0.4,3.5,0.9c0.8,0.5,1.2,0.9,1.2,1.3c0,0.3-0.1,0.8-0.4,1.5c-0.3,0.7-0.7,1.4-1.3,2.1
				s-1.3,1.3-2.2,1.9c-0.9,0.5-1.9,0.8-3.2,0.8c-1,0-1.9,0.1-2.9,0.4c-0.9,0.3-1.8,0.7-2.5,1.3c-0.8,0.6-1.4,1.4-1.8,2.3
				s-0.7,2.1-0.7,3.5v18.1c0,0.9-0.2,1.7-0.5,2.6c-0.3,0.8-0.8,1.6-1.6,2.3c-0.8,0.7-1.8,1.2-3,1.6c-1.2,0.4-2.8,0.6-4.7,0.6
				c-0.4,0-0.6-0.2-0.6-0.6L387.4,37.2L387.4,37.2z"/>
			<path class="st0" d="M424.6,23.8c-1.5,0-2.8-0.5-3.9-1.5c-1.1-1-1.7-2.4-1.7-4c0-1.6,0.6-2.8,1.7-3.9c1.1-1,2.4-1.5,3.9-1.5
				s2.6,0.5,3.7,1.5c1.1,1,1.6,2.3,1.6,3.9c0,1.7-0.5,3-1.6,4C427.2,23.3,426,23.8,424.6,23.8z M420,70.9c-0.4,0-0.6-0.2-0.6-0.6
				V35.5c0-1.7,0.3-3,1-3.9s1.5-1.7,2.5-2.1c1-0.5,2-0.8,3.2-0.9c1.1-0.1,2.2-0.2,3.1-0.2c0.4,0,0.6,0.2,0.6,0.6v35
				c0,1.7-0.3,3-0.8,4c-0.5,0.9-1.3,1.6-2.1,2s-1.9,0.7-3.1,0.7C422.5,70.8,421.3,70.9,420,70.9L420,70.9z"/>
			<path class="st0" d="M440,23.9c0-1.7,0.4-3,1-4c0.7-1,1.6-1.7,2.6-2.3c1-0.5,2.1-0.9,3.2-1c1.1-0.2,2.1-0.2,3-0.2
				c0.4,0,0.6,0.2,0.6,0.6v15.1c0,0.2,0,0.3,0.2,0.3c0,0,0.1,0,0.2-0.2c1.2-1,2.7-1.9,4.3-2.6c1.6-0.7,3.5-1,5.7-1
				c2.8,0,5.3,0.6,7.6,1.7c2.3,1.1,4.2,2.6,5.8,4.5c1.6,1.9,2.8,4.1,3.7,6.7c0.9,2.5,1.3,5.2,1.3,8.1s-0.5,5.6-1.5,8.2
				c-1,2.6-2.4,4.9-4.2,6.9c-1.8,2-3.9,3.5-6.3,4.7c-2.4,1.2-5,1.8-7.7,1.8c-2.4,0-4.5-0.5-6.2-1.4c-1.8-0.9-3-2.2-3.7-3.9
				c0-0.2-0.1-0.2-0.2-0.2c0,0-0.1,0.1-0.2,0.4c-0.6,1.8-1.7,3-3.3,3.7c-1.6,0.7-3.3,1-5.1,1c-0.4,0-0.6-0.2-0.6-0.6L440,23.9
				L440,23.9z M450.4,54.5c0,1.1,0.3,2.1,0.8,3.1c0.5,1,1.2,1.9,2.1,2.7c0.9,0.8,1.8,1.4,2.9,1.8c1.1,0.4,2.2,0.7,3.3,0.7
				c1.5,0,2.8-0.4,4-1.2c1.2-0.8,2.1-1.8,2.9-3.1c0.8-1.2,1.4-2.6,1.8-4.1s0.6-3,0.6-4.4s-0.2-2.8-0.6-4.2c-0.4-1.5-1-2.8-1.8-4
				c-0.8-1.2-1.8-2.2-3-3s-2.6-1.2-4.2-1.2c-1.2,0-2.4,0.2-3.5,0.7s-2,1.1-2.8,1.9c-0.8,0.8-1.4,1.7-1.8,2.8
				c-0.4,1.1-0.7,2.2-0.7,3.5L450.4,54.5L450.4,54.5z"/>
			<path class="st0" d="M526.6,46.8c0.1,0.9,0,1.7-0.5,2.5s-1,1.5-1.7,2.1S523,52.6,522,53c-0.9,0.4-1.9,0.8-2.8,1l-20.5,2
				c0.5,2.4,1.6,4.1,3.3,5.2c1.7,1.1,3.9,1.7,6.5,1.7c2.1,0,4-0.2,5.9-0.7s3.8-1.2,5.8-2.1c0.5-0.2,0.9-0.3,1.2-0.3
				c0.5,0,0.9,0.1,1.2,0.4c0.3,0.3,0.6,0.7,0.7,1.1s0.1,1-0.1,1.5c-0.2,0.5-0.5,1-0.9,1.5c-0.8,0.8-1.8,1.6-2.8,2.5
				c-1,0.9-2.2,1.6-3.6,2.3c-1.3,0.7-2.9,1.3-4.5,1.7c-1.7,0.4-3.5,0.7-5.6,0.7c-3.2,0-5.9-0.6-8.3-1.7c-2.4-1.1-4.3-2.7-5.9-4.6
				c-1.6-1.9-2.8-4.1-3.5-6.6c-0.8-2.5-1.2-5-1.2-7.7c0-2.9,0.4-5.7,1.3-8.4c0.9-2.7,2.2-5,4-7.1c1.8-2,4-3.7,6.7-4.9
				s5.8-1.8,9.4-1.8c2.8,0,5.2,0.5,7.3,1.5c2.2,1,4,2.3,5.6,4c1.6,1.7,2.8,3.6,3.7,5.8C525.8,42.2,526.4,44.5,526.6,46.8L526.6,46.8
				z M515.8,46.1c-0.1-1.1-0.4-2.2-0.9-3.2c-0.5-1.1-1.1-2-1.8-2.8s-1.6-1.5-2.7-2c-1-0.5-2.2-0.8-3.4-0.8s-2.5,0.3-3.6,0.8
				c-1.2,0.5-2.2,1.3-3,2.2s-1.5,2-2.1,3.2s-0.8,2.5-0.8,3.9L515.8,46.1L515.8,46.1z"/>
		</g>
	</g>
	<g>
		<path class="st0" d="M129.3,103.4c-28.1,0-50.9-22.8-50.9-50.9s22.8-50.9,50.9-50.9s50.9,22.8,50.9,50.9S157.4,103.4,129.3,103.4z
			 M129.3,5c-26.2,0-47.5,21.3-47.5,47.5s21.3,47.5,47.5,47.5s47.5-21.3,47.5-47.5S155.5,5,129.3,5L129.3,5z"/>
		<g>
			<path class="st0" d="M170.4,28.6l-27.6,0L129.3,5.2l-13.5,23.4l-27.8,0l13.9,24L88.1,76.4l27.6,0l13.5,23.4l13.5-23.4l27.8,0
				l-13.9-24L170.4,28.6L170.4,28.6z M164.8,73.2l-23.9,0l-11.6,20.1l-11.7-20.1l-23.7,0l11.8-20.5l-12-20.7l23.9,0l11.6-20.1
				l11.7,20.2l23.7,0l-11.9,20.5L164.8,73.2L164.8,73.2z"/>
			<g>
				<polygon class="st1" points="129.3,22.5 123.9,31.9 134.7,31.9 				"/>
				<polygon class="st1" points="103.1,37.2 108.8,47.2 114.5,37.3 				"/>
				<polygon class="st1" points="103.2,67.7 114.5,67.7 108.8,57.9 				"/>
				<polygon class="st1" points="155.4,37.3 144.1,37.3 149.7,47.1 				"/>
				<polygon class="st1" points="129.3,82.5 134.7,73.1 123.8,73.1 				"/>
				<polygon class="st1" points="155.5,67.8 149.7,57.8 144,67.7 				"/>
				<circle class="st1" cx="129.3" cy="52.5" r="15.9"/>
			</g>
		</g>
	</g>
</g>
</svg>
