<?xml version="1.0" encoding="utf-8"?>
<!-- Generator: Adobe Illustrator 25.2.3, SVG Export Plug-In . SVG Version: 6.00 Build 0)  -->
<svg version="1.1" id="Capa_1" xmlns="http://www.w3.org/2000/svg" xmlns:xlink="http://www.w3.org/1999/xlink" x="0px" y="0px"
	 viewBox="0 0 130 130" style="enable-background:new 0 0 130 130;" xml:space="preserve">
<style type="text/css">
	.st0{fill:#001689;}
	.st1{fill:none;stroke:#FFFFFF;stroke-miterlimit:10;}
	.st2{fill:#FFFFFF;}
</style>
<g>
	<g>
		<path class="st0" d="M127.37,126.62l-11.01-27.44c-0.76-1.89-0.62-4.01,0.36-5.79c5.04-9.17,7.78-19.78,7.45-31.05
			c-0.95-31.9-26.92-57.92-58.82-58.91C30.23,2.32,1.53,31.04,2.66,66.17c1.02,31.63,26.63,57.47,58.25,58.73
			c12.32,0.49,23.87-2.68,33.65-8.52c1.83-1.1,4.06-1.3,6.05-0.51L127.37,126.62z"/>
	</g>
	<g>
		<path class="st0" d="M63.41,120.5c-31.11,0-56.33-25.22-56.33-56.33c0-31.11,25.22-56.33,56.33-56.33h0.01
			c31.11,0,56.33,25.22,56.33,56.33C119.75,95.28,94.52,120.5,63.41,120.5z"/>
		<path class="st1" d="M63.41,120.5c-31.11,0-56.33-25.22-56.33-56.33c0-31.11,25.22-56.33,56.33-56.33h0.01
			c31.11,0,56.33,25.22,56.33,56.33C119.75,95.28,94.52,120.5,63.41,120.5z"/>
	</g>
	<g>
		<path class="st2" d="M48.64,51.54c0,3.92-1.25,7.15-3.76,9.69c-2.51,2.54-5.71,3.81-9.61,3.81c-2.37,0-4.67-0.61-6.9-1.82
			c-2.24-1.21-4-2.81-5.3-4.8l4.28-2.6c2.22,3.12,4.93,4.67,8.13,4.67c2.31,0,4.24-0.74,5.8-2.21c1.56-1.47,2.34-3.36,2.34-5.67
			H23.07c-0.17-1.01-0.26-2.29-0.26-3.85c0-3.52,1.3-6.46,3.89-8.83c2.51-2.31,5.54-3.46,9.09-3.46c4.82,0,8.67,1.99,11.55,5.97
			l-3.98,2.77c-1.99-2.8-4.67-4.2-8.05-4.2c-2.11,0-3.86,0.66-5.26,1.97c-1.4,1.31-2.14,3.01-2.23,5.08h20.55
			C48.55,48.83,48.64,49.99,48.64,51.54z"/>
		<path class="st2" d="M77.11,50.77c0,4.01-1.44,7.33-4.33,9.95c-2.77,2.51-6.19,3.76-10.25,3.76H51.06V37.05h11.47
			c4.12,0,7.56,1.24,10.3,3.72C75.68,43.37,77.11,46.7,77.11,50.77z M72.13,50.77c0-2.65-0.93-4.8-2.78-6.45
			c-1.86-1.64-4.13-2.47-6.83-2.47h-6.48v17.83h6.48c2.7,0,4.97-0.82,6.83-2.47C71.2,55.57,72.13,53.42,72.13,50.77z"/>
		<path class="st2" d="M104.02,44.97c0,3.17-1.2,5.38-3.6,6.62c-1.74,0.89-4.32,1.34-7.76,1.34c-0.75,0-1.81-0.02-3.19-0.06
			c-1.37-0.04-2.33-0.06-2.88-0.06v11.68h-4.98V52.8h-3.24V48h3.24V37.05h13.46c2.71,0,4.85,0.63,6.4,1.9
			C103.17,40.34,104.02,42.34,104.02,44.97z M99.04,44.97c0-1.01-0.33-1.78-1-2.31c-0.67-0.53-1.51-0.8-2.53-0.8h-8.93V48h8.93
			c0.99,0,1.82-0.26,2.51-0.78C98.7,46.7,99.04,45.95,99.04,44.97z"/>
	</g>
	<path class="st2" d="M96.1,78.86H30.73c-1.07,0-1.94-0.87-1.94-1.94v0c0-1.07,0.87-1.94,1.94-1.94H96.1c1.07,0,1.94,0.87,1.94,1.94
		v0C98.04,77.99,97.17,78.86,96.1,78.86z"/>
	<path class="st2" d="M96.1,87.33H30.73c-1.07,0-1.94-0.87-1.94-1.94v0c0-1.07,0.87-1.94,1.94-1.94H96.1c1.07,0,1.94,0.87,1.94,1.94
		v0C98.04,86.46,97.17,87.33,96.1,87.33z"/>
	<path class="st2" d="M96.1,95.8H30.73c-1.07,0-1.94-0.87-1.94-1.94v0c0-1.07,0.87-1.94,1.94-1.94H96.1c1.07,0,1.94,0.87,1.94,1.94
		v0C98.04,94.93,97.17,95.8,96.1,95.8z"/>
</g>
</svg>
